<svg width="91" height="91" viewBox="0 0 91 91" fill="none" xmlns="http://www.w3.org/2000/svg">
<g filter="url(#filter0_b_174_5910)">
<circle cx="45.5" cy="45.5" r="45.5" fill="#2F3241" fill-opacity="0.5"/>
</g>
<g filter="url(#filter1_d_174_5910)">
<path d="M53.1095 41.321V37.3848C53.1095 32.7776 49.3731 29.0413 44.766 29.0413C40.1588 29.0211 36.4078 32.7391 36.3876 37.3481V37.3848V41.321" stroke="#11CABE" stroke-width="2" stroke-linecap="round" stroke-linejoin="round"/>
<path fill-rule="evenodd" clip-rule="evenodd" d="M51.7524 62.9576H37.7439C33.9049 62.9576 30.7919 59.8464 30.7919 56.0056V48.1424C30.7919 44.3016 33.9049 41.1904 37.7439 41.1904H51.7524C55.5914 41.1904 58.7044 44.3016 58.7044 48.1424V56.0056C58.7044 59.8464 55.5914 62.9576 51.7524 62.9576Z" stroke="#11CABE" stroke-width="2" stroke-linecap="round" stroke-linejoin="round"/>
<path d="M44.7486 50.0383V54.1102" stroke="#11CABE" stroke-width="2" stroke-linecap="round" stroke-linejoin="round"/>
</g>
<defs>
<filter id="filter0_b_174_5910" x="-14" y="-14" width="119" height="119" filterUnits="userSpaceOnUse" color-interpolation-filters="sRGB">
<feFlood flood-opacity="0" result="BackgroundImageFix"/>
<feGaussianBlur in="BackgroundImage" stdDeviation="7"/>
<feComposite in2="SourceAlpha" operator="in" result="effect1_backgroundBlur_174_5910"/>
<feBlend mode="normal" in="SourceGraphic" in2="effect1_backgroundBlur_174_5910" result="shape"/>
</filter>
<filter id="filter1_d_174_5910" x="19" y="20" width="52" height="52" filterUnits="userSpaceOnUse" color-interpolation-filters="sRGB">
<feFlood flood-opacity="0" result="BackgroundImageFix"/>
<feColorMatrix in="SourceAlpha" type="matrix" values="0 0 0 0 0 0 0 0 0 0 0 0 0 0 0 0 0 0 127 0" result="hardAlpha"/>
<feOffset/>
<feGaussianBlur stdDeviation="2"/>
<feColorMatrix type="matrix" values="0 0 0 0 0.0679514 0 0 0 0 0.790382 0 0 0 0 0.747036 0 0 0 1 0"/>
<feBlend mode="normal" in2="BackgroundImageFix" result="effect1_dropShadow_174_5910"/>
<feBlend mode="normal" in="SourceGraphic" in2="effect1_dropShadow_174_5910" result="shape"/>
</filter>
</defs>
</svg>
