<svg width="24" height="24" viewBox="0 0 24 24" fill="none" xmlns="http://www.w3.org/2000/svg">
<path d="M12 24C18.6274 24 24 18.6274 24 12C24 5.37258 18.6274 0 12 0C5.37258 0 0 5.37258 0 12C0 18.6274 5.37258 24 12 24Z" fill="#767DFF"/>
<path fill-rule="evenodd" clip-rule="evenodd" d="M10.327 4.875H13.672C13.7879 4.87494 13.9018 4.90576 14.0018 4.96429C14.1019 5.02281 14.1845 5.10694 14.2413 5.208L19.4208 14.4473C19.4753 14.5446 19.5039 14.6544 19.5039 14.766C19.5039 14.8776 19.4753 14.9874 19.4208 15.0848L17.7633 18.0413C17.7067 18.1423 17.6242 18.2265 17.5243 18.2852C17.4244 18.3439 17.3106 18.3748 17.1948 18.375H6.80427C6.68829 18.375 6.5744 18.3441 6.47435 18.2854C6.37429 18.2267 6.29168 18.1425 6.23502 18.0413L4.57827 15.0848C4.52375 14.9874 4.49512 14.8776 4.49512 14.766C4.49512 14.6544 4.52375 14.5446 4.57827 14.4473L9.75777 5.208C9.81453 5.10694 9.89718 5.02281 9.99723 4.96429C10.0973 4.90576 10.2111 4.87494 10.327 4.875ZM11.9995 8.55075L8.50977 14.766H15.4893L11.9995 8.55075Z" fill="white"/>
</svg>
