<svg width="24" height="24" viewBox="0 0 24 24" fill="none" xmlns="http://www.w3.org/2000/svg">
<path fill-rule="evenodd" clip-rule="evenodd" d="M9.877 15.2062C6.033 15.2062 2.75 15.7872 2.75 18.1152C2.75 20.4422 6.012 21.0452 9.877 21.0452C13.721 21.0452 17.004 20.4632 17.004 18.1362C17.004 15.8092 13.742 15.2062 9.877 15.2062Z" stroke="white" stroke-width="1.5" stroke-linecap="round" stroke-linejoin="round"/>
<path fill-rule="evenodd" clip-rule="evenodd" d="M9.87659 11.8859C12.4126 11.8859 14.4446 9.85289 14.4446 7.31789C14.4446 4.78189 12.4126 2.74989 9.87659 2.74989C7.34159 2.74989 5.30859 4.78189 5.30859 7.31789C5.30859 9.85289 7.34159 11.8859 9.87659 11.8859Z" stroke="white" stroke-width="1.5" stroke-linecap="round" stroke-linejoin="round"/>
<path d="M19.2041 8.6691V12.6791" stroke="white" stroke-width="1.5" stroke-linecap="round" stroke-linejoin="round"/>
<path d="M21.2492 10.674H17.1592" stroke="white" stroke-width="1.5" stroke-linecap="round" stroke-linejoin="round"/>
</svg>
