<svg width="33" height="33" viewBox="0 0 33 33" fill="none" xmlns="http://www.w3.org/2000/svg">
<g clip-path="url(#clip0_562_126)">
<path d="M7.758 0.5H25.742C29.6125 0.5 32.75 3.6375 32.75 7.508V25.492C32.75 29.3625 29.6125 32.5 25.742 32.5H7.758C3.8875 32.5 0.75 29.3625 0.75 25.492V7.508C0.75 3.6375 3.8875 0.5 7.758 0.5Z" fill="url(#paint0_linear_562_126)"/>
<path d="M11.0054 23.7266L11.0084 23.7276L9.9143 25.6226C9.51493 26.3143 8.63043 26.5513 7.93868 26.152C7.24705 25.7526 7.00993 24.8681 7.4093 24.1763L8.2153 22.7803L8.29268 22.6463C8.4308 22.4478 8.77168 22.1051 9.45355 22.1696C9.45355 22.1696 11.0582 22.3437 11.1743 23.1777C11.1743 23.1777 11.1901 23.4521 11.0054 23.7266ZM26.5233 18.8866H23.1116C22.8792 18.871 22.7778 18.788 22.7378 18.7397L22.7353 18.7353L19.0832 12.4096L19.0784 12.4127L18.8594 12.0987C18.5004 11.5497 17.9304 12.9537 17.9304 12.9537C17.2498 14.5182 18.0271 16.2968 18.2979 16.8345L23.3707 25.6207C23.7699 26.3123 24.6544 26.5495 25.3463 26.15C26.0379 25.7506 26.2751 24.8661 25.8756 24.1743L24.6072 21.9773C24.5826 21.9241 24.5398 21.7796 24.7999 21.779H26.5233C27.3221 21.779 27.9696 21.1315 27.9696 20.3327C27.9696 19.534 27.3221 18.8865 26.5233 18.8865V18.8866ZM19.8966 20.8526C19.8966 20.8526 20.0787 21.779 19.3741 21.779H6.76168C5.96293 21.779 5.31543 21.1315 5.31543 20.3327C5.31543 19.534 5.96293 18.8865 6.76168 18.8865H10.0042C10.5277 18.8562 10.6517 18.554 10.6517 18.554L10.6547 18.5555L14.8872 11.2245L14.8859 11.2242C14.9631 11.0826 14.8988 10.9487 14.8877 10.9276L13.4898 8.50645C13.0904 7.81483 13.3274 6.9302 14.0192 6.53095C14.7109 6.13158 15.5954 6.36845 15.9948 7.0602L16.6431 8.18308L17.2902 7.0622C17.6896 6.37058 18.5741 6.13345 19.2658 6.53295C19.9576 6.93233 20.1946 7.8167 19.7952 8.50845L13.9054 18.7097C13.8797 18.7718 13.8718 18.8693 14.0634 18.8865H17.5839L17.5847 18.9208C17.5847 18.9208 19.6194 18.9525 19.8966 20.8526Z" fill="white"/>
</g>
<defs>
<linearGradient id="paint0_linear_562_126" x1="16.75" y1="0.5" x2="16.75" y2="32.5" gradientUnits="userSpaceOnUse">
<stop stop-color="#17C9FB"/>
<stop offset="1" stop-color="#1A74E8"/>
</linearGradient>
<clipPath id="clip0_562_126">
<rect width="32" height="32" fill="white" transform="translate(0.75 0.5)"/>
</clipPath>
</defs>
</svg>
