<svg xmlns="http://www.w3.org/2000/svg" width="135" height="36.104" viewBox="0 0 135 36.104"><path d="M498.582,228.786a.525.525,0,0,0-.4-.145h-2.79l.871-3.889a1.218,1.218,0,0,0,.035-.325.685.685,0,0,0-.191-.522.7.7,0,0,0-.5-.179,1.37,1.37,0,0,0-.433.068l-4.644,1.421a1.7,1.7,0,0,0-.711.368,1.351,1.351,0,0,0-.312.608l-.559,2.451h-2.322a.825.825,0,0,0-.528.171.811.811,0,0,0-.286.479l-.335,1.6-.587,2.782a1.457,1.457,0,0,0-.034.223q0,.5.624.5H487.7l-2.953,13.773a1.528,1.528,0,0,0-.035.223q0,.5.624.5h4.974a.822.822,0,0,0,.884-.719l2.953-13.773h2.79a.769.769,0,0,0,.815-.668l.953-4.433a.525.525,0,0,0,.017-.154.493.493,0,0,0-.139-.351" transform="translate(-405.898 -218.627)"/><path d="M285.75,228.006h10.258a7.071,7.071,0,0,1,3.371.788,5.719,5.719,0,0,1,3.11,5.135,6.838,6.838,0,0,1-.1,1.164,6.671,6.671,0,0,1-.841,2.251,8.97,8.97,0,0,1-1.551,1.942,5.028,5.028,0,0,1,1.057,1.917,8.081,8.081,0,0,1,.416,2.568,6.215,6.215,0,0,1-.121,1.266,9.762,9.762,0,0,1-1.724,3.817,9.058,9.058,0,0,1-3.032,2.619,7.859,7.859,0,0,1-3.734.942H280.5q-.624,0-.624-.5a1.532,1.532,0,0,1,.035-.223l4.939-22.954a.836.836,0,0,1,.9-.736m1.49,19.531h4.627a2.7,2.7,0,0,0,1.342-.377,3.872,3.872,0,0,0,1.161-1.01,3.331,3.331,0,0,0,.65-1.352,2.662,2.662,0,0,0,.052-.531,2.364,2.364,0,0,0-.555-1.558,1.818,1.818,0,0,0-1.472-.667h-4.627Zm2.131-9.911h3.708a3.142,3.142,0,0,0,1.985-.668,2.962,2.962,0,0,0,1.1-1.711,2.5,2.5,0,0,0,.052-.5,1.777,1.777,0,0,0-.564-1.352,2.1,2.1,0,0,0-1.5-.531h-3.76Z" transform="translate(-237.405 -222.158)"/><path d="M414.678,259.108a.907.907,0,0,1,.537-.188h4.939a.592.592,0,0,1,.433.154.532.532,0,0,1,.156.394.6.6,0,0,1-.017.171l-2.173,10.213a.812.812,0,0,1-.866.719h-4.939q-.624,0-.624-.5a1.467,1.467,0,0,1,.034-.223l2.173-10.213a.907.907,0,0,1,.347-.531m1.95-8.721a1.568,1.568,0,0,1,1.117-.368h3.812q1.022,0,1.023.89a2.859,2.859,0,0,1-.07.479l-.814,3.8a1.474,1.474,0,0,1-.494.942,1.712,1.712,0,0,1-1.014.257h-3.812a1.636,1.636,0,0,1-.849-.18.671.671,0,0,1-.295-.624,1.616,1.616,0,0,1,.034-.377l.815-3.817A1.994,1.994,0,0,1,416.628,250.387Z" transform="translate(-346.189 -240.313)"/><path d="M673.909,259.108a.906.906,0,0,1,.538-.188h4.939a.591.591,0,0,1,.433.154.532.532,0,0,1,.156.394.6.6,0,0,1-.017.171l-2.173,10.213a.812.812,0,0,1-.867.719h-4.939q-.624,0-.624-.5a1.467,1.467,0,0,1,.034-.223l2.173-10.213a.908.908,0,0,1,.347-.531m1.95-8.721a1.568,1.568,0,0,1,1.118-.368h3.812q1.022,0,1.023.89a2.875,2.875,0,0,1-.07.479l-.814,3.8a1.475,1.475,0,0,1-.494.942,1.712,1.712,0,0,1-1.014.257h-3.812a1.636,1.636,0,0,1-.849-.18.671.671,0,0,1-.295-.624,1.626,1.626,0,0,1,.034-.377l.815-3.817A1.993,1.993,0,0,1,675.859,250.387Z" transform="translate(-559.425 -240.313)"/><path d="M578.37,265.019a.374.374,0,0,1,.375.209l1.71,3.283a.917.917,0,0,1,.1.386q0,.29-.424.6a11.952,11.952,0,0,1-3.152,1.633,10.472,10.472,0,0,1-3.511.652,8.954,8.954,0,0,1-4.4-1.078,7.78,7.78,0,0,1-3.055-3,8.613,8.613,0,0,1-1.1-4.353,11.837,11.837,0,0,1,.18-1.963,11.2,11.2,0,0,1,2.216-5.013,12.638,12.638,0,0,1,4.277-3.564,11.44,11.44,0,0,1,5.3-1.3,9.571,9.571,0,0,1,3.625.628,8.965,8.965,0,0,1,2.761,1.77.541.541,0,0,1,.2.37.513.513,0,0,1-.163.338l-2.8,3.251a.614.614,0,0,1-.44.193.544.544,0,0,1-.342-.129,5.719,5.719,0,0,0-1.653-.958,5.341,5.341,0,0,0-1.768-.281,4.915,4.915,0,0,0-2.354.628,6.486,6.486,0,0,0-3.2,4.3,6.527,6.527,0,0,0-.13,1.223,4.075,4.075,0,0,0,.448,1.939,3.159,3.159,0,0,0,1.262,1.3,3.782,3.782,0,0,0,1.89.459,4.615,4.615,0,0,0,1.841-.386,15.2,15.2,0,0,0,1.873-.982.768.768,0,0,1,.44-.145" transform="translate(-471.869 -241.535)"/><path d="M769.052,340h-.017a3.091,3.091,0,0,1-3.149-3.152,2.918,2.918,0,0,1,1.263-2.538l.977,1.248a1.6,1.6,0,0,0-.709,1.307,1.49,1.49,0,0,0,1.6,1.427h.018a1.491,1.491,0,0,0,1.617-1.427,1.626,1.626,0,0,0-.736-1.35l.9-1.247a3,3,0,0,1,1.367,2.649A3.056,3.056,0,0,1,769.052,340" transform="translate(-637.184 -309.798)"/><path d="M769.052,299.331h-.017a3.222,3.222,0,0,1-.017-6.443h.017a3.222,3.222,0,0,1,.017,6.443m0-4.751h-.017a1.565,1.565,0,0,0-1.636,1.538,1.536,1.536,0,0,0,1.618,1.512h.017a1.563,1.563,0,0,0,1.635-1.53A1.536,1.536,0,0,0,769.052,294.58Z" transform="translate(-637.184 -275.669)"/><path d="M766.567,256.376v-1.752l2.344-1.427-2.344-1.427v-1.752h6.056v1.65h-3.477l2.37,1.529v.034l-2.353,1.521h3.461v1.624Z" transform="translate(-637.744 -240.312)"/><path d="M728.193,344.915a2.376,2.376,0,1,1,2.406-2.376,2.393,2.393,0,0,1-2.406,2.376m0-4.279a1.9,1.9,0,1,0,1.927,1.9A1.917,1.917,0,0,0,728.193,340.636Z" transform="translate(-604.199 -314.658)"/><path d="M733.387,346.7h1.11a1.011,1.011,0,0,1,.719.247.738.738,0,0,1,.206.53v.007a.739.739,0,0,1-.594.745l.672.932h-.515l-.612-.858h-.548v.858h-.438Zm1.079,1.22c.312,0,.513-.162.513-.412V347.5c0-.263-.193-.407-.516-.407h-.637v.826Z" transform="translate(-610.451 -320.05)"/><rect width="36.104" height="36.104" fill="#ea5607"/><path d="M105.758,239.4a5.007,5.007,0,0,0,2.183-4.313c0-3.176-1.9-5.293-5.19-5.879V228H99.439v1.042H96.476V228H93.164v1.042H90.449l4.079,5.5H92.044v11.334h2.485l-4.079,5.5h2.715v1.042h3.312v-1.042h2.962v1.042h3.313v-1.053c3.959-.169,7.035-2.485,7.035-6.489a5.359,5.359,0,0,0-4.028-5.467m-9.041-6.136h3.444c1.937,0,3.075.911,3.075,2.43,0,1.488-1.168,2.46-2.952,2.46H96.717Zm4.982,13.881H96.717V241.83h4.859c2.183,0,3.444.942,3.444,2.673S103.729,247.145,101.7,247.145Z" transform="translate(-81.588 -222.153)" fill="#fff"/></svg>