<svg xmlns="http://www.w3.org/2000/svg" width="201" height="54.104" viewBox="0 0 201 54.104"><path d="M505.363,231.31a.779.779,0,0,0-.593-.218h-4.154l1.3-5.828a1.836,1.836,0,0,0,.052-.487,1.03,1.03,0,0,0-.284-.783,1.043,1.043,0,0,0-.749-.269,2.027,2.027,0,0,0-.644.1l-6.915,2.129a2.519,2.519,0,0,0-1.059.552,2.028,2.028,0,0,0-.464.911l-.833,3.673h-3.457a1.18,1.18,0,0,0-1.212.974l-.5,2.4-.873,4.169a2.2,2.2,0,0,0-.051.334q0,.744.929.743h3.307l-4.4,20.639a2.3,2.3,0,0,0-.052.334q0,.744.929.744h7.405a1.225,1.225,0,0,0,1.316-1.078l4.4-20.639h4.153a1.147,1.147,0,0,0,1.213-1l1.419-6.644a.791.791,0,0,0,.026-.231.741.741,0,0,0-.207-.526" transform="translate(-367.366 -216.086)" fill="#7e7e7e"/><path d="M288.622,228.006H303.9a10.473,10.473,0,0,1,5.018,1.181,8.577,8.577,0,0,1,4.631,7.7,10.314,10.314,0,0,1-.154,1.744A10.038,10.038,0,0,1,312.139,242a13.43,13.43,0,0,1-2.309,2.911,7.548,7.548,0,0,1,1.574,2.873,12.181,12.181,0,0,1,.619,3.848,9.373,9.373,0,0,1-.181,1.9,14.675,14.675,0,0,1-2.567,5.72,13.512,13.512,0,0,1-4.515,3.925,11.641,11.641,0,0,1-5.56,1.411H280.8q-.929,0-.929-.744a2.314,2.314,0,0,1,.051-.334l7.354-34.4a1.247,1.247,0,0,1,1.342-1.1m2.219,29.268h6.889a4.007,4.007,0,0,0,2-.565,5.777,5.777,0,0,0,1.729-1.513,5.006,5.006,0,0,0,.968-2.026,4.013,4.013,0,0,0,.078-.8,3.557,3.557,0,0,0-.826-2.334,2.7,2.7,0,0,0-2.192-1h-6.89Zm3.173-14.852h5.521a4.658,4.658,0,0,0,2.955-1,4.441,4.441,0,0,0,1.638-2.565,3.767,3.767,0,0,0,.078-.744,2.671,2.671,0,0,0-.839-2.026,3.11,3.11,0,0,0-2.231-.8h-5.6Z" transform="translate(-216.642 -219.242)" fill="#7e7e7e"/><path d="M415.927,263.639a1.345,1.345,0,0,1,.8-.282h7.354a.878.878,0,0,1,.645.231.8.8,0,0,1,.232.591.91.91,0,0,1-.026.256l-3.236,15.3a1.21,1.21,0,0,1-1.29,1.077h-7.353q-.929,0-.928-.743a2.209,2.209,0,0,1,.051-.334l3.236-15.3a1.359,1.359,0,0,1,.516-.8m2.9-13.069a2.325,2.325,0,0,1,1.664-.552h5.676q1.522,0,1.522,1.333a4.307,4.307,0,0,1-.1.719l-1.212,5.694a2.213,2.213,0,0,1-.736,1.411,2.536,2.536,0,0,1-1.509.385h-5.675a2.423,2.423,0,0,1-1.264-.27,1.007,1.007,0,0,1-.439-.936,2.437,2.437,0,0,1,.051-.565l1.213-5.72A2.994,2.994,0,0,1,418.829,250.571Z" transform="translate(-313.954 -235.474)" fill="#7e7e7e"/><path d="M675.158,263.639a1.344,1.344,0,0,1,.8-.282h7.353a.876.876,0,0,1,.645.231.8.8,0,0,1,.232.591.9.9,0,0,1-.026.256l-3.235,15.3a1.211,1.211,0,0,1-1.29,1.077h-7.353q-.929,0-.929-.743a2.209,2.209,0,0,1,.051-.334l3.235-15.3a1.361,1.361,0,0,1,.516-.8m2.9-13.069a2.326,2.326,0,0,1,1.664-.552H685.4q1.522,0,1.523,1.333a4.339,4.339,0,0,1-.1.719l-1.212,5.694a2.215,2.215,0,0,1-.735,1.411,2.535,2.535,0,0,1-1.51.385h-5.676a2.424,2.424,0,0,1-1.264-.27,1.007,1.007,0,0,1-.439-.936,2.453,2.453,0,0,1,.051-.565l1.213-5.72A2.993,2.993,0,0,1,678.06,250.571Z" transform="translate(-504.704 -235.474)" fill="#7e7e7e"/><path d="M584.949,271.759a.556.556,0,0,1,.558.313l2.547,4.919a1.382,1.382,0,0,1,.145.579q0,.434-.631.892a17.754,17.754,0,0,1-4.693,2.448,15.5,15.5,0,0,1-5.228.977,13.263,13.263,0,0,1-6.549-1.616,11.62,11.62,0,0,1-4.549-4.5,12.974,12.974,0,0,1-1.637-6.524,17.849,17.849,0,0,1,.267-2.942,16.839,16.839,0,0,1,3.3-7.512,18.845,18.845,0,0,1,6.367-5.341,16.944,16.944,0,0,1,7.9-1.954,14.168,14.168,0,0,1,5.4.941,13.337,13.337,0,0,1,4.111,2.653.813.813,0,0,1,.291.554.77.77,0,0,1-.243.507l-4.172,4.872a.911.911,0,0,1-.655.289.807.807,0,0,1-.51-.193,8.5,8.5,0,0,0-2.462-1.436,7.9,7.9,0,0,0-2.632-.422,7.282,7.282,0,0,0-3.505.94,9.445,9.445,0,0,0-3.021,2.628,9.558,9.558,0,0,0-1.746,3.811,9.841,9.841,0,0,0-.194,1.833,6.139,6.139,0,0,0,.667,2.906,4.719,4.719,0,0,0,1.879,1.953,5.6,5.6,0,0,0,2.815.688,6.832,6.832,0,0,0,2.741-.579,22.574,22.574,0,0,0,2.789-1.471,1.138,1.138,0,0,1,.655-.217" transform="translate(-426.381 -236.567)" fill="#7e7e7e"/><path d="M770.6,342.861h-.025a4.617,4.617,0,0,1-4.688-4.724,4.381,4.381,0,0,1,1.88-3.8l1.455,1.87a2.4,2.4,0,0,0-1.056,1.959,2.224,2.224,0,0,0,2.383,2.139h.026a2.225,2.225,0,0,0,2.408-2.139,2.441,2.441,0,0,0-1.1-2.023l1.34-1.869a4.51,4.51,0,0,1,2.035,3.969,4.564,4.564,0,0,1-4.663,4.622" transform="translate(-574.262 -297.597)" fill="#7e7e7e"/><path d="M770.6,302.543h-.025a4.83,4.83,0,0,1-.026-9.655h.026a4.83,4.83,0,0,1,.025,9.655m0-7.119h-.025a2.337,2.337,0,0,0-2.435,2.305A2.293,2.293,0,0,0,770.549,300h.026a2.334,2.334,0,0,0,2.434-2.292A2.294,2.294,0,0,0,770.6,295.424Z" transform="translate(-574.262 -267.084)" fill="#7e7e7e"/><path d="M766.567,259.546V256.92l3.49-2.138-3.49-2.139v-2.626h9.017v2.473h-5.177l3.529,2.292v.051l-3.5,2.279h5.153v2.433Z" transform="translate(-574.763 -235.473)" fill="#7e7e7e"/><path d="M729.369,347.284a3.561,3.561,0,1,1,3.582-3.561,3.575,3.575,0,0,1-3.582,3.561m0-6.413a2.852,2.852,0,1,0,2.869,2.852A2.863,2.863,0,0,0,729.369,340.872Z" transform="translate(-544.756 -301.943)" fill="#7e7e7e"/><path d="M733.387,346.7h1.653a1.5,1.5,0,0,1,1.071.37,1.11,1.11,0,0,1,.306.794v.011a1.106,1.106,0,0,1-.885,1.117l1,1.4h-.767l-.912-1.286h-.816v1.286h-.652Zm1.606,1.829c.465,0,.763-.242.763-.617v-.01c0-.395-.287-.61-.769-.61h-.949v1.238Z" transform="translate(-550.348 -306.763)" fill="#7e7e7e"/><rect width="53.754" height="54.104" fill="#7e7e7e"/><path d="M113.243,245.083a7.517,7.517,0,0,0,3.251-6.463c0-4.759-2.832-7.932-7.727-8.811V228h-4.932v1.562H99.423V228H94.492v1.562H90.449l6.074,8.235h-3.7v16.985h3.7l-6.074,8.236h4.043v1.561h4.932v-1.561h4.411v1.561h4.932V263c5.894-.253,10.474-3.723,10.474-9.724,0-4.643-2.564-7.01-6-8.193m-13.461-9.194h5.128c2.885,0,4.578,1.365,4.578,3.641,0,2.23-1.739,3.687-4.4,3.687H99.782Zm7.417,20.8H99.782v-7.966h7.234c3.25,0,5.127,1.411,5.127,4S110.221,256.69,107.2,256.69Z" transform="translate(-77.257 -219.238)" fill="#fff"/></svg>