<svg width="24" height="24" viewBox="0 0 24 24" fill="none" xmlns="http://www.w3.org/2000/svg">
<g clip-path="url(#clip0_26_3)">
<path d="M23.641 14.902C22.0377 21.334 15.521 25.244 9.09824 23.6406C2.66605 22.0373 -1.24389 15.5209 0.359518 9.09817C1.96283 2.66617 8.47002 -1.24377 14.9022 0.359641C21.325 1.95358 25.2444 8.46995 23.641 14.902Z" fill="url(#paint0_linear_26_3)"/>
<path d="M17.7141 10.5047C17.9484 8.91093 16.7391 8.04843 15.0703 7.47655L15.6141 5.31093L14.3016 4.9828L13.7766 7.09218C13.4297 7.0078 13.0734 6.92343 12.7172 6.84843L13.2422 4.72968L11.9297 4.40155L11.3953 6.5578C11.1047 6.49218 10.8234 6.42655 10.5516 6.36093V6.35155L8.73281 5.90155L8.38594 7.3078C8.38594 7.3078 9.36094 7.5328 9.34219 7.54218C9.87656 7.67343 9.97031 8.02968 9.95156 8.31093L9.33281 10.7766C9.37031 10.7859 9.41719 10.7953 9.47344 10.8234C9.42656 10.8141 9.37969 10.8047 9.33281 10.7859L8.47031 14.2359C8.40469 14.3953 8.23594 14.6391 7.87031 14.5453C7.87969 14.5641 6.91406 14.3109 6.91406 14.3109L6.25781 15.8203L7.97344 16.2516C8.29219 16.3359 8.60156 16.4109 8.91094 16.4953L8.36719 18.6797L9.67969 19.0078L10.2234 16.8422C10.5797 16.9359 10.9359 17.0297 11.2734 17.1141L10.7391 19.2703L12.0516 19.5984L12.5953 17.4141C14.8453 17.8359 16.5328 17.6672 17.2359 15.6328C17.8078 14.0016 17.2078 13.0547 16.0266 12.4359C16.8984 12.2391 17.5453 11.6672 17.7141 10.5047ZM14.7047 14.7234C14.3016 16.3547 11.5453 15.4734 10.6547 15.2484L11.3766 12.3516C12.2672 12.5766 15.1359 13.0172 14.7047 14.7234ZM15.1172 10.4766C14.7422 11.9672 12.4547 11.2078 11.7141 11.0203L12.3703 8.3953C13.1109 8.5828 15.5016 8.92968 15.1172 10.4766Z" fill="white"/>
</g>
<defs>
<linearGradient id="paint0_linear_26_3" x1="11.9935" y1="-0.00563792" x2="11.9935" y2="23.9977" gradientUnits="userSpaceOnUse">
<stop stop-color="#F9AA4B"/>
<stop offset="1" stop-color="#F7931A"/>
</linearGradient>
<clipPath id="clip0_26_3">
<rect width="24" height="24" fill="white"/>
</clipPath>
</defs>
</svg>
