<svg width="24" height="24" viewBox="0 0 24 24" fill="none" xmlns="http://www.w3.org/2000/svg">
<g clip-path="url(#clip0_76_29)">
<circle cx="12" cy="12" r="12" fill="#F3BA2F"/>
<path d="M8.89267 10.7233L12 7.616L15.1088 10.7247L16.9168 8.91667L12 4L7.0848 8.9152L8.89274 10.7232L8.89267 10.7233ZM4 12L5.80806 10.1917L7.616 11.9996L5.80794 13.8077L4 12ZM8.89267 13.2769L12 16.384L15.1087 13.2754L16.9177 15.0824L16.9168 15.0834L12 20L7.0848 15.0848L7.08224 15.0822L8.89286 13.2767L8.89267 13.2769ZM16.384 12.0008L18.1921 10.1927L20 12.0006L18.192 13.8087L16.384 12.0008Z" fill="white"/>
<path d="M13.8334 11.999H13.8341L11.9996 10.1644L10.6437 11.52L10.4879 11.6758L10.1666 11.9972L10.1641 11.9997L10.1666 12.0023L11.9996 13.8356L13.8343 12.001L13.8352 11.9999L13.8335 11.999" fill="white"/>
</g>
<defs>
<clipPath id="clip0_76_29">
<rect width="24" height="23.9999" fill="white"/>
</clipPath>
</defs>
</svg>
