<svg width="183" height="183" viewBox="0 0 183 183" fill="none" xmlns="http://www.w3.org/2000/svg">
<path d="M173 91.5C173 136.511 136.511 173 91.5 173C46.4888 173 10 136.511 10 91.5C10 46.4888 46.4888 10 91.5 10C136.511 10 173 46.4888 173 91.5ZM19.2866 91.5C19.2866 131.382 51.6177 163.713 91.5 163.713C131.382 163.713 163.713 131.382 163.713 91.5C163.713 51.6177 131.382 19.2866 91.5 19.2866C51.6177 19.2866 19.2866 51.6177 19.2866 91.5Z" fill="#252D55"/>
<g filter="url(#filter0_f_1409_3300)">
<path d="M18.0184 63.883C16.4674 63.3001 15.6775 61.5677 16.3171 60.0393C20.8434 49.2223 27.6559 39.4978 36.3 31.54C45.6806 22.9041 56.9565 16.5896 69.2213 13.1041C81.4862 9.6187 94.3977 9.05955 106.918 11.4716C118.455 13.6943 129.363 18.3829 138.902 25.2029C140.25 26.1666 140.489 28.0555 139.476 29.3669L135.453 34.5774C134.44 35.8888 132.56 36.1252 131.206 35.1706C123.23 29.5487 114.142 25.6777 104.537 23.8275C93.9503 21.7878 83.0322 22.2606 72.661 25.2079C62.2898 28.1552 52.7548 33.4948 44.8225 40.7974C37.6268 47.4218 31.9321 55.494 28.105 64.47C27.4551 65.9941 25.7315 66.7819 24.1805 66.199L18.0184 63.883Z" fill="#BD47FB"/>
</g>
<path d="M18.0184 63.883C16.4674 63.3001 15.6775 61.5677 16.3171 60.0393C20.8434 49.2223 27.6559 39.4978 36.3 31.54C45.6806 22.9041 56.9565 16.5896 69.2213 13.1041C81.4862 9.6187 94.3977 9.05955 106.918 11.4716C118.455 13.6943 129.363 18.3829 138.902 25.2029C140.25 26.1666 140.489 28.0555 139.476 29.3669L135.453 34.5774C134.44 35.8888 132.56 36.1252 131.206 35.1706C123.23 29.5487 114.142 25.6777 104.537 23.8275C93.9503 21.7878 83.0322 22.2606 72.661 25.2079C62.2898 28.1552 52.7548 33.4948 44.8225 40.7974C37.6268 47.4218 31.9321 55.494 28.105 64.47C27.4551 65.9941 25.7315 66.7819 24.1805 66.199L18.0184 63.883Z" fill="#BD47FB"/>
<g filter="url(#filter1_f_1409_3300)">
<path d="M49.7719 157.991C48.8911 159.394 47.0358 159.822 45.6658 158.89C31.4094 149.195 20.5716 135.209 14.7527 118.925C8.93381 102.64 8.45365 84.9533 13.3368 68.4182C13.8061 66.8292 15.5126 65.9845 17.0833 66.5119L23.3239 68.6074C24.8946 69.1349 25.7336 70.8342 25.275 72.4264C21.2845 86.2807 21.7336 101.066 26.6019 114.69C31.4703 128.315 40.4933 140.036 52.3602 148.224C53.724 149.165 54.1519 151.011 53.2712 152.415L49.7719 157.991Z" fill="#30E0A1"/>
</g>
<path d="M49.7719 157.991C48.8911 159.394 47.0358 159.822 45.6658 158.89C31.4094 149.195 20.5716 135.209 14.7527 118.925C8.93381 102.64 8.45365 84.9533 13.3368 68.4182C13.8061 66.8292 15.5126 65.9845 17.0833 66.5119L23.3239 68.6074C24.8946 69.1349 25.7336 70.8342 25.275 72.4264C21.2845 86.2807 21.7336 101.066 26.6019 114.69C31.4703 128.315 40.4933 140.036 52.3602 148.224C53.724 149.165 54.1519 151.011 53.2712 152.415L49.7719 157.991Z" fill="#30E0A1"/>
<g filter="url(#filter2_f_1409_3300)">
<path d="M142.685 31.982C143.765 30.7258 145.664 30.5795 146.879 31.7053C160.945 44.7318 169.994 62.3288 172.374 81.4163C174.878 101.498 169.821 121.793 158.187 138.352C146.553 154.911 129.175 166.549 109.434 171.002C90.6699 175.235 71.0472 172.688 54.0232 163.872C52.5519 163.11 52.0459 161.275 52.8614 159.832L56.1016 154.102C56.9171 152.66 58.7448 152.158 60.2212 152.91C74.5209 160.194 90.9491 162.273 106.665 158.728C123.358 154.962 138.053 145.121 147.891 131.118C157.729 117.116 162.005 99.9544 159.887 82.9732C157.894 66.9863 150.368 52.236 138.668 41.2529C137.46 40.1189 137.312 38.2294 138.392 36.9732L142.685 31.982Z" fill="#F7931A"/>
</g>
<path d="M142.685 31.982C143.765 30.7258 145.664 30.5795 146.879 31.7053C160.945 44.7318 169.994 62.3288 172.374 81.4163C174.878 101.498 169.821 121.793 158.187 138.352C146.553 154.911 129.175 166.549 109.434 171.002C90.6699 175.235 71.0472 172.688 54.0232 163.872C52.5519 163.11 52.0459 161.275 52.8614 159.832L56.1016 154.102C56.9171 152.66 58.7448 152.158 60.2212 152.91C74.5209 160.194 90.9491 162.273 106.665 158.728C123.358 154.962 138.053 145.121 147.891 131.118C157.729 117.116 162.005 99.9544 159.887 82.9732C157.894 66.9863 150.368 52.236 138.668 41.2529C137.46 40.1189 137.312 38.2294 138.392 36.9732L142.685 31.982Z" fill="#F7931A"/>
<path d="M134.552 52.6344C143.337 62.3656 148.566 74.786 149.386 87.8703C150.207 100.955 146.57 113.931 139.07 124.683C131.569 135.436 120.647 143.33 108.084 147.078C95.5215 150.827 82.0594 150.209 69.8931 145.325" stroke="#5D6588" stroke-linecap="round" stroke-dasharray="5 4"/>
<path d="M38.8037 67.2699C42.1727 59.9429 47.0327 53.3989 53.0733 48.0559C59.1139 42.713 66.2023 38.6884 73.8859 36.2393C81.5695 33.7902 89.6794 32.9703 97.6977 33.8321C105.716 34.6938 113.467 37.2183 120.454 41.2442" stroke="#5D6588" stroke-linecap="round" stroke-dasharray="5 4"/>
<path d="M53.5398 135.352C45.67 128.54 39.7785 119.735 36.4832 109.862C33.188 99.9884 32.6105 89.4101 34.8113 79.2367" stroke="#5D6588" stroke-linecap="round" stroke-dasharray="5 4"/>
<path d="M78.8064 97H89.6064V94.54H84.0464L86.7464 91.9C88.4064 90.3 89.5064 88.74 89.5064 86.84C89.5064 84.26 87.7064 82.5 84.5464 82.5C81.3464 82.5 79.3464 84.3 79.1864 87.6H82.1264C82.3464 85.72 83.1464 84.98 84.4064 84.98C85.6464 84.98 86.3064 85.74 86.3064 86.92C86.3064 88.22 85.4264 89.48 84.0464 90.94L78.8064 96.48V97ZM93.2442 97.18C94.2642 97.18 95.0442 96.4 95.0442 95.42C95.0442 94.46 94.2642 93.68 93.2442 93.68C92.2442 93.68 91.4642 94.46 91.4642 95.42C91.4642 96.4 92.2442 97.18 93.2442 97.18ZM101.936 97.22C105.416 97.22 107.476 95.52 107.476 92.84C107.476 91.02 106.356 89.84 104.696 89.48C106.116 88.98 107.056 87.98 107.056 86.38C107.056 84.14 105.216 82.5 102.076 82.5C98.8158 82.5 96.9558 84.42 96.7958 87.04H99.6558C99.8158 85.7 100.656 84.88 102.016 84.88C103.336 84.88 103.996 85.64 103.996 86.66C103.996 87.88 103.316 88.56 101.816 88.56H100.776V90.72H101.896C103.436 90.72 104.196 91.42 104.196 92.78C104.196 94.06 103.436 94.84 101.816 94.84C100.096 94.84 99.3558 93.84 99.2358 92.46H96.3158C96.4358 95.36 98.2958 97.22 101.936 97.22ZM111.716 97H114.956V82.7H112.116L108.816 85.04V87.8L111.716 85.9V97ZM120.969 87.78C120.109 87.78 119.569 87.18 119.569 86.04C119.569 84.96 120.109 84.32 120.969 84.32C121.829 84.32 122.329 84.98 122.329 86.04C122.329 87.14 121.829 87.78 120.969 87.78ZM120.949 89.58C123.049 89.58 124.549 88.06 124.549 86.02C124.549 84 122.969 82.56 120.969 82.56C118.949 82.56 117.349 84.06 117.349 86.06C117.349 88.08 118.829 89.58 120.949 89.58ZM119.269 97H121.069L130.569 82.7H128.769L119.269 97ZM128.849 95.4C128.009 95.4 127.469 94.8 127.469 93.68C127.469 92.58 128.009 91.96 128.849 91.96C129.729 91.96 130.229 92.6 130.229 93.68C130.229 94.76 129.729 95.4 128.849 95.4ZM128.849 97.22C130.949 97.22 132.449 95.68 132.449 93.64C132.449 91.62 130.869 90.18 128.849 90.18C126.849 90.18 125.249 91.68 125.249 93.7C125.249 95.7 126.729 97.22 128.849 97.22Z" fill="white"/>
<path d="M56.4919 90.8821C56.5971 91.0771 56.7971 91.1987 57.0147 91.1987H60.4026V97.8881C60.4026 98.2259 60.6704 98.5 61.0003 98.5C61.3302 98.5 61.598 98.2259 61.598 97.8881V91.1987H64.9859C65.2043 91.1987 65.4043 91.0771 65.5087 90.8821C65.6147 90.6871 65.6075 90.4489 65.492 90.2604L61.5064 83.7856C61.3964 83.6077 61.2059 83.5 61.0003 83.5C60.7947 83.5 60.6042 83.6077 60.4942 83.7856L56.5086 90.2604C56.4481 90.3599 56.417 90.4733 56.417 90.5868C56.417 90.6879 56.4425 90.7899 56.4919 90.8821Z" fill="#11CABE"/>
<defs>
<filter id="filter0_f_1409_3300" x="6.09473" y="0" width="144.006" height="76.3916" filterUnits="userSpaceOnUse" color-interpolation-filters="sRGB">
<feFlood flood-opacity="0" result="BackgroundImageFix"/>
<feBlend mode="normal" in="SourceGraphic" in2="BackgroundImageFix" result="shape"/>
<feGaussianBlur stdDeviation="5" result="effect1_foregroundBlur_1409_3300"/>
</filter>
<filter id="filter1_f_1409_3300" x="0" y="56.355" width="63.7314" height="113.031" filterUnits="userSpaceOnUse" color-interpolation-filters="sRGB">
<feFlood flood-opacity="0" result="BackgroundImageFix"/>
<feBlend mode="normal" in="SourceGraphic" in2="BackgroundImageFix" result="shape"/>
<feGaussianBlur stdDeviation="5" result="effect1_foregroundBlur_1409_3300"/>
</filter>
<filter id="filter2_f_1409_3300" x="42.4727" y="20.9434" width="140.527" height="162.057" filterUnits="userSpaceOnUse" color-interpolation-filters="sRGB">
<feFlood flood-opacity="0" result="BackgroundImageFix"/>
<feBlend mode="normal" in="SourceGraphic" in2="BackgroundImageFix" result="shape"/>
<feGaussianBlur stdDeviation="5" result="effect1_foregroundBlur_1409_3300"/>
</filter>
</defs>
</svg>
