<svg width="24" height="24" viewBox="0 0 24 24" fill="none" xmlns="http://www.w3.org/2000/svg">
<circle cx="12" cy="12" r="12" fill="#7F6EE9"/>
<path d="M12.2665 3.02556V3.03408C12.275 3.07668 12.275 3.1278 12.275 3.17892V9.32172C12.2665 9.3558 12.2409 9.36432 12.2154 9.38136C12.0365 9.46655 11.8661 9.54323 11.6872 9.61991C11.4401 9.73067 11.1845 9.84995 10.9374 9.9607L10.0428 10.3697C9.79575 10.4804 9.54868 10.5912 9.31012 10.7019C9.02045 10.8382 8.72225 10.966 8.43258 11.1024C8.1855 11.2131 7.93843 11.3324 7.68283 11.4432C7.47836 11.5369 7.27388 11.6221 7.07792 11.7158C7.06088 11.7243 7.04384 11.7328 7.02681 11.7328C7.01829 11.7328 7.01829 11.7328 7.00977 11.7243L7.2398 11.3409C7.68283 10.6082 8.11734 9.88403 8.56038 9.15132C9.02897 8.3675 9.50608 7.58367 9.97467 6.79985C10.4092 6.07566 10.8522 5.35147 11.2867 4.62729C11.602 4.09906 11.9257 3.57083 12.2409 3.0426C12.2495 3.02556 12.258 3.01704 12.258 3H12.2665C12.258 3.00852 12.2665 3.01704 12.2665 3.02556Z" fill="#F3F3F3"/>
<path d="M17.4963 11.7243L17.5048 11.7328L16.2524 12.4741L12.3162 14.8C12.2992 14.8085 12.2821 14.817 12.2736 14.8255C12.248 14.8255 12.248 14.8 12.248 14.7915V14.7148V9.44952C12.248 9.42396 12.248 9.38988 12.2566 9.36432C12.2651 9.33024 12.2906 9.33876 12.3162 9.34728C12.427 9.3984 12.5462 9.44952 12.657 9.50064C12.9893 9.654 13.3215 9.80735 13.6538 9.95219C13.9435 10.08 14.2246 10.2163 14.5143 10.3441C14.804 10.4719 15.0937 10.6082 15.3833 10.736C15.6304 10.8468 15.886 10.966 16.1331 11.0768C16.3802 11.1876 16.6358 11.3068 16.8828 11.4176C17.0788 11.5028 17.2747 11.5965 17.4707 11.6817C17.4707 11.7073 17.4792 11.7158 17.4963 11.7243Z" fill="#8A8DA7"/>
<path d="M12.2655 20.1164C12.2655 20.1249 12.257 20.1334 12.257 20.1419H12.2485C12.2485 20.1249 12.2314 20.1164 12.2229 20.0993C11.6947 19.3581 11.1665 18.6084 10.6382 17.8671C10.1015 17.1089 9.55622 16.3421 9.01947 15.5838C8.49976 14.8511 7.97153 14.1099 7.45182 13.3772C7.3155 13.1812 7.17919 12.9938 7.04287 12.7978C7.03435 12.7808 7.02583 12.7723 7.00879 12.7467C7.03435 12.7467 7.05139 12.7637 7.05991 12.7723C7.80113 13.2068 8.53384 13.6413 9.27506 14.0758C10.127 14.5785 10.9705 15.0811 11.8225 15.5838L12.257 15.8394C12.274 15.8564 12.274 15.8735 12.274 15.8905V19.9971C12.274 20.0397 12.274 20.0823 12.2655 20.1164Z" fill="#F3F3F3"/>
<path d="M7 11.7413V11.7328C7.27263 11.6135 7.53675 11.4857 7.80938 11.3665C8.1587 11.2046 8.50801 11.0512 8.85732 10.8894C9.12144 10.7701 9.39407 10.6423 9.65819 10.523C10.0501 10.3441 10.4335 10.1737 10.8254 9.99477C11.0895 9.87549 11.3536 9.75622 11.6263 9.62842C11.8137 9.54322 12.0097 9.45802 12.1971 9.37282C12.2141 9.3643 12.2397 9.35578 12.2482 9.33875C12.2567 9.33875 12.2567 9.34726 12.2482 9.35578V14.7659C12.2482 14.7914 12.2397 14.817 12.2567 14.834C12.2397 14.8596 12.2227 14.834 12.2141 14.8255C12.1375 14.7829 12.0608 14.7403 11.9841 14.6892C10.3398 13.7179 8.68693 12.7382 7.0426 11.7669C7.03408 11.7584 7.01704 11.7499 7 11.7413Z" fill="#C5C8D9"/>
<path d="M17.4795 12.7467H17.488C17.488 12.7637 17.471 12.7808 17.4625 12.7978C15.8948 15.0045 14.3272 17.2196 12.7595 19.4263C12.5976 19.6563 12.4272 19.8863 12.2654 20.1164C12.2568 20.1078 12.2568 20.0993 12.2568 20.0908V20.0397V15.9076V15.8309C12.6147 15.6179 12.964 15.4134 13.3218 15.2004C14.702 14.3825 16.0822 13.5731 17.4539 12.7552C17.4625 12.7637 17.471 12.7552 17.4795 12.7467Z" fill="#C5C8D9"/>
<path d="M12.2573 9.35577V9.33874V9.28762V3.10222C12.2573 3.07666 12.2488 3.05962 12.2658 3.03406C13.9953 5.90524 15.7248 8.76791 17.4459 11.6391C17.4629 11.6646 17.4885 11.6987 17.497 11.7328C17.3777 11.6902 17.2669 11.6306 17.1562 11.5795C17.0199 11.5198 16.875 11.4517 16.7387 11.392C16.6535 11.3494 16.5598 11.3153 16.4746 11.2727C16.3298 11.2046 16.1849 11.1449 16.0401 11.0768C15.9549 11.0427 15.8697 11.0001 15.7845 10.9575L15.2222 10.7019C15.1285 10.6593 15.0347 10.6167 14.9325 10.5741L14.5236 10.3952C14.4384 10.3611 14.3532 10.3185 14.268 10.2759L13.7056 10.0203C13.6119 9.97772 13.5182 9.93512 13.416 9.89252L13.007 9.71361C12.9133 9.67101 12.8281 9.62841 12.7344 9.58581C12.5725 9.50913 12.4106 9.43245 12.2402 9.36429C12.2658 9.35577 12.2573 9.35577 12.2573 9.35577Z" fill="#C5C8D9"/>
</svg>
