<svg width="984" height="337" viewBox="0 0 984 337" fill="none" xmlns="http://www.w3.org/2000/svg">
<g clip-path="url(#clip0_1428_2186)">
<line x1="43.5" y1="-11" x2="43.5" y2="304" stroke="#252D55" stroke-dasharray="5 2"/>
<line x1="103.5" y1="-11" x2="103.5" y2="304" stroke="#252D55" stroke-dasharray="5 2"/>
<line x1="163.5" y1="-11" x2="163.5" y2="304" stroke="#252D55" stroke-dasharray="5 2"/>
<line x1="223.5" y1="-11" x2="223.5" y2="304" stroke="#252D55" stroke-dasharray="5 2"/>
<line x1="283.5" y1="-11" x2="283.5" y2="304" stroke="#252D55" stroke-dasharray="5 2"/>
<line x1="343.5" y1="-11" x2="343.5" y2="304" stroke="#252D55" stroke-dasharray="5 2"/>
<line x1="403.5" y1="-11" x2="403.5" y2="304" stroke="#252D55" stroke-dasharray="5 2"/>
<line x1="463.5" y1="-11" x2="463.5" y2="304" stroke="#252D55" stroke-dasharray="5 2"/>
<line x1="523.5" y1="-11" x2="523.5" y2="304" stroke="#252D55" stroke-dasharray="5 2"/>
<line x1="583.5" y1="-11" x2="583.5" y2="304" stroke="#252D55" stroke-dasharray="5 2"/>
<line x1="643.5" y1="-11" x2="643.5" y2="304" stroke="#252D55" stroke-dasharray="5 2"/>
<line x1="703.5" y1="-11" x2="703.5" y2="304" stroke="#252D55" stroke-dasharray="5 2"/>
<line x1="763.5" y1="-11" x2="763.5" y2="304" stroke="#252D55" stroke-dasharray="5 2"/>
<line x1="823.5" y1="-11" x2="823.5" y2="304" stroke="#252D55" stroke-dasharray="5 2"/>
<line x1="883.5" y1="-11" x2="883.5" y2="304" stroke="#252D55" stroke-dasharray="5 2"/>
<line x1="943.5" y1="-11" x2="943.5" y2="304" stroke="#252D55" stroke-dasharray="5 2"/>
<line x1="43" y1="13.5" x2="984" y2="13.5001" stroke="#34384C" stroke-dasharray="5 2"/>
<line x1="43" y1="71.5" x2="984" y2="71.5001" stroke="#34384C" stroke-dasharray="5 2"/>
<line x1="43" y1="129.5" x2="984" y2="129.5" stroke="#34384C" stroke-dasharray="5 2"/>
<line x1="43" y1="187.5" x2="984" y2="187.5" stroke="#34384C" stroke-dasharray="5 2"/>
<line x1="43" y1="245.5" x2="984" y2="245.501" stroke="#34384C" stroke-dasharray="5 2"/>
<line x1="43" y1="303.5" x2="984" y2="303.501" stroke="#34384C" stroke-dasharray="5 2"/>
<rect x="47" y="269" width="8" height="34" fill="#252D55"/>
<rect x="62" y="289" width="8" height="14" fill="#252D55"/>
<rect x="77" y="255" width="8" height="48" fill="#252D55"/>
<rect x="92" y="277" width="8" height="26" fill="#252D55"/>
<rect x="107" y="267" width="8" height="36" fill="#252D55"/>
<rect x="122" y="255" width="8" height="48" fill="#252D55"/>
<rect x="137" y="289" width="8" height="14" fill="#252D55"/>
<rect x="152" y="293" width="8" height="10" fill="#252D55"/>
<rect x="167" y="281" width="8" height="22" fill="#252D55"/>
<rect x="182" y="281" width="8" height="22" fill="#252D55"/>
<rect x="197" y="280" width="8" height="23" fill="#252D55"/>
<rect x="212" y="297" width="8" height="6" fill="#252D55"/>
<rect x="227" y="297" width="8" height="6" fill="#252D55"/>
<rect x="242" y="267" width="8" height="36" fill="#252D55"/>
<rect x="257" y="298" width="8" height="5" fill="#252D55"/>
<rect x="272" y="298" width="8" height="5" fill="#252D55"/>
<rect x="287" y="277" width="8" height="26" fill="#252D55"/>
<rect x="302" y="284" width="8" height="19" fill="#252D55"/>
<rect x="317" y="273" width="8" height="30" fill="#252D55"/>
<rect x="332" y="267" width="8" height="36" fill="#252D55"/>
<rect x="347" y="294" width="8" height="9" fill="#252D55"/>
<rect x="362" y="294" width="8" height="9" fill="#252D55"/>
<rect x="377" y="267" width="8" height="36" fill="#252D55"/>
<rect x="392" y="291" width="8" height="12" fill="#252D55"/>
<rect x="407" y="285" width="8" height="18" fill="#252D55"/>
<rect x="422" y="285" width="8" height="18" fill="#252D55"/>
<rect x="437" y="298" width="8" height="5" fill="#252D55"/>
<rect x="452" y="298" width="8" height="5" fill="#252D55"/>
<rect x="467" y="261" width="8" height="42" fill="#252D55"/>
<rect x="482" y="286" width="8" height="17" fill="#252D55"/>
<rect x="497" y="277" width="8" height="26" fill="#252D55"/>
<rect x="512" y="284" width="8" height="19" fill="#252D55"/>
<rect x="527" y="284" width="8" height="19" fill="#252D55"/>
<rect x="542" y="281" width="8" height="22" fill="#252D55"/>
<rect x="557" y="280" width="8" height="23" fill="#252D55"/>
<rect x="572" y="281" width="8" height="22" fill="#252D55"/>
<rect x="587" y="293" width="8" height="10" fill="#252D55"/>
<rect x="602" y="293" width="8" height="10" fill="#252D55"/>
<rect x="617" y="273" width="8" height="30" fill="#252D55"/>
<rect x="632" y="261" width="8" height="42" fill="#252D55"/>
<rect x="647" y="285" width="8" height="18" fill="#252D55"/>
<rect x="662" y="290" width="8" height="13" fill="#252D55"/>
<rect x="677" y="284" width="8" height="19" fill="#252D55"/>
<rect x="692" y="284" width="8" height="19" fill="#252D55"/>
<rect x="707" y="277" width="8" height="26" fill="#252D55"/>
<rect x="722" y="283" width="8" height="20" fill="#252D55"/>
<rect x="737" y="284" width="8" height="19" fill="#252D55"/>
<rect x="752" y="277" width="8" height="26" fill="#252D55"/>
<rect x="767" y="294" width="8" height="9" fill="#252D55"/>
<rect x="782" y="294" width="8" height="9" fill="#252D55"/>
<rect x="797" y="288" width="8" height="15" fill="#252D55"/>
<rect x="812" y="281" width="8" height="22" fill="#252D55"/>
<rect x="827" y="291" width="8" height="12" fill="#252D55"/>
<rect x="842" y="291" width="8" height="12" fill="#252D55"/>
<rect x="857" y="291" width="8" height="12" fill="#252D55"/>
<rect x="872" y="291" width="8" height="12" fill="#252D55"/>
<rect x="887" y="291" width="8" height="12" fill="#252D55"/>
<rect x="902" y="296" width="8" height="7" fill="#252D55"/>
<rect x="917" y="296" width="8" height="7" fill="#252D55"/>
<rect x="932" y="296" width="8" height="7" fill="#252D55"/>
<rect x="947" y="296" width="8" height="7" fill="#252D55"/>
<rect x="962" y="296" width="8" height="7" fill="#252D55"/>
<rect x="977" y="296" width="8" height="7" fill="#252D55"/>
<path d="M60.5634 268.694L43.2031 280.5V314H981.594V282.5L973.172 278.5L957.18 270.429C956.621 270.147 956.003 270 955.377 270H948.942C948.264 270 947.597 269.828 947.004 269.499L928.058 259L912.285 248.317C911.974 248.107 911.694 247.854 911.454 247.565L907.602 242.94C906.842 242.028 905.716 241.5 904.528 241.5H897.855C897.539 241.5 897.224 241.537 896.917 241.612L879.258 245.873C878.909 245.957 878.573 246.088 878.258 246.263L875.904 247.567C875.39 247.852 874.944 248.247 874.6 248.724L870.169 254.863C869.865 255.284 869.482 255.641 869.042 255.916L860.393 261.308C860.188 261.436 859.995 261.582 859.816 261.744L847.852 272.636C847.587 272.878 847.29 273.082 846.97 273.245L838.548 277.523C837.347 278.133 835.921 278.098 834.752 277.43L829.745 274.569C828.136 273.649 826.106 273.955 824.84 275.309L812.097 288.927C810.935 290.169 809.116 290.54 807.56 289.853L791.736 282.866C791.191 282.625 790.707 282.265 790.318 281.813L776.548 265.789C776.103 265.272 775.534 264.877 774.893 264.641L750.004 255.5L727.146 248L708.519 241.71C708.107 241.571 707.675 241.5 707.24 241.5H701.413C700.546 241.5 699.702 241.218 699.009 240.697L688.261 232.614C687.725 232.211 687.097 231.949 686.434 231.853L654.48 227.193C653.622 227.068 652.827 226.667 652.216 226.05L636.951 210.642C636.532 210.219 636.212 209.708 636.016 209.146L631.189 195.325C630.999 194.781 630.694 194.285 630.294 193.87L614.343 177.296C614.153 177.099 613.984 176.883 613.839 176.652L601.399 156.871C600.667 155.706 599.388 155 598.013 155H587.203C585.933 155 584.739 155.603 583.985 156.624L568.943 177L556.495 193.461C555.984 194.136 555.272 194.632 554.462 194.877L543.251 198.265C542.739 198.42 542.263 198.676 541.852 199.018L528.89 209.792C528.723 209.931 528.569 210.082 528.427 210.245L521.568 218.139C521.079 218.702 520.443 219.117 519.73 219.337L495.651 226.784C495.19 226.927 494.759 227.152 494.378 227.448L476.835 241.089C476.485 241.361 476.183 241.689 475.941 242.06L466.164 257.031C465.37 258.246 463.98 258.936 462.531 258.834L416.762 255.586C415.973 255.53 415.218 255.241 414.593 254.756L399.054 242.701C398.077 241.943 397.506 240.777 397.506 239.541V237.8C397.506 236.376 396.749 235.059 395.517 234.343L392.077 232.341C391.689 232.115 391.265 231.956 390.824 231.871L366.918 227.25C366.078 227.088 365.312 226.66 364.733 226.031L350.335 210.381C350.103 210.128 349.903 209.846 349.743 209.542L333.667 179.131C332.974 177.82 331.613 177 330.13 177H327.76C326.594 177 325.486 177.509 324.726 178.393L312.082 193.107C311.322 193.991 310.214 194.5 309.048 194.5H297.651L261.995 198.264C260.604 198.41 259.391 199.273 258.796 200.538L254.665 209.313C254.451 209.767 254.154 210.177 253.788 210.521L236.295 227L225.861 235.191C225.6 235.396 225.365 235.633 225.162 235.897L216.523 247.117C216.078 247.695 215.484 248.14 214.804 248.404L189.527 258.239C188.302 258.716 186.921 258.56 185.833 257.823L171.863 248.361C171.51 248.122 171.197 247.828 170.937 247.49L162.609 236.674C162.026 235.917 161.19 235.393 160.254 235.198L146.678 232.377C145.526 232.138 144.328 232.418 143.401 233.142L115.187 255.186C114.92 255.395 114.628 255.568 114.318 255.703L88.3181 267L75.6824 274.142C74.2361 274.959 72.435 274.798 71.1573 273.736L65.3697 268.925C63.9983 267.785 62.038 267.691 60.5634 268.694Z" fill="url(#paint0_linear_1428_2186)"/>
<g filter="url(#filter0_f_1428_2186)">
<path d="M43.2031 280.5L60.5634 268.694C62.038 267.691 63.9983 267.785 65.3697 268.925L71.1573 273.736C72.435 274.798 74.2361 274.959 75.6824 274.142L88.3181 267L114.318 255.703C114.628 255.568 114.92 255.395 115.187 255.186L143.401 233.142C144.328 232.418 145.526 232.138 146.678 232.377L160.254 235.198C161.19 235.393 162.026 235.917 162.609 236.674L170.937 247.49C171.197 247.828 171.51 248.122 171.863 248.361L185.833 257.823C186.921 258.56 188.302 258.716 189.527 258.239L214.804 248.404C215.484 248.14 216.078 247.695 216.523 247.117L225.162 235.897C225.365 235.633 225.6 235.396 225.861 235.191L236.295 227L253.788 210.521C254.154 210.177 254.451 209.767 254.665 209.313L258.796 200.538C259.391 199.273 260.604 198.41 261.995 198.264L297.651 194.5H309.048C310.214 194.5 311.322 193.991 312.082 193.107L324.726 178.393C325.486 177.509 326.594 177 327.76 177H330.13C331.613 177 332.974 177.82 333.667 179.131L349.743 209.542C349.903 209.846 350.103 210.128 350.335 210.381L364.733 226.031C365.312 226.66 366.078 227.088 366.918 227.25L390.824 231.871C391.265 231.956 391.689 232.115 392.077 232.341L395.517 234.343C396.748 235.059 397.506 236.376 397.506 237.8V239.541C397.506 240.777 398.077 241.943 399.054 242.701L414.593 254.756C415.218 255.241 415.973 255.53 416.762 255.586L462.531 258.834C463.98 258.936 465.37 258.246 466.164 257.031L475.941 242.06C476.183 241.689 476.485 241.361 476.835 241.089L494.378 227.448C494.759 227.152 495.19 226.927 495.651 226.784L519.73 219.337C520.443 219.117 521.079 218.702 521.568 218.139L528.427 210.245C528.569 210.082 528.723 209.931 528.89 209.792L541.852 199.018C542.263 198.676 542.739 198.42 543.251 198.265L554.462 194.877C555.272 194.632 555.984 194.136 556.495 193.461L568.943 177L583.985 156.624C584.739 155.603 585.933 155 587.203 155H598.013C599.388 155 600.667 155.706 601.399 156.871L613.839 176.652C613.984 176.883 614.153 177.099 614.343 177.296L630.294 193.87C630.694 194.285 630.999 194.781 631.189 195.325L636.016 209.146C636.212 209.708 636.532 210.219 636.951 210.642L652.216 226.05C652.827 226.667 653.622 227.068 654.48 227.193L686.434 231.853C687.097 231.949 687.725 232.211 688.261 232.614L699.009 240.697C699.702 241.218 700.546 241.5 701.413 241.5H707.239C707.675 241.5 708.107 241.571 708.519 241.71L727.146 248L750.004 255.5L774.893 264.641C775.534 264.877 776.103 265.272 776.548 265.789L790.318 281.814C790.707 282.265 791.191 282.625 791.736 282.866L807.56 289.853C809.116 290.54 810.935 290.169 812.097 288.927L824.84 275.309C826.106 273.955 828.136 273.649 829.745 274.569L834.752 277.43C835.921 278.098 837.347 278.133 838.548 277.523L846.97 273.245C847.29 273.082 847.587 272.878 847.852 272.636L859.816 261.744C859.994 261.582 860.188 261.436 860.393 261.308L869.042 255.916C869.482 255.641 869.865 255.284 870.169 254.863L874.6 248.724C874.944 248.247 875.39 247.852 875.904 247.567L878.258 246.263C878.572 246.088 878.909 245.957 879.258 245.873L896.917 241.612C897.224 241.537 897.539 241.5 897.855 241.5H904.528C905.716 241.5 906.842 242.028 907.602 242.94L911.454 247.565C911.694 247.854 911.974 248.107 912.285 248.317L928.058 259L947.004 269.499C947.597 269.828 948.264 270 948.942 270H955.377C956.003 270 956.621 270.147 957.18 270.429L973.172 278.5L981.594 282.5" stroke="#F7931A" stroke-width="2"/>
</g>
<path d="M43.2031 280.5L60.5634 268.694C62.038 267.691 63.9983 267.785 65.3697 268.925L71.1573 273.736C72.435 274.798 74.2361 274.959 75.6824 274.142L88.3181 267L114.318 255.703C114.628 255.568 114.92 255.395 115.187 255.186L143.401 233.142C144.328 232.418 145.526 232.138 146.678 232.377L160.254 235.198C161.19 235.393 162.026 235.917 162.609 236.674L170.937 247.49C171.197 247.828 171.51 248.122 171.863 248.361L185.833 257.823C186.921 258.56 188.302 258.716 189.527 258.239L214.804 248.404C215.484 248.14 216.078 247.695 216.523 247.117L225.162 235.897C225.365 235.633 225.6 235.396 225.861 235.191L236.295 227L253.788 210.521C254.154 210.177 254.451 209.767 254.665 209.313L258.796 200.538C259.391 199.273 260.604 198.41 261.995 198.264L297.651 194.5H309.048C310.214 194.5 311.322 193.991 312.082 193.107L324.726 178.393C325.486 177.509 326.594 177 327.76 177H330.13C331.613 177 332.974 177.82 333.667 179.131L349.743 209.542C349.903 209.846 350.103 210.128 350.335 210.381L364.733 226.031C365.312 226.66 366.078 227.088 366.918 227.25L390.824 231.871C391.265 231.956 391.689 232.115 392.077 232.341L395.517 234.343C396.748 235.059 397.506 236.376 397.506 237.8V239.541C397.506 240.777 398.077 241.943 399.054 242.701L414.593 254.756C415.218 255.241 415.973 255.53 416.762 255.586L462.531 258.834C463.98 258.936 465.37 258.246 466.164 257.031L475.941 242.06C476.183 241.689 476.485 241.361 476.835 241.089L494.378 227.448C494.759 227.152 495.19 226.927 495.651 226.784L519.73 219.337C520.443 219.117 521.079 218.702 521.568 218.139L528.427 210.245C528.569 210.082 528.723 209.931 528.89 209.792L541.852 199.018C542.263 198.676 542.739 198.42 543.251 198.265L554.462 194.877C555.272 194.632 555.984 194.136 556.495 193.461L568.943 177L583.985 156.624C584.739 155.603 585.933 155 587.203 155H598.013C599.388 155 600.667 155.706 601.399 156.871L613.839 176.652C613.984 176.883 614.153 177.099 614.343 177.296L630.294 193.87C630.694 194.285 630.999 194.781 631.189 195.325L636.016 209.146C636.212 209.708 636.532 210.219 636.951 210.642L652.216 226.05C652.827 226.667 653.622 227.068 654.48 227.193L686.434 231.853C687.097 231.949 687.725 232.211 688.261 232.614L699.009 240.697C699.702 241.218 700.546 241.5 701.413 241.5H707.239C707.675 241.5 708.107 241.571 708.519 241.71L727.146 248L750.004 255.5L774.893 264.641C775.534 264.877 776.103 265.272 776.548 265.789L790.318 281.814C790.707 282.265 791.191 282.625 791.736 282.866L807.56 289.853C809.116 290.54 810.935 290.169 812.097 288.927L824.84 275.309C826.106 273.955 828.136 273.649 829.745 274.569L834.752 277.43C835.921 278.098 837.347 278.133 838.548 277.523L846.97 273.245C847.29 273.082 847.587 272.878 847.852 272.636L859.816 261.744C859.994 261.582 860.188 261.436 860.393 261.308L869.042 255.916C869.482 255.641 869.865 255.284 870.169 254.863L874.6 248.724C874.944 248.247 875.39 247.852 875.904 247.567L878.258 246.263C878.572 246.088 878.909 245.957 879.258 245.873L896.917 241.612C897.224 241.537 897.539 241.5 897.855 241.5H904.528C905.716 241.5 906.842 242.028 907.602 242.94L911.454 247.565C911.694 247.854 911.974 248.107 912.285 248.317L928.058 259L947.004 269.499C947.597 269.828 948.264 270 948.942 270H955.377C956.003 270 956.621 270.147 957.18 270.429L973.172 278.5L981.594 282.5" stroke="#F7931A" stroke-width="2"/>
<path d="M52.7212 263.293L42 257.5V314H984V148.5H966.581C965.087 148.5 963.718 149.332 963.03 150.659L950.832 174.182C949.863 176.05 947.613 176.848 945.684 176.008L925.387 167.171C924.402 166.742 923.631 165.934 923.247 164.93L912.234 136.094C911.961 135.38 911.489 134.758 910.874 134.304L896.414 123.62C895.864 123.214 895.427 122.672 895.145 122.048L887.614 105.355C886.967 103.922 885.541 103 883.968 103H856.449C855.317 103 854.238 103.48 853.479 104.32L836.625 123L815.571 143L793.044 166.159C792.824 166.386 792.578 166.585 792.31 166.754L776.49 176.729C775.701 177.227 775.11 177.986 774.821 178.874L760.425 223.054C759.94 224.544 758.629 225.613 757.073 225.79L694.118 232.925C693.682 232.975 693.241 232.952 692.813 232.858L660.941 225.887C659.817 225.641 658.853 224.923 658.296 223.916L645.337 200.5L628.339 167.369C628.046 166.798 627.62 166.306 627.096 165.934L595.43 143.441C595.019 143.15 594.557 142.938 594.069 142.818L537.603 128.929C536.493 128.656 535.32 128.871 534.379 129.519L515.491 142.527C515.038 142.839 514.526 143.054 513.986 143.159L487.673 148.278C486.928 148.423 486.24 148.777 485.689 149.298L457.442 176C456.452 176.935 455.056 177.303 453.734 176.976L411.814 166.617C411.5 166.539 411.178 166.5 410.854 166.5H372.279C370.779 166.5 369.405 167.339 368.72 168.674L352.891 199.525C352.564 200.163 352.071 200.702 351.464 201.084L312.931 225.348C312.77 225.449 312.603 225.539 312.43 225.616L282.845 238.823C281.27 239.525 279.422 239.14 278.26 237.866L267.866 226.478C267.286 225.843 266.517 225.412 265.673 225.248L231.259 218.573C231.008 218.525 230.753 218.5 230.497 218.5H212.476C211.542 218.5 210.637 218.827 209.919 219.424L185.52 239.705C185.284 239.901 185.071 240.124 184.886 240.368L172.442 256.824C172.105 257.27 171.679 257.64 171.19 257.911L150.867 269.173C150.476 269.389 150.051 269.539 149.61 269.615L122.198 274.362C121.673 274.453 121.135 274.438 120.616 274.318L100.556 269.687C100.023 269.564 99.5198 269.332 99.0792 269.007L84.9683 258.581C84.039 257.894 82.8582 257.643 81.7299 257.892L55.484 263.679C54.5465 263.886 53.5659 263.749 52.7212 263.293Z" fill="url(#paint1_linear_1428_2186)"/>
<g filter="url(#filter1_f_1428_2186)">
<path d="M42 257.5L52.7212 263.293C53.5659 263.749 54.5465 263.886 55.484 263.679L81.7299 257.892C82.8582 257.643 84.039 257.894 84.9683 258.581L99.0792 269.007C99.5198 269.332 100.023 269.564 100.556 269.687L120.616 274.318C121.135 274.438 121.673 274.453 122.198 274.362L149.61 269.615C150.051 269.539 150.476 269.389 150.867 269.173L171.19 257.911C171.679 257.64 172.105 257.27 172.442 256.824L184.886 240.368C185.071 240.124 185.284 239.901 185.52 239.705L209.919 219.424C210.637 218.827 211.542 218.5 212.476 218.5H230.497C230.753 218.5 231.008 218.525 231.259 218.573L265.673 225.248C266.517 225.412 267.286 225.843 267.866 226.478L278.26 237.866C279.422 239.14 281.27 239.525 282.845 238.823L312.43 225.616C312.603 225.539 312.77 225.449 312.931 225.348L351.464 201.084C352.071 200.702 352.564 200.163 352.891 199.525L368.72 168.674C369.405 167.339 370.779 166.5 372.279 166.5H410.854C411.178 166.5 411.5 166.539 411.814 166.617L453.734 176.976C455.056 177.303 456.452 176.935 457.442 176L485.689 149.298C486.24 148.777 486.928 148.423 487.673 148.278L513.986 143.159C514.526 143.054 515.038 142.839 515.491 142.527L534.379 129.519C535.32 128.871 536.493 128.656 537.603 128.929L594.069 142.818C594.557 142.938 595.019 143.15 595.43 143.441L627.096 165.934C627.62 166.306 628.046 166.798 628.339 167.369L645.337 200.5L658.296 223.916C658.853 224.923 659.817 225.641 660.941 225.887L692.813 232.858C693.241 232.952 693.682 232.975 694.118 232.925L757.073 225.79C758.629 225.613 759.94 224.544 760.425 223.054L774.821 178.874C775.11 177.986 775.701 177.227 776.49 176.729L792.31 166.754C792.578 166.585 792.824 166.386 793.044 166.159L815.571 143L836.625 123L853.479 104.32C854.238 103.48 855.317 103 856.449 103H883.968C885.541 103 886.967 103.922 887.614 105.355L895.145 122.048C895.427 122.672 895.864 123.214 896.414 123.62L910.874 134.304C911.489 134.758 911.961 135.38 912.234 136.094L923.247 164.93C923.631 165.934 924.402 166.742 925.387 167.171L945.684 176.008C947.613 176.848 949.863 176.05 950.832 174.182L963.03 150.659C963.718 149.332 965.087 148.5 966.581 148.5H984" stroke="#BD47FB" stroke-width="2"/>
</g>
<path d="M42 257.5L52.7212 263.293C53.5659 263.749 54.5465 263.886 55.484 263.679L81.7299 257.892C82.8582 257.643 84.039 257.894 84.9683 258.581L99.0792 269.007C99.5198 269.332 100.023 269.564 100.556 269.687L120.616 274.318C121.135 274.438 121.673 274.453 122.198 274.362L149.61 269.615C150.051 269.539 150.476 269.389 150.867 269.173L171.19 257.911C171.679 257.64 172.105 257.27 172.442 256.824L184.886 240.368C185.071 240.124 185.284 239.901 185.52 239.705L209.919 219.424C210.637 218.827 211.542 218.5 212.476 218.5H230.497C230.753 218.5 231.008 218.525 231.259 218.573L265.673 225.248C266.517 225.412 267.286 225.843 267.866 226.478L278.26 237.866C279.422 239.14 281.27 239.525 282.845 238.823L312.43 225.616C312.603 225.539 312.77 225.449 312.931 225.348L351.464 201.084C352.071 200.702 352.564 200.163 352.891 199.525L368.72 168.674C369.405 167.339 370.779 166.5 372.279 166.5H410.854C411.178 166.5 411.5 166.539 411.814 166.617L453.734 176.976C455.056 177.303 456.452 176.935 457.442 176L485.689 149.298C486.24 148.777 486.928 148.423 487.673 148.278L513.986 143.159C514.526 143.054 515.038 142.839 515.491 142.527L534.379 129.519C535.32 128.871 536.493 128.656 537.603 128.929L594.069 142.818C594.557 142.938 595.019 143.15 595.43 143.441L627.096 165.934C627.62 166.306 628.046 166.798 628.339 167.369L645.337 200.5L658.296 223.916C658.853 224.923 659.817 225.641 660.941 225.887L692.813 232.858C693.241 232.952 693.682 232.975 694.118 232.925L757.073 225.79C758.629 225.613 759.94 224.544 760.425 223.054L774.821 178.874C775.11 177.986 775.701 177.227 776.49 176.729L792.31 166.754C792.578 166.585 792.824 166.386 793.044 166.159L815.571 143L836.625 123L853.479 104.32C854.238 103.48 855.317 103 856.449 103H883.968C885.541 103 886.967 103.922 887.614 105.355L895.145 122.048C895.427 122.672 895.864 123.214 896.414 123.62L910.874 134.304C911.489 134.758 911.961 135.38 912.234 136.094L923.247 164.93C923.631 165.934 924.402 166.742 925.387 167.171L945.684 176.008C947.613 176.848 949.863 176.05 950.832 174.182L963.03 150.659C963.718 149.332 965.087 148.5 966.581 148.5H984" stroke="#BD47FB" stroke-width="2"/>
<path d="M68.3259 175.34L41 159V304H984V144L974.378 134.198C973.626 133.432 972.597 133 971.524 133H944.954C944.592 133 944.232 133.049 943.883 133.146L905.199 143.894C904.945 143.964 904.698 144.06 904.463 144.179L890.22 151.387C888.871 152.069 887.253 151.933 886.037 151.035L861.865 133.177C861.706 133.059 861.538 132.953 861.363 132.86L822.523 112.259C822.199 112.087 821.9 111.871 821.634 111.618L794.4 85.6073C793.656 84.8966 792.666 84.5 791.637 84.5H758.211C756.862 84.5 755.603 85.1805 754.864 86.3097L739.236 110.19C738.497 111.32 737.239 112 735.889 112H707.282C705.899 112 704.615 112.714 703.885 113.887L679.865 152.5L666.326 174.129C665.775 175.008 664.905 175.64 663.897 175.889L644.005 180.818C643.521 180.938 643.018 180.967 642.524 180.902L601.612 175.543C601.392 175.514 601.174 175.467 600.962 175.403L547.569 159.084C547.385 159.028 547.205 158.959 547.031 158.877L515.884 144.181C515.628 144.061 515.386 143.914 515.162 143.742L487.781 122.822C487.083 122.289 486.23 122 485.352 122H454.606C454.018 122 453.436 122.13 452.904 122.38L431.025 132.667C430.558 132.887 430.137 133.195 429.787 133.574L406.687 158.605C406.445 158.867 406.239 159.161 406.075 159.478L395.672 179.559C395.193 180.483 394.373 181.184 393.385 181.513L358.933 193L310.909 215.184C309.794 215.699 308.505 215.674 307.411 215.114L264.153 193L234.704 176.479C233.606 175.863 232.281 175.8 231.13 176.309L194.193 192.635C193.65 192.875 193.167 193.234 192.779 193.684L174.344 215.103C173.84 215.688 173.177 216.115 172.435 216.332L140.465 225.682C139.755 225.89 139.001 225.897 138.288 225.702L104.38 216.435C103.36 216.157 102.491 215.485 101.965 214.568L89.9468 193.622C89.7106 193.211 89.403 192.844 89.0385 192.541L68.8342 175.7C68.6744 175.567 68.5045 175.446 68.3259 175.34Z" fill="url(#paint2_linear_1428_2186)"/>
<g filter="url(#filter2_f_1428_2186)">
<path d="M41 159L68.3259 175.34C68.5045 175.446 68.6744 175.567 68.8342 175.7L89.0385 192.541C89.403 192.844 89.7106 193.211 89.9468 193.622L101.965 214.568C102.491 215.485 103.36 216.157 104.38 216.435L138.288 225.702C139.001 225.897 139.755 225.89 140.465 225.682L172.435 216.332C173.177 216.115 173.84 215.688 174.344 215.103L192.779 193.684C193.166 193.234 193.65 192.875 194.193 192.635L231.13 176.309C232.281 175.8 233.606 175.863 234.704 176.479L264.153 193L307.411 215.114C308.505 215.674 309.794 215.699 310.909 215.184L358.933 193L393.385 181.513C394.373 181.184 395.193 180.483 395.672 179.559L406.075 159.478C406.239 159.161 406.445 158.867 406.687 158.605L429.787 133.574C430.137 133.195 430.558 132.887 431.025 132.667L452.904 122.38C453.436 122.13 454.018 122 454.606 122H485.352C486.23 122 487.083 122.289 487.781 122.822L515.162 143.742C515.386 143.914 515.628 144.061 515.884 144.181L547.031 158.877C547.205 158.959 547.385 159.028 547.569 159.084L600.962 175.403C601.175 175.467 601.392 175.514 601.612 175.543L642.524 180.902C643.018 180.967 643.521 180.938 644.005 180.818L663.897 175.889C664.905 175.64 665.775 175.008 666.326 174.129L679.865 152.5L703.885 113.887C704.615 112.714 705.899 112 707.282 112H735.889C737.239 112 738.497 111.32 739.236 110.19L754.864 86.3097C755.603 85.1805 756.862 84.5 758.211 84.5H791.637C792.666 84.5 793.656 84.8966 794.4 85.6073L821.634 111.618C821.9 111.871 822.199 112.087 822.523 112.259L861.363 132.86C861.538 132.953 861.706 133.059 861.865 133.177L886.037 151.035C887.253 151.933 888.871 152.069 890.22 151.387L904.463 144.179C904.698 144.06 904.945 143.964 905.199 143.894L943.883 133.146C944.232 133.049 944.592 133 944.954 133H971.524C972.597 133 973.626 133.432 974.378 134.198L984 144" stroke="#30E0A1" stroke-width="2"/>
</g>
<path d="M41 159L68.3259 175.34C68.5045 175.446 68.6744 175.567 68.8342 175.7L89.0385 192.541C89.403 192.844 89.7106 193.211 89.9468 193.622L101.965 214.568C102.491 215.485 103.36 216.157 104.38 216.435L138.288 225.702C139.001 225.897 139.755 225.89 140.465 225.682L172.435 216.332C173.177 216.115 173.84 215.688 174.344 215.103L192.779 193.684C193.166 193.234 193.65 192.875 194.193 192.635L231.13 176.309C232.281 175.8 233.606 175.863 234.704 176.479L264.153 193L307.411 215.114C308.505 215.674 309.794 215.699 310.909 215.184L358.933 193L393.385 181.513C394.373 181.184 395.193 180.483 395.672 179.559L406.075 159.478C406.239 159.161 406.445 158.867 406.687 158.605L429.787 133.574C430.137 133.195 430.558 132.887 431.025 132.667L452.904 122.38C453.436 122.13 454.018 122 454.606 122H485.352C486.23 122 487.083 122.289 487.781 122.822L515.162 143.742C515.386 143.914 515.628 144.061 515.884 144.181L547.031 158.877C547.205 158.959 547.385 159.028 547.569 159.084L600.962 175.403C601.175 175.467 601.392 175.514 601.612 175.543L642.524 180.902C643.018 180.967 643.521 180.938 644.005 180.818L663.897 175.889C664.905 175.64 665.775 175.008 666.326 174.129L679.865 152.5L703.885 113.887C704.615 112.714 705.899 112 707.282 112H735.889C737.239 112 738.497 111.32 739.236 110.19L754.864 86.3097C755.603 85.1805 756.862 84.5 758.211 84.5H791.637C792.666 84.5 793.656 84.8966 794.4 85.6073L821.634 111.618C821.9 111.871 822.199 112.087 822.523 112.259L861.363 132.86C861.538 132.953 861.706 133.059 861.865 133.177L886.037 151.035C887.253 151.933 888.871 152.069 890.22 151.387L904.463 144.179C904.698 144.06 904.945 143.964 905.199 143.894L943.883 133.146C944.232 133.049 944.592 133 944.954 133H971.524C972.597 133 973.626 133.432 974.378 134.198L984 144" stroke="#30E0A1" stroke-width="2"/>
<rect x="456" y="14" width="15" height="290" fill="url(#paint3_linear_1428_2186)" fill-opacity="0.4"/>
<circle cx="463.5" cy="259.5" r="4.5" fill="#F7931A"/>
<circle cx="463.5" cy="170.5" r="4.5" fill="#BD47FB"/>
<circle cx="463.5" cy="123.5" r="4.5" fill="#30E0A1"/>
<g filter="url(#filter3_b_1428_2186)">
<rect x="487" y="54" width="210" height="198" rx="8" fill="#363843" fill-opacity="0.8"/>
</g>
<g clip-path="url(#clip1_1428_2186)">
<path d="M522.983 195.997C522.983 201.492 518.528 205.947 513.032 205.947C507.537 205.947 503.082 201.492 503.082 195.997C503.082 190.501 507.537 186.046 513.032 186.046C518.528 186.046 522.983 190.501 522.983 195.997Z" fill="#1BA27A"/>
<path d="M517.702 191.064H508.28V193.339H511.854V196.682H514.129V193.339H517.702V191.064Z" fill="white"/>
<path d="M513.012 197.038C510.056 197.038 507.66 196.57 507.66 195.993C507.66 195.416 510.056 194.948 513.012 194.948C515.969 194.948 518.365 195.416 518.365 195.993C518.365 196.57 515.969 197.038 513.012 197.038ZM519.023 196.167C519.023 195.423 516.332 194.819 513.012 194.819C509.693 194.819 507.002 195.423 507.002 196.167C507.002 196.822 509.089 197.368 511.854 197.489V202.289H514.128V197.491C516.914 197.374 519.023 196.826 519.023 196.167Z" fill="white"/>
</g>
<path d="M536.856 203.176C539.944 203.176 541.688 201.56 541.688 198.44V191.56H539.08V198.28C539.08 200.376 538.408 201.112 536.872 201.112C535.304 201.112 534.744 200.28 534.744 198.376V191.56H532.136V198.536C532.136 201.576 533.848 203.176 536.856 203.176ZM548.06 203.176C550.764 203.176 552.428 201.56 552.428 199.528C552.428 197.16 551.004 196.408 548.236 196.056C546.476 195.8 546.108 195.416 546.108 194.6C546.108 193.832 546.684 193.304 547.82 193.304C548.956 193.304 549.564 193.784 549.724 194.824H552.108C551.9 192.552 550.396 191.4 547.82 191.4C545.292 191.4 543.66 192.856 543.66 194.808C543.66 197.016 544.86 197.896 547.788 198.28C549.468 198.536 549.948 198.856 549.948 199.768C549.948 200.664 549.196 201.288 548.06 201.288C546.364 201.288 545.932 200.44 545.82 199.416H543.34C543.484 201.704 544.924 203.176 548.06 203.176ZM556.887 200.984V193.576H557.911C560.327 193.576 561.335 194.84 561.335 197.192V197.32C561.335 199.688 560.247 200.984 557.943 200.984H556.887ZM554.295 203H558.023C562.039 203 564.039 200.712 564.039 197.288V197.16C564.039 193.736 562.055 191.56 558.039 191.56H554.295V203ZM567.66 203H570.268V193.576H573.356V191.56H564.572V193.576H567.66V203Z" fill="white"/>
<path d="M534.792 229H536.184V218.696H539.512V217.56H531.464V218.696H534.792V229ZM543.534 229.144C545.422 229.144 546.814 228.264 547.102 226.584H545.774C545.598 227.56 544.846 228.04 543.55 228.04C541.838 228.04 540.926 226.984 540.862 225.08H547.166V224.648C547.166 221.656 545.342 220.488 543.406 220.488C541.102 220.488 539.486 222.248 539.486 224.776V224.904C539.486 227.48 541.166 229.144 543.534 229.144ZM540.91 224.008C541.134 222.52 542.046 221.592 543.406 221.592C544.782 221.592 545.678 222.28 545.806 224.008H540.91ZM551.747 229.112C552.291 229.112 552.611 229.032 552.883 228.936V227.816C552.595 227.928 552.275 227.992 551.859 227.992C551.187 227.992 550.819 227.592 550.819 226.776V221.752H552.771V220.632H550.819V218.728H549.491V220.632H548.291V221.752H549.491V226.904C549.491 228.216 550.227 229.112 551.747 229.112ZM554.891 229H556.219V223.928C556.219 222.424 557.323 221.64 558.555 221.64C559.899 221.64 560.523 222.296 560.523 223.768V229H561.851V223.864C561.851 221.432 560.635 220.488 558.907 220.488C557.531 220.488 556.603 221.176 556.219 221.96V216.632H554.891V229ZM567.877 229.144C569.765 229.144 571.157 228.264 571.445 226.584H570.117C569.941 227.56 569.189 228.04 567.893 228.04C566.181 228.04 565.269 226.984 565.205 225.08H571.509V224.648C571.509 221.656 569.685 220.488 567.749 220.488C565.445 220.488 563.829 222.248 563.829 224.776V224.904C563.829 227.48 565.509 229.144 567.877 229.144ZM565.253 224.008C565.477 222.52 566.389 221.592 567.749 221.592C569.125 221.592 570.021 222.28 570.149 224.008H565.253ZM573.547 229H574.875V224.408C574.875 222.344 575.947 221.816 577.627 221.736V220.488C576.123 220.536 575.403 221.192 574.875 222.136V220.632H573.547V229Z" fill="#5D6588"/>
<path d="M627.393 197.406C627.477 197.562 627.637 197.659 627.811 197.659H630.521V203.01C630.521 203.281 630.736 203.5 631 203.5C631.264 203.5 631.478 203.281 631.478 203.01V197.659H634.188C634.363 197.659 634.523 197.562 634.606 197.406C634.691 197.25 634.685 197.059 634.593 196.908L631.405 191.728C631.317 191.586 631.164 191.5 631 191.5C630.835 191.5 630.683 191.586 630.595 191.728L627.406 196.908C627.358 196.988 627.333 197.079 627.333 197.169C627.333 197.25 627.353 197.332 627.393 197.406Z" fill="#11CABE"/>
<path d="M645.746 202H647.622V191.99H645.956L643.632 193.642V195.28L645.746 193.838V202ZM650.86 202.098C651.49 202.098 651.98 201.622 651.98 201.006C651.98 200.39 651.49 199.9 650.86 199.9C650.244 199.9 649.754 200.39 649.754 201.006C649.754 201.622 650.244 202.098 650.86 202.098ZM656.827 202.14C659.095 202.14 660.523 200.768 660.523 198.738C660.523 196.792 659.151 195.476 657.233 195.476C656.043 195.476 655.217 195.994 654.755 196.764C654.811 194.482 655.693 193.292 657.037 193.292C658.003 193.292 658.395 193.74 658.577 194.496H660.313C660.075 192.746 658.871 191.85 657.051 191.85C654.657 191.85 652.907 193.74 652.907 197.212V197.45C652.907 200.096 653.915 202.14 656.827 202.14ZM656.799 200.768C655.665 200.768 654.867 199.998 654.867 198.668C654.867 197.562 655.665 196.764 656.799 196.764C657.947 196.764 658.675 197.576 658.675 198.78C658.675 199.97 657.919 200.768 656.799 200.768ZM666.484 202H668.29V199.97H669.634V198.584H668.29V191.99H665.952L661.528 199.312V199.97H666.484V202ZM663.516 198.584L666.512 193.404V198.584H663.516ZM672.659 195.616C672.001 195.616 671.581 195.168 671.581 194.314C671.581 193.474 672.001 193.012 672.659 193.012C673.317 193.012 673.723 193.502 673.723 194.314C673.723 195.14 673.317 195.616 672.659 195.616ZM672.645 196.75C674.017 196.75 675.081 195.714 675.081 194.3C675.081 192.9 674.003 191.892 672.659 191.892C671.315 191.892 670.209 192.928 670.209 194.328C670.209 195.714 671.273 196.75 672.645 196.75ZM671.581 202H672.771L679.211 191.99H678.035L671.581 202ZM678.147 201.006C677.489 201.006 677.069 200.558 677.069 199.704C677.069 198.864 677.489 198.402 678.147 198.402C678.805 198.402 679.211 198.892 679.211 199.704C679.211 200.53 678.805 201.006 678.147 201.006ZM678.133 202.14C679.505 202.14 680.583 201.104 680.583 199.69C680.583 198.29 679.491 197.282 678.147 197.282C676.803 197.282 675.711 198.318 675.711 199.718C675.711 201.104 676.761 202.14 678.133 202.14Z" fill="#11CABE"/>
<g clip-path="url(#clip2_1428_2186)">
<circle cx="513" cy="138" r="10" fill="#7F6EE9"/>
<path d="M513.221 130.521V130.528C513.229 130.564 513.229 130.606 513.229 130.649V135.768C513.221 135.796 513.2 135.804 513.179 135.818C513.03 135.889 512.888 135.953 512.739 136.017C512.533 136.109 512.32 136.208 512.114 136.301L511.368 136.641C511.162 136.734 510.957 136.826 510.758 136.918C510.516 137.032 510.268 137.138 510.026 137.252C509.821 137.344 509.615 137.444 509.402 137.536C509.231 137.614 509.061 137.685 508.898 137.763C508.883 137.77 508.869 137.777 508.855 137.777C508.848 137.777 508.848 137.777 508.841 137.77L509.033 137.451C509.402 136.84 509.764 136.237 510.133 135.626C510.523 134.973 510.921 134.32 511.312 133.667C511.674 133.063 512.043 132.46 512.405 131.856C512.668 131.416 512.937 130.976 513.2 130.535C513.207 130.521 513.214 130.514 513.214 130.5H513.221C513.214 130.507 513.221 130.514 513.221 130.521Z" fill="#F3F3F3"/>
<path d="M517.58 137.77L517.587 137.778L516.543 138.395L513.263 140.333C513.249 140.341 513.234 140.348 513.227 140.355C513.206 140.355 513.206 140.333 513.206 140.326V140.262V135.875C513.206 135.853 513.206 135.825 513.213 135.804C513.22 135.775 513.242 135.782 513.263 135.79C513.355 135.832 513.455 135.875 513.547 135.917C513.824 136.045 514.101 136.173 514.378 136.294C514.619 136.4 514.853 136.514 515.095 136.62C515.336 136.727 515.577 136.84 515.819 136.947C516.025 137.039 516.238 137.139 516.444 137.231C516.649 137.323 516.862 137.423 517.068 137.515C517.232 137.586 517.395 137.664 517.558 137.735C517.558 137.756 517.565 137.763 517.58 137.77Z" fill="#8A8DA7"/>
<path d="M513.22 144.763C513.22 144.771 513.213 144.778 513.213 144.785H513.206C513.206 144.771 513.192 144.763 513.185 144.749C512.745 144.132 512.305 143.507 511.864 142.889C511.417 142.257 510.963 141.618 510.515 140.986C510.082 140.376 509.642 139.758 509.209 139.147C509.095 138.984 508.982 138.828 508.868 138.665C508.861 138.65 508.854 138.643 508.84 138.622C508.861 138.622 508.875 138.636 508.882 138.643C509.5 139.005 510.111 139.368 510.728 139.73C511.438 140.149 512.141 140.567 512.851 140.986L513.213 141.199C513.228 141.214 513.228 141.228 513.228 141.242V144.664C513.228 144.7 513.228 144.735 513.22 144.763Z" fill="#F3F3F3"/>
<path d="M508.833 137.784V137.777C509.06 137.678 509.28 137.571 509.507 137.472C509.799 137.337 510.09 137.209 510.381 137.074C510.601 136.975 510.828 136.869 511.048 136.769C511.375 136.62 511.694 136.478 512.021 136.329C512.241 136.23 512.461 136.13 512.688 136.024C512.844 135.953 513.008 135.882 513.164 135.811C513.178 135.804 513.199 135.796 513.207 135.782C513.214 135.782 513.214 135.789 513.207 135.796V140.305C513.207 140.326 513.199 140.347 513.214 140.362C513.199 140.383 513.185 140.362 513.178 140.355C513.114 140.319 513.05 140.284 512.986 140.241C511.616 139.432 510.239 138.615 508.869 137.806C508.861 137.799 508.847 137.791 508.833 137.784Z" fill="#C5C8D9"/>
<path d="M517.566 138.622H517.573C517.573 138.636 517.559 138.65 517.552 138.665C516.246 140.504 514.939 142.349 513.633 144.188C513.498 144.38 513.356 144.572 513.221 144.763C513.214 144.756 513.214 144.749 513.214 144.742V144.7V141.256V141.192C513.512 141.015 513.803 140.844 514.101 140.667C515.252 139.985 516.402 139.311 517.545 138.629C517.552 138.636 517.559 138.629 517.566 138.622Z" fill="#C5C8D9"/>
<path d="M513.213 135.796V135.782V135.74V130.585C513.213 130.564 513.206 130.55 513.221 130.528C514.662 132.921 516.103 135.307 517.537 137.699C517.551 137.72 517.573 137.749 517.58 137.777C517.48 137.742 517.388 137.692 517.296 137.649C517.182 137.6 517.062 137.543 516.948 137.493C516.877 137.458 516.799 137.429 516.728 137.394C516.607 137.337 516.486 137.287 516.366 137.231C516.295 137.202 516.224 137.167 516.153 137.131L515.684 136.918C515.606 136.883 515.528 136.847 515.443 136.812L515.102 136.663C515.031 136.634 514.96 136.599 514.889 136.563L514.42 136.35C514.342 136.315 514.264 136.279 514.179 136.244L513.838 136.095C513.76 136.059 513.689 136.024 513.611 135.988C513.476 135.924 513.341 135.86 513.199 135.804C513.221 135.796 513.213 135.796 513.213 135.796Z" fill="#C5C8D9"/>
</g>
<path d="M532.232 145H539.944V142.984H534.808V140.136H538.712V138.248H534.808V135.576H539.688V133.56H532.232V145ZM543.988 145H546.596V135.576H549.684V133.56H540.9V135.576H543.988V145ZM551.295 145H553.887V140.28H558.479V145H561.071V133.56H558.479V138.232H553.887V133.56H551.295V145Z" fill="white"/>
<path d="M532.44 171H539.4V169.864H533.832V165.72H538.088V164.584H533.832V160.696H539.112V159.56H532.44V171ZM543.951 171.112C544.495 171.112 544.815 171.032 545.087 170.936V169.816C544.799 169.928 544.479 169.992 544.062 169.992C543.391 169.992 543.023 169.592 543.023 168.776V163.752H544.975V162.632H543.023V160.728H541.695V162.632H540.495V163.752H541.695V168.904C541.695 170.216 542.431 171.112 543.951 171.112ZM547.094 171H548.422V165.928C548.422 164.424 549.526 163.64 550.758 163.64C552.102 163.64 552.726 164.296 552.726 165.768V171H554.054V165.864C554.054 163.432 552.838 162.488 551.11 162.488C549.734 162.488 548.806 163.176 548.422 163.96V158.632H547.094V171ZM560.081 171.144C561.969 171.144 563.361 170.264 563.649 168.584H562.321C562.145 169.56 561.393 170.04 560.097 170.04C558.385 170.04 557.473 168.984 557.409 167.08H563.713V166.648C563.713 163.656 561.889 162.488 559.953 162.488C557.649 162.488 556.033 164.248 556.033 166.776V166.904C556.033 169.48 557.713 171.144 560.081 171.144ZM557.457 166.008C557.681 164.52 558.593 163.592 559.953 163.592C561.329 163.592 562.225 164.28 562.353 166.008H557.457ZM565.75 171H567.078V166.408C567.078 164.344 568.15 163.816 569.83 163.736V162.488C568.326 162.536 567.606 163.192 567.078 164.136V162.632H565.75V171ZM574.956 171.144C576.844 171.144 578.236 170.264 578.524 168.584H577.196C577.02 169.56 576.268 170.04 574.972 170.04C573.26 170.04 572.348 168.984 572.284 167.08H578.588V166.648C578.588 163.656 576.764 162.488 574.828 162.488C572.524 162.488 570.908 164.248 570.908 166.776V166.904C570.908 169.48 572.588 171.144 574.956 171.144ZM572.332 166.008C572.556 164.52 573.468 163.592 574.828 163.592C576.204 163.592 577.1 164.28 577.228 166.008H572.332ZM583.457 171.144C584.801 171.144 585.729 170.456 586.113 169.672V171H587.441V162.632H586.113V167.704C586.113 169.208 584.993 169.992 583.809 169.992C582.497 169.992 581.873 169.336 581.873 167.864V162.632H580.545V167.928C580.545 170.232 581.793 171.144 583.457 171.144ZM590.125 171H591.453V165.88C591.453 164.376 592.573 163.64 593.661 163.64C594.813 163.64 595.437 164.248 595.437 165.72V171H596.765V165.88C596.765 164.376 597.885 163.64 598.973 163.64C600.125 163.64 600.749 164.248 600.749 165.72V171H602.077V165.816C602.077 163.384 600.765 162.488 599.261 162.488C598.221 162.488 596.973 162.968 596.397 164.056C595.965 162.936 595.021 162.488 593.949 162.488C592.749 162.488 591.837 163.128 591.453 163.912V162.632H590.125V171Z" fill="#5D6588"/>
<path d="M625.393 139.406C625.477 139.562 625.637 139.659 625.811 139.659H628.521V145.01C628.521 145.281 628.736 145.5 629 145.5C629.264 145.5 629.478 145.281 629.478 145.01V139.659H632.188C632.363 139.659 632.523 139.562 632.606 139.406C632.691 139.25 632.685 139.059 632.593 138.908L629.405 133.728C629.317 133.586 629.164 133.5 629 133.5C628.835 133.5 628.683 133.586 628.595 133.728L625.406 138.908C625.358 138.988 625.333 139.079 625.333 139.169C625.333 139.25 625.353 139.332 625.393 139.406Z" fill="#11CABE"/>
<path d="M644.529 144H646.405V133.99H644.739L642.415 135.642V137.28L644.529 135.838V144ZM649.643 144.098C650.273 144.098 650.763 143.622 650.763 143.006C650.763 142.39 650.273 141.9 649.643 141.9C649.027 141.9 648.537 142.39 648.537 143.006C648.537 143.622 649.027 144.098 649.643 144.098ZM655.796 144.14C657.812 144.14 659.52 143.09 659.52 141.116C659.52 139.898 658.834 139.03 657.658 138.61C658.554 138.218 659.142 137.532 659.142 136.51C659.142 134.858 657.588 133.85 655.796 133.85C654.06 133.85 652.436 134.844 652.436 136.538C652.436 137.532 652.996 138.26 653.92 138.624C652.8 139.016 652.044 139.898 652.044 141.172C652.044 143.132 653.808 144.14 655.796 144.14ZM655.796 142.74C654.788 142.74 653.92 142.138 653.92 141.018C653.92 139.898 654.788 139.296 655.81 139.296C656.846 139.296 657.658 139.898 657.658 141.004C657.658 142.124 656.86 142.74 655.796 142.74ZM655.824 138.078C654.956 138.078 654.214 137.546 654.214 136.636C654.214 135.74 654.914 135.194 655.796 135.194C656.692 135.194 657.378 135.768 657.378 136.622C657.378 137.532 656.734 138.078 655.824 138.078ZM664.997 142.656C663.499 142.656 662.631 141.508 662.631 139.24V138.736C662.631 136.51 663.457 135.306 664.969 135.306C666.467 135.306 667.279 136.594 667.279 138.722V139.212C667.279 141.48 666.537 142.656 664.997 142.656ZM664.955 144.14C667.573 144.14 669.141 142.222 669.141 139.212V138.708C669.141 135.698 667.489 133.85 664.955 133.85C662.435 133.85 660.755 135.712 660.755 138.75V139.254C660.755 142.264 662.407 144.14 664.955 144.14ZM672.659 137.616C672.001 137.616 671.581 137.168 671.581 136.314C671.581 135.474 672.001 135.012 672.659 135.012C673.317 135.012 673.723 135.502 673.723 136.314C673.723 137.14 673.317 137.616 672.659 137.616ZM672.645 138.75C674.017 138.75 675.081 137.714 675.081 136.3C675.081 134.9 674.003 133.892 672.659 133.892C671.315 133.892 670.209 134.928 670.209 136.328C670.209 137.714 671.273 138.75 672.645 138.75ZM671.581 144H672.771L679.211 133.99H678.035L671.581 144ZM678.147 143.006C677.489 143.006 677.069 142.558 677.069 141.704C677.069 140.864 677.489 140.402 678.147 140.402C678.805 140.402 679.211 140.892 679.211 141.704C679.211 142.53 678.805 143.006 678.147 143.006ZM678.133 144.14C679.505 144.14 680.583 143.104 680.583 141.69C680.583 140.29 679.491 139.282 678.147 139.282C676.803 139.282 675.711 140.318 675.711 141.718C675.711 143.104 676.761 144.14 678.133 144.14Z" fill="#11CABE"/>
<g clip-path="url(#clip3_1428_2186)">
<path d="M522.701 82.4183C521.365 87.7783 515.934 91.0366 510.582 89.7004C505.222 88.3643 501.963 82.934 503.3 77.5817C504.636 72.2217 510.058 68.9634 515.419 70.2996C520.771 71.6279 524.037 77.0582 522.701 82.4183Z" fill="url(#paint4_linear_1428_2186)"/>
<path d="M517.762 78.7539C517.957 77.4258 516.949 76.707 515.559 76.2305L516.012 74.4258L514.918 74.1523L514.48 75.9102C514.191 75.8398 513.895 75.7695 513.598 75.707L514.035 73.9414L512.941 73.668L512.496 75.4648C512.254 75.4102 512.02 75.3555 511.793 75.3008V75.293L510.277 74.918L509.988 76.0898C509.988 76.0898 510.801 76.2773 510.785 76.2852C511.23 76.3945 511.309 76.6914 511.293 76.9258L510.777 78.9805C510.809 78.9883 510.848 78.9961 510.895 79.0195C510.855 79.0117 510.816 79.0039 510.777 78.9883L510.059 81.8633C510.004 81.9961 509.863 82.1992 509.559 82.1211C509.566 82.1367 508.762 81.9258 508.762 81.9258L508.215 83.1836L509.645 83.543C509.91 83.6133 510.168 83.6758 510.426 83.7461L509.973 85.5664L511.066 85.8398L511.52 84.0352C511.816 84.1133 512.113 84.1914 512.395 84.2617L511.949 86.0586L513.043 86.332L513.496 84.5117C515.371 84.8633 516.777 84.7227 517.363 83.0273C517.84 81.668 517.34 80.8789 516.355 80.3633C517.082 80.1992 517.621 79.7227 517.762 78.7539ZM515.254 82.2695C514.918 83.6289 512.621 82.8945 511.879 82.707L512.48 80.293C513.223 80.4805 515.613 80.8477 515.254 82.2695ZM515.598 78.7305C515.285 79.9727 513.379 79.3398 512.762 79.1836L513.309 76.9961C513.926 77.1523 515.918 77.4414 515.598 78.7305Z" fill="white"/>
</g>
<path d="M532.232 87H536.936C539.576 87 540.952 85.896 540.952 83.8V83.736C540.952 82.2 540.152 81.352 538.664 81.048C539.944 80.68 540.52 79.8 540.52 78.6V78.536C540.52 76.584 539.224 75.56 536.728 75.56H532.232V87ZM534.76 85.208V81.928H536.408C537.816 81.928 538.392 82.472 538.392 83.528V83.592C538.392 84.632 537.816 85.208 536.536 85.208H534.76ZM534.76 80.264V77.336H536.296C537.512 77.336 538.056 77.768 538.056 78.728V78.792C538.056 79.816 537.56 80.264 536.312 80.264H534.76ZM544.863 87H547.471V77.576H550.559V75.56H541.775V77.576H544.863V87ZM556.837 87.176C559.653 87.176 561.685 85.72 561.973 82.888H559.429C559.221 84.36 558.229 85.08 556.805 85.08C554.917 85.08 553.829 83.704 553.829 81.336V81.208C553.829 78.84 554.981 77.432 556.789 77.432C558.229 77.432 558.997 78.168 559.189 79.544H561.845C561.573 76.728 559.525 75.384 556.773 75.384C553.525 75.384 551.093 77.752 551.093 81.224V81.352C551.093 84.872 553.093 87.176 556.837 87.176Z" fill="white"/>
<path d="M532.44 113H536.36C538.648 113 540.12 111.96 540.12 109.8V109.736C540.12 108.248 539.496 107.4 537.832 107C539.144 106.552 539.56 105.624 539.56 104.584V104.52C539.56 102.264 538.008 101.56 535.88 101.56H532.44V113ZM533.8 111.912V107.64H536.136C537.976 107.64 538.76 108.312 538.76 109.72V109.784C538.76 111.176 537.992 111.912 536.328 111.912H533.8ZM533.8 106.552V102.648H535.848C537.448 102.648 538.2 103.176 538.2 104.472V104.536C538.2 105.944 537.56 106.552 535.88 106.552H533.8ZM542.329 113H543.657V104.632H542.329V113ZM542.969 102.888C543.449 102.888 543.849 102.488 543.849 102.008C543.849 101.528 543.449 101.128 542.969 101.128C542.489 101.128 542.089 101.528 542.089 102.008C542.089 102.488 542.489 102.888 542.969 102.888ZM548.919 113.112C549.463 113.112 549.783 113.032 550.055 112.936V111.816C549.767 111.928 549.447 111.992 549.031 111.992C548.359 111.992 547.991 111.592 547.991 110.776V105.752H549.943V104.632H547.991V102.728H546.663V104.632H545.463V105.752H546.663V110.904C546.663 112.216 547.399 113.112 548.919 113.112ZM555.535 113.144C557.551 113.144 559.007 111.8 559.183 109.992H557.951C557.807 111.352 556.735 112.04 555.551 112.04C553.935 112.04 552.815 110.952 552.815 108.904V108.776C552.815 106.808 553.983 105.592 555.503 105.592C556.655 105.592 557.615 106.088 557.823 107.416H559.135C558.879 105.288 557.247 104.488 555.503 104.488C553.263 104.488 551.439 106.216 551.439 108.776V108.904C551.439 111.496 553.199 113.144 555.535 113.144ZM564.676 112.04C562.98 112.04 561.94 110.792 561.94 108.888V108.76C561.94 106.84 562.996 105.592 564.676 105.592C566.34 105.592 567.412 106.84 567.412 108.776V108.888C567.412 110.776 566.356 112.04 564.676 112.04ZM564.66 113.144C567.044 113.144 568.788 111.4 568.788 108.872V108.744C568.788 106.232 567.044 104.488 564.676 104.488C562.308 104.488 560.564 106.248 560.564 108.76V108.888C560.564 111.336 562.276 113.144 564.66 113.144ZM570.876 113H572.204V104.632H570.876V113ZM571.516 102.888C571.996 102.888 572.396 102.488 572.396 102.008C572.396 101.528 571.996 101.128 571.516 101.128C571.036 101.128 570.636 101.528 570.636 102.008C570.636 102.488 571.036 102.888 571.516 102.888ZM574.922 113H576.25V107.928C576.25 106.424 577.354 105.64 578.586 105.64C579.93 105.64 580.554 106.296 580.554 107.768V113H581.882V107.864C581.882 105.432 580.666 104.488 578.938 104.488C577.562 104.488 576.634 105.176 576.25 105.96V104.632H574.922V113Z" fill="#5D6588"/>
<path d="M624.393 81.4057C624.477 81.5617 624.637 81.6589 624.811 81.6589H627.521V87.0105C627.521 87.2807 627.736 87.5 628 87.5C628.264 87.5 628.478 87.2807 628.478 87.0105V81.6589H631.188C631.363 81.6589 631.523 81.5617 631.606 81.4057C631.691 81.2497 631.685 81.0591 631.593 80.9083L628.405 75.7284C628.317 75.5862 628.164 75.5 628 75.5C627.835 75.5 627.683 75.5862 627.595 75.7284L624.406 80.9083C624.358 80.988 624.333 81.0787 624.333 81.1694C624.333 81.2503 624.353 81.3319 624.393 81.4057Z" fill="#11CABE"/>
<path d="M640.659 86H647.897V84.558H643.641L645.867 82.388C647.057 81.24 647.827 80.106 647.827 78.804C647.827 77.04 646.595 75.85 644.523 75.85C642.409 75.85 641.093 77.11 640.967 79.294H642.675C642.843 77.88 643.473 77.306 644.467 77.306C645.433 77.306 645.965 77.894 645.965 78.832C645.965 79.784 645.391 80.666 644.439 81.674L640.659 85.664V86ZM650.491 86.098C651.121 86.098 651.611 85.622 651.611 85.006C651.611 84.39 651.121 83.9 650.491 83.9C649.875 83.9 649.385 84.39 649.385 85.006C649.385 85.622 649.875 86.098 650.491 86.098ZM656.422 86.14C658.718 86.14 660.174 84.992 660.174 83.144C660.174 81.814 659.404 80.988 658.242 80.722C659.208 80.358 659.866 79.672 659.866 78.538C659.866 77.054 658.648 75.85 656.562 75.85C654.42 75.85 653.118 77.18 653.02 78.916H654.672C654.784 77.908 655.47 77.264 656.534 77.264C657.57 77.264 658.088 77.866 658.088 78.678C658.088 79.616 657.57 80.148 656.422 80.148H655.708V81.478H656.478C657.696 81.478 658.284 82.024 658.284 83.116C658.284 84.11 657.682 84.74 656.38 84.74C655.036 84.74 654.448 83.956 654.35 82.906H652.656C652.74 84.824 654.042 86.14 656.422 86.14ZM665.523 86.14C667.791 86.14 669.219 84.768 669.219 82.738C669.219 80.792 667.847 79.476 665.929 79.476C664.739 79.476 663.913 79.994 663.451 80.764C663.507 78.482 664.389 77.292 665.733 77.292C666.699 77.292 667.091 77.74 667.273 78.496H669.009C668.771 76.746 667.567 75.85 665.747 75.85C663.353 75.85 661.603 77.74 661.603 81.212V81.45C661.603 84.096 662.611 86.14 665.523 86.14ZM665.495 84.768C664.361 84.768 663.563 83.998 663.563 82.668C663.563 81.562 664.361 80.764 665.495 80.764C666.643 80.764 667.371 81.576 667.371 82.78C667.371 83.97 666.615 84.768 665.495 84.768ZM672.659 79.616C672.001 79.616 671.581 79.168 671.581 78.314C671.581 77.474 672.001 77.012 672.659 77.012C673.317 77.012 673.723 77.502 673.723 78.314C673.723 79.14 673.317 79.616 672.659 79.616ZM672.645 80.75C674.017 80.75 675.081 79.714 675.081 78.3C675.081 76.9 674.003 75.892 672.659 75.892C671.315 75.892 670.209 76.928 670.209 78.328C670.209 79.714 671.273 80.75 672.645 80.75ZM671.581 86H672.771L679.211 75.99H678.035L671.581 86ZM678.147 85.006C677.489 85.006 677.069 84.558 677.069 83.704C677.069 82.864 677.489 82.402 678.147 82.402C678.805 82.402 679.211 82.892 679.211 83.704C679.211 84.53 678.805 85.006 678.147 85.006ZM678.133 86.14C679.505 86.14 680.583 85.104 680.583 83.69C680.583 82.29 679.491 81.282 678.147 81.282C676.803 81.282 675.711 82.318 675.711 83.718C675.711 85.104 676.761 86.14 678.133 86.14Z" fill="#11CABE"/>
<rect width="173" height="348" transform="matrix(-1 0 0 1 984 -11)" fill="url(#paint5_linear_1428_2186)"/>
<rect x="35" y="-11" width="167" height="314" fill="url(#paint6_linear_1428_2186)"/>
<rect width="102" height="943" transform="matrix(0 1 1 0 41 -11)" fill="url(#paint7_linear_1428_2186)"/>
</g>
<defs>
<filter id="filter0_f_1428_2186" x="37.6406" y="149" width="949.383" height="147.194" filterUnits="userSpaceOnUse" color-interpolation-filters="sRGB">
<feFlood flood-opacity="0" result="BackgroundImageFix"/>
<feBlend mode="normal" in="SourceGraphic" in2="BackgroundImageFix" result="shape"/>
<feGaussianBlur stdDeviation="2.5" result="effect1_foregroundBlur_1428_2186"/>
</filter>
<filter id="filter1_f_1428_2186" x="36.5244" y="97" width="952.476" height="183.421" filterUnits="userSpaceOnUse" color-interpolation-filters="sRGB">
<feFlood flood-opacity="0" result="BackgroundImageFix"/>
<feBlend mode="normal" in="SourceGraphic" in2="BackgroundImageFix" result="shape"/>
<feGaussianBlur stdDeviation="2.5" result="effect1_foregroundBlur_1428_2186"/>
</filter>
<filter id="filter2_f_1428_2186" x="35.4863" y="78.5" width="954.228" height="153.343" filterUnits="userSpaceOnUse" color-interpolation-filters="sRGB">
<feFlood flood-opacity="0" result="BackgroundImageFix"/>
<feBlend mode="normal" in="SourceGraphic" in2="BackgroundImageFix" result="shape"/>
<feGaussianBlur stdDeviation="2.5" result="effect1_foregroundBlur_1428_2186"/>
</filter>
<filter id="filter3_b_1428_2186" x="473" y="40" width="238" height="226" filterUnits="userSpaceOnUse" color-interpolation-filters="sRGB">
<feFlood flood-opacity="0" result="BackgroundImageFix"/>
<feGaussianBlur in="BackgroundImageFix" stdDeviation="7"/>
<feComposite in2="SourceAlpha" operator="in" result="effect1_backgroundBlur_1428_2186"/>
<feBlend mode="normal" in="SourceGraphic" in2="effect1_backgroundBlur_1428_2186" result="shape"/>
</filter>
<linearGradient id="paint0_linear_1428_2186" x1="512.399" y1="155" x2="512.399" y2="314" gradientUnits="userSpaceOnUse">
<stop stop-color="#F7931A" stop-opacity="0.1"/>
<stop offset="1" stop-color="#F7931A" stop-opacity="0"/>
</linearGradient>
<linearGradient id="paint1_linear_1428_2186" x1="513" y1="103" x2="513" y2="314" gradientUnits="userSpaceOnUse">
<stop stop-color="#BD47FB" stop-opacity="0.1"/>
<stop offset="1" stop-color="#BD47FB" stop-opacity="0"/>
</linearGradient>
<linearGradient id="paint2_linear_1428_2186" x1="512.5" y1="84.5" x2="512.5" y2="304" gradientUnits="userSpaceOnUse">
<stop stop-color="#30E0A1" stop-opacity="0.1"/>
<stop offset="1" stop-color="#30E0A1" stop-opacity="0"/>
</linearGradient>
<linearGradient id="paint3_linear_1428_2186" x1="464" y1="304" x2="464" y2="-239.522" gradientUnits="userSpaceOnUse">
<stop stop-color="#191E39"/>
<stop offset="1" stop-color="#191E39" stop-opacity="0"/>
</linearGradient>
<linearGradient id="paint4_linear_1428_2186" x1="512.995" y1="69.9952" x2="512.995" y2="89.998" gradientUnits="userSpaceOnUse">
<stop stop-color="#F9AA4B"/>
<stop offset="1" stop-color="#F7931A"/>
</linearGradient>
<linearGradient id="paint5_linear_1428_2186" x1="0" y1="174" x2="173" y2="174" gradientUnits="userSpaceOnUse">
<stop stop-color="#1E1F25"/>
<stop offset="1" stop-color="#212432" stop-opacity="0"/>
</linearGradient>
<linearGradient id="paint6_linear_1428_2186" x1="35" y1="146" x2="202" y2="146" gradientUnits="userSpaceOnUse">
<stop stop-color="#1E1F25"/>
<stop offset="1" stop-color="#212432" stop-opacity="0"/>
</linearGradient>
<linearGradient id="paint7_linear_1428_2186" x1="0" y1="471.5" x2="102" y2="471.5" gradientUnits="userSpaceOnUse">
<stop stop-color="#1E1F25"/>
<stop offset="1" stop-color="#212432" stop-opacity="0"/>
</linearGradient>
<clipPath id="clip0_1428_2186">
<rect width="984" height="337" fill="white"/>
</clipPath>
<clipPath id="clip1_1428_2186">
<rect width="20" height="20" fill="white" transform="translate(503 186)"/>
</clipPath>
<clipPath id="clip2_1428_2186">
<rect width="20" height="20" fill="white" transform="translate(503 128)"/>
</clipPath>
<clipPath id="clip3_1428_2186">
<rect width="20" height="20" fill="white" transform="translate(503 70)"/>
</clipPath>
</defs>
</svg>
