<svg width="527" height="513" viewBox="0 0 527 513" fill="none" xmlns="http://www.w3.org/2000/svg">
<rect x="353.906" y="461.464" width="278" height="436" rx="12" transform="rotate(169.332 353.906 461.464)" fill="url(#paint0_linear_248_596)" fill-opacity="0.6"/>
<mask id="mask0_248_596" style="mask-type:alpha" maskUnits="userSpaceOnUse" x="2" y="35" width="350" height="476">
<rect x="353.906" y="461.464" width="278" height="436" rx="12" transform="rotate(169.332 353.906 461.464)" fill="url(#paint1_linear_248_596)"/>
</mask>
<g mask="url(#mask0_248_596)">
<path fill-rule="evenodd" clip-rule="evenodd" d="M110.471 407.55C105.125 406.645 100.999 405.71 101.303 405.472C101.606 405.235 104.945 403.824 108.723 402.338C112.5 400.852 116.031 399.233 116.568 398.741C117.505 397.882 117.492 397.579 116.248 391.106L114.952 384.366L114.373 387.528C114.055 389.267 113.707 391.086 113.598 391.57C113.484 392.085 112.203 393.025 110.518 393.831C108.932 394.59 103.855 397.024 99.2355 399.24L90.8363 403.27L91.3806 406.938L91.9249 410.605L105.831 413.424C113.479 414.974 120.151 416.313 120.657 416.398C121.481 416.537 121.505 416.171 120.884 412.875L120.191 409.197L110.471 407.55ZM120.471 419.461C119.563 419.473 113.923 419.612 107.936 419.771C101.95 419.93 96.3102 420.072 95.4032 420.086L93.7545 420.113L94.4049 423.565C95.0034 426.742 95.147 427.021 96.2088 427.064C97.6745 427.123 122.36 426.473 122.96 426.36C123.206 426.313 123.118 424.737 122.764 422.858L122.12 419.441L120.471 419.461ZM124.41 435.563C122.222 431.817 117.58 429.912 114.019 431.3C112.048 432.068 109.958 435.212 108.823 439.117C107.735 442.862 105.915 443.845 104.18 441.625C102.801 439.861 102.311 436.895 102.877 433.732L103.344 431.118L101.008 431.238C99.7229 431.304 98.2936 431.328 97.8322 431.29C96.6905 431.199 96.5049 434.713 97.3999 439.465C98.525 445.437 101.011 448.635 105.316 449.644C110.181 450.784 113.003 448.559 115.258 441.802C116.516 438.032 117.767 437.184 119.466 438.95C120.528 440.054 121.176 443.576 120.84 446.426C120.696 447.637 120.99 447.737 124.516 447.669C126.238 447.637 126.445 447.501 126.667 446.258C127.023 444.271 125.623 437.64 124.41 435.563ZM129.22 458.941C128.992 458.384 128.367 457.664 127.832 457.342C127.114 456.909 107.795 452.562 100.234 451.132C99.7416 451.039 99.7511 451.946 100.271 454.705L100.967 458.401L103.186 458.703L105.405 459.005L106.393 463.469L107.38 467.934L106.068 468.497C102.986 469.82 103.083 469.635 103.717 472.999L104.31 476.148L105.847 475.528C106.692 475.188 112.59 472.766 118.952 470.147L130.521 465.385L130.078 462.67C129.834 461.176 129.448 459.498 129.22 458.941ZM116.915 464.059L112.544 465.841L111.991 462.904C111.501 460.302 111.543 459.987 112.363 460.15C112.871 460.251 115.278 460.668 117.71 461.077C120.142 461.486 121.942 461.923 121.709 462.049C121.476 462.174 119.319 463.078 116.915 464.059Z" fill="white"/>
<g opacity="0.6">
<rect x="154.368" y="153.072" width="51" height="67" rx="5" transform="rotate(169.332 154.368 153.072)" fill="url(#paint2_linear_248_596)" stroke="#2F333C"/>
<rect x="141.509" y="128.02" width="35" height="14" rx="5" transform="rotate(169.332 141.509 128.02)" stroke="#2F333C"/>
<path d="M131.84 88.9995L137.018 116.489" stroke="#2F333C"/>
<path d="M139.069 127.378L144.248 154.868" stroke="#2F333C"/>
<path d="M117.079 91.7798L121.972 117.753" stroke="#2F333C"/>
<path d="M124.587 131.634L129.48 157.608" stroke="#2F333C"/>
<path d="M102.318 94.5605L107.497 122.05" stroke="#2F333C"/>
<path d="M109.548 132.939L114.726 160.429" stroke="#2F333C"/>
</g>
<g filter="url(#filter0_i_248_596)">
<path d="M163.778 84.7037L170.761 83.3884L170.415 81.553L171.565 81.3363L172.808 84.8863L164.121 86.5228L163.778 84.7037Z" fill="white"/>
<path d="M172.473 92.7459C173.12 92.624 173.588 92.6737 173.878 92.8951C174.167 93.1165 174.385 93.6161 174.532 94.3937L175.366 98.8231C175.513 99.6008 175.491 100.145 175.302 100.457C175.114 100.774 174.697 100.993 174.049 101.115L173.495 101.22C173.076 101.299 172.743 101.294 172.495 101.205C172.249 101.122 171.927 100.865 171.53 100.433L167.501 95.9462L168.444 100.955L169.717 100.715L169.568 102.39L168.883 102.519C168.235 102.641 167.767 102.589 167.476 102.362C167.187 102.141 166.969 101.641 166.822 100.863L165.456 93.6115L166.239 93.464C166.62 93.3923 166.928 93.4158 167.165 93.5346C167.402 93.6588 167.687 93.9008 168.02 94.2605L172.814 99.532L173.939 99.32L173.014 94.4093L171.236 94.7443L171.355 92.9564L172.473 92.7459Z" fill="white"/>
<path d="M168.25 108.442C168.103 107.664 168.124 107.117 168.312 106.8C168.501 106.488 168.919 106.271 169.566 106.149L170.268 106.017L170.968 107.718L169.761 107.946L170.637 112.595C170.7 112.927 170.793 113.138 170.917 113.227C171.041 113.322 171.259 113.34 171.569 113.281L172.197 113.163C172.512 113.104 172.711 113.007 172.793 112.873C172.88 112.739 172.893 112.508 172.831 112.182L172.283 109.27L173.686 109.005L174.175 111.6C174.236 111.926 174.329 112.134 174.452 112.223C174.576 112.312 174.796 112.327 175.111 112.268L175.544 112.186C175.864 112.126 176.066 112.032 176.149 111.903C176.232 111.775 176.243 111.548 176.181 111.222L175.379 106.963L174.302 107.166L174.299 105.401L174.838 105.3C175.485 105.178 175.953 105.228 176.243 105.449C176.532 105.671 176.75 106.17 176.897 106.948L177.776 111.614C177.922 112.391 177.901 112.936 177.712 113.248C177.523 113.559 177.104 113.776 176.457 113.898L175.674 114.045C175.168 114.141 174.77 114.089 174.479 113.89C174.189 113.692 173.936 113.292 173.721 112.69C173.786 113.393 173.707 113.932 173.485 114.306C173.262 114.68 172.882 114.918 172.344 115.019L171.438 115.19C170.731 115.323 170.216 115.262 169.892 115.008C169.574 114.752 169.341 114.233 169.193 113.45L168.25 108.442Z" fill="white"/>
<path d="M171.354 125.46L173.353 125.083L172.122 118.549L173.566 118.277L180.158 123.725L180.515 125.618L175.139 126.63L175.533 128.719L174.089 128.991L173.695 126.902L171.697 127.279L171.354 125.46ZM174.797 124.811L178.655 124.085L173.908 120.096L174.797 124.811Z" fill="white"/>
<path d="M177.871 138.397L182.743 137.986L184.146 145.434L182.65 145.564L181.516 139.544L179.807 139.663C180.023 140.388 180.199 141.028 180.338 141.582C180.477 142.141 180.59 142.652 180.677 143.114C180.945 144.539 180.902 145.654 180.547 146.458C180.197 147.262 179.535 147.755 178.562 147.939C177.55 148.129 176.745 147.892 176.147 147.228C175.55 146.569 175.094 145.405 174.78 143.735C174.615 142.86 174.496 142.063 174.422 141.345C174.35 140.632 174.325 140.02 174.347 139.509L175.93 138.763C175.936 139.635 175.971 140.45 176.036 141.21C176.106 141.973 176.207 142.701 176.337 143.391C176.541 144.473 176.79 145.215 177.085 145.615C177.386 146.015 177.789 146.167 178.295 146.072C178.773 145.982 179.075 145.702 179.201 145.234C179.327 144.765 179.293 144.02 179.101 142.997C178.978 142.345 178.813 141.633 178.605 140.861C178.398 140.089 178.153 139.268 177.871 138.397Z" fill="white"/>
<path d="M180.647 152.867C180.575 152.87 180.502 152.875 180.431 152.883C180.359 152.891 180.263 152.906 180.144 152.929C179.312 153.085 178.816 153.291 178.655 153.547C178.501 153.807 178.495 154.312 178.637 155.062L179.09 157.469C179.202 158.061 179.352 158.455 179.541 158.651C179.731 158.852 180.024 158.915 180.421 158.84L180.894 158.751C181.297 158.675 181.544 158.496 181.638 158.214C181.737 157.936 181.715 157.416 181.572 156.655C181.456 156.04 181.319 155.416 181.16 154.781C181.007 154.151 180.837 153.513 180.647 152.867ZM181.974 152.736C182.196 153.375 182.391 154.006 182.559 154.628C182.733 155.254 182.878 155.874 182.994 156.488C183.256 157.881 183.272 158.866 183.043 159.444C182.82 160.021 182.289 160.388 181.452 160.546L180.285 160.766C179.568 160.901 178.992 160.762 178.56 160.348C178.127 159.934 177.815 159.221 177.625 158.209L176.938 154.563C176.733 153.475 176.783 152.694 177.088 152.22C177.393 151.746 178.051 151.414 179.062 151.223L180.196 151.01C181.8 150.708 183.145 151.029 184.229 151.973C185.32 152.922 186.056 154.408 186.437 156.431C186.452 156.507 186.464 156.589 186.475 156.677C186.493 156.77 186.508 156.894 186.52 157.049L185.358 158.501L185.253 157.946C184.908 156.114 184.49 154.821 183.999 154.069C183.514 153.316 182.839 152.871 181.974 152.736Z" fill="white"/>
<path d="M179.216 167.463L187.392 170.737L186.318 165.035L184.458 165.386L184.434 163.507L187.444 162.94L189.248 172.516L187.861 172.778L179.629 169.657L179.216 167.463Z" fill="white"/>
<path d="M191.265 183.227C191.412 184.005 191.391 184.549 191.202 184.861C191.013 185.178 190.596 185.397 189.949 185.519L189.166 185.667C188.665 185.761 188.267 185.709 187.971 185.512C187.675 185.314 187.411 184.919 187.181 184.326C187.231 184.975 187.145 185.476 186.924 185.827C186.703 186.178 186.331 186.403 185.809 186.502L184.904 186.672C184.202 186.804 183.689 186.74 183.364 186.481C183.04 186.226 182.804 185.705 182.655 184.916L181.618 179.41C181.471 178.627 181.499 178.059 181.702 177.705C181.912 177.35 182.37 177.106 183.077 176.973L183.982 176.803C184.499 176.705 184.924 176.78 185.258 177.027C185.597 177.273 185.86 177.702 186.049 178.314C186.054 177.682 186.158 177.218 186.361 176.92C186.565 176.628 186.914 176.436 187.409 176.343L188.192 176.195C188.84 176.073 189.308 176.123 189.597 176.344C189.888 176.571 190.106 177.074 190.253 177.851L191.265 183.227ZM189.671 182.835L188.914 178.813C188.851 178.481 188.755 178.269 188.624 178.175C188.5 178.08 188.279 178.062 187.964 178.122L187.532 178.203C187.222 178.262 187.023 178.358 186.936 178.493C186.854 178.627 186.844 178.859 186.907 179.191L187.664 183.213C187.726 183.539 187.819 183.747 187.942 183.836C188.067 183.931 188.287 183.948 188.603 183.889L189.035 183.808C189.356 183.747 189.557 183.65 189.639 183.516C189.722 183.388 189.733 183.161 189.671 182.835ZM186.297 183.664L185.465 179.251C185.404 178.925 185.311 178.717 185.187 178.628C185.064 178.539 184.841 178.524 184.52 178.585L183.892 178.703C183.577 178.762 183.377 178.854 183.293 178.976C183.215 179.098 183.208 179.328 183.271 179.665L184.102 184.078C184.165 184.41 184.255 184.618 184.372 184.703C184.496 184.792 184.716 184.807 185.031 184.748L185.659 184.629C185.98 184.569 186.182 184.475 186.265 184.346C186.347 184.218 186.358 183.991 186.297 183.664Z" fill="white"/>
<path d="M189.743 203.71C189.529 203.108 189.337 202.494 189.168 201.867C189.005 201.239 188.862 200.601 188.74 199.954C188.478 198.562 188.458 197.575 188.681 196.992C188.91 196.414 189.44 196.047 190.272 195.89L191.43 195.672C192.148 195.536 192.723 195.673 193.155 196.082C193.588 196.496 193.899 197.209 194.09 198.22L194.775 201.858C194.98 202.946 194.93 203.727 194.625 204.201C194.32 204.675 193.662 205.007 192.65 205.198L191.517 205.411C189.912 205.714 188.568 205.393 187.483 204.448C186.399 203.504 185.666 202.02 185.285 199.997C185.253 199.828 185.232 199.7 185.221 199.612C185.206 199.53 185.196 199.45 185.193 199.372L186.348 197.93L186.451 198.476C186.798 200.314 187.216 201.61 187.707 202.362C188.199 203.119 188.878 203.569 189.743 203.71ZM191.083 203.559C191.184 203.557 191.279 203.55 191.367 203.539C191.461 203.533 191.541 203.523 191.606 203.511C192.455 203.351 192.961 203.14 193.126 202.878C193.29 202.616 193.302 202.108 193.159 201.352L192.709 198.962C192.595 198.358 192.441 197.956 192.245 197.757C192.05 197.557 191.746 197.496 191.333 197.574L190.851 197.664C190.433 197.743 190.174 197.924 190.075 198.208C189.976 198.491 190 199.019 190.145 199.791C190.248 200.335 190.376 200.924 190.529 201.56C190.689 202.2 190.874 202.866 191.083 203.559Z" fill="white"/>
<path d="M189.196 211.119L190.356 217.278L195.96 216.222L194.8 210.064L189.196 211.119ZM193.89 208.368C194.678 208.22 195.24 208.255 195.574 208.474C195.914 208.697 196.156 209.189 196.299 209.95L197.398 215.783C197.542 216.55 197.496 217.096 197.259 217.422C197.029 217.753 196.519 217.992 195.731 218.141L191.187 218.997C190.398 219.145 189.834 219.108 189.493 218.885C189.159 218.666 188.92 218.174 188.776 217.407L187.677 211.574C187.534 210.813 187.577 210.267 187.808 209.936C188.045 209.61 188.558 209.373 189.346 209.224L193.89 208.368Z" fill="white"/>
<path d="M190.558 226.869L197.541 225.554L197.195 223.719L198.345 223.502L199.588 227.052L190.901 228.688L190.558 226.869Z" fill="white"/>
<path d="M199.253 234.912C199.9 234.79 200.368 234.839 200.658 235.061C200.947 235.282 201.165 235.782 201.312 236.559L202.146 240.989C202.293 241.767 202.271 242.311 202.082 242.623C201.894 242.94 201.477 243.159 200.829 243.281L200.275 243.385C199.856 243.464 199.523 243.46 199.275 243.371C199.029 243.288 198.707 243.03 198.31 242.598L194.281 238.112L195.224 243.12L196.497 242.881L196.348 244.556L195.663 244.685C195.016 244.807 194.547 244.754 194.256 244.528C193.967 244.306 193.749 243.807 193.602 243.029L192.236 235.777L193.019 235.63C193.4 235.558 193.708 235.582 193.945 235.7C194.182 235.825 194.467 236.066 194.8 236.426L199.594 241.698L200.719 241.486L199.794 236.575L198.016 236.91L198.135 235.122L199.253 234.912Z" fill="white"/>
<path d="M196.25 257.084C196.103 256.306 196.124 255.759 196.312 255.442C196.501 255.131 196.919 254.914 197.567 254.792L198.268 254.66L198.969 256.361L197.761 256.588L198.637 261.238C198.7 261.57 198.793 261.78 198.917 261.869C199.041 261.964 199.259 261.982 199.569 261.924L200.197 261.806C200.512 261.746 200.711 261.65 200.793 261.516C200.88 261.381 200.893 261.151 200.831 260.825L200.283 257.912L201.686 257.648L202.175 260.242C202.236 260.568 202.329 260.776 202.453 260.866C202.576 260.955 202.796 260.97 203.111 260.91L203.544 260.829C203.865 260.768 204.066 260.674 204.149 260.546C204.232 260.418 204.243 260.19 204.181 259.864L203.379 255.606L202.302 255.809L202.299 254.044L202.838 253.943C203.485 253.821 203.953 253.87 204.243 254.092C204.532 254.313 204.75 254.813 204.897 255.59L205.776 260.256C205.922 261.034 205.901 261.579 205.712 261.89C205.523 262.202 205.105 262.419 204.457 262.54L203.674 262.688C203.169 262.783 202.77 262.732 202.479 262.533C202.189 262.334 201.936 261.934 201.721 261.333C201.786 262.036 201.707 262.574 201.485 262.948C201.263 263.322 200.882 263.56 200.344 263.662L199.438 263.832C198.731 263.965 198.216 263.905 197.892 263.65C197.574 263.395 197.341 262.876 197.193 262.093L196.25 257.084Z" fill="white"/>
<path d="M199.354 274.102L201.353 273.726L200.122 267.192L201.566 266.92L208.158 272.368L208.515 274.26L203.139 275.273L203.533 277.361L202.089 277.633L201.695 275.545L199.697 275.921L199.354 274.102ZM202.797 273.454L206.655 272.727L201.908 268.739L202.797 273.454Z" fill="white"/>
<path d="M204.651 280.563L209.523 280.152L210.926 287.6L209.43 287.73L208.296 281.709L206.587 281.829C206.803 282.554 206.979 283.194 207.118 283.747C207.257 284.307 207.37 284.818 207.457 285.28C207.725 286.705 207.682 287.82 207.327 288.624C206.977 289.428 206.315 289.921 205.342 290.105C204.33 290.295 203.525 290.058 202.927 289.394C202.33 288.735 201.874 287.57 201.56 285.901C201.395 285.025 201.276 284.229 201.202 283.51C201.13 282.797 201.105 282.186 201.127 281.675L202.71 280.929C202.716 281.8 202.751 282.616 202.816 283.375C202.886 284.139 202.987 284.866 203.117 285.557C203.321 286.639 203.57 287.381 203.865 287.781C204.166 288.181 204.569 288.333 205.075 288.237C205.553 288.147 205.855 287.868 205.981 287.399C206.107 286.931 206.073 286.185 205.881 285.163C205.758 284.51 205.593 283.798 205.385 283.026C205.178 282.255 204.933 281.433 204.651 280.563Z" fill="white"/>
<path d="M207.427 295.033C207.355 295.036 207.282 295.041 207.211 295.049C207.139 295.057 207.043 295.072 206.924 295.094C206.092 295.251 205.596 295.457 205.435 295.712C205.282 295.972 205.275 296.478 205.417 297.228L205.87 299.634C205.982 300.227 206.132 300.621 206.321 300.816C206.511 301.017 206.804 301.08 207.201 301.005L207.674 300.916C208.077 300.841 208.324 300.661 208.418 300.379C208.517 300.101 208.495 299.582 208.352 298.821C208.236 298.206 208.099 297.581 207.94 296.947C207.788 296.317 207.617 295.679 207.427 295.033ZM208.754 294.901C208.976 295.541 209.171 296.172 209.339 296.793C209.513 297.419 209.658 298.04 209.774 298.654C210.036 300.046 210.052 301.031 209.823 301.61C209.6 302.187 209.069 302.554 208.232 302.712L207.065 302.931C206.348 303.067 205.772 302.927 205.34 302.513C204.907 302.099 204.595 301.386 204.405 300.375L203.718 296.729C203.513 295.641 203.563 294.86 203.868 294.386C204.173 293.912 204.831 293.58 205.842 293.389L206.976 293.175C208.58 292.873 209.925 293.194 211.009 294.139C212.1 295.088 212.836 296.574 213.217 298.597C213.232 298.673 213.244 298.755 213.255 298.843C213.273 298.935 213.288 299.059 213.3 299.215L212.138 300.667L212.033 300.112C211.688 298.279 211.27 296.987 210.779 296.235C210.294 295.481 209.619 295.037 208.754 294.901Z" fill="white"/>
</g>
</g>
<g filter="url(#filter1_b_248_596)">
<rect x="121" width="406" height="449" rx="20" fill="#2F3241" fill-opacity="0.5"/>
<rect x="121.5" y="0.5" width="405" height="448" rx="19.5" stroke="url(#paint3_linear_248_596)"/>
</g>
<path d="M153 384.5C153 366.551 167.551 352 185.5 352H462.5C480.449 352 495 366.551 495 384.5V384.5C495 402.449 480.449 417 462.5 417H185.5C167.551 417 153 402.449 153 384.5V384.5Z" fill="url(#paint4_linear_248_596)"/>
<path d="M296.316 384.376C297.576 383.926 297.936 382.756 297.936 381.784C297.936 379.894 296.568 378.598 294.408 378.598H289.584V391H294.786C297.36 391 298.602 389.218 298.602 387.472C298.602 386.104 297.828 384.682 296.316 384.376ZM295.74 382.09C295.74 382.99 295.236 383.602 294.318 383.602H291.78V380.56H294.318C295.272 380.56 295.74 381.226 295.74 382.09ZM291.78 389.038V385.456H294.498C295.812 385.456 296.388 386.374 296.388 387.256C296.388 388.192 295.722 389.038 294.444 389.038H291.78ZM306.413 387.094C306.413 388.732 305.225 389.272 304.271 389.272C303.335 389.272 302.525 388.57 302.525 387.22V382.594H300.437V387.31C300.437 389.758 301.643 391.216 303.803 391.216C304.649 391.216 305.981 390.748 306.413 389.686V391H308.501V382.594H306.413V387.094ZM314.37 387.922L312.192 382.594H309.906L313.254 390.406L311.364 395.104H313.56L318.78 382.594H316.53L314.37 387.922ZM331.688 386.878L326.81 378.598H324.74V391H326.936V382.648L331.886 391H333.884V378.598H331.688V386.878ZM340.434 391.216C342.828 391.216 344.916 389.452 344.916 386.788C344.916 384.124 342.828 382.378 340.434 382.378C338.04 382.378 335.97 384.124 335.97 386.788C335.97 389.452 338.04 391.216 340.434 391.216ZM340.434 389.272C339.138 389.272 338.076 388.264 338.076 386.788C338.076 385.348 339.138 384.322 340.434 384.322C341.73 384.322 342.81 385.348 342.81 386.788C342.81 388.264 341.73 389.272 340.434 389.272ZM355.092 388.012L353.31 382.594H351.456L349.674 388.012L347.892 382.594H345.642L348.756 391H350.502L352.374 385.258L354.336 391H356.1L359.124 382.594H356.874L355.092 388.012Z" fill="white"/>
<path d="M153 298.5C153 282.208 166.208 269 182.5 269H465.5C481.792 269 495 282.208 495 298.5V298.5C495 314.792 481.792 328 465.5 328H182.5C166.208 328 153 314.792 153 298.5V298.5Z" fill="#2F3241" fill-opacity="0.5"/>
<path d="M191.192 302.866C189.05 302.866 187.682 301.174 187.682 297.916V297.196C187.682 294.028 188.978 292.228 191.156 292.228C193.334 292.228 194.594 294.172 194.594 297.16V297.88C194.594 301.138 193.442 302.866 191.192 302.866ZM191.192 304.162C194.36 304.162 196.178 301.642 196.178 297.898V297.178C196.178 293.506 194.324 290.968 191.156 290.968C188.006 290.968 186.08 293.416 186.08 297.214V297.934C186.08 301.678 188.114 304.162 191.192 304.162ZM198.893 304.09C199.523 304.09 200.045 303.586 200.045 302.938C200.045 302.29 199.523 301.786 198.893 301.786C198.263 301.786 197.741 302.29 197.741 302.938C197.741 303.586 198.263 304.09 198.893 304.09ZM206.451 304.162C208.629 304.162 210.879 302.884 210.879 300.31C210.879 298.654 209.907 297.538 208.413 296.998C209.601 296.476 210.393 295.576 210.393 294.28C210.393 292.264 208.449 290.968 206.451 290.968C204.471 290.968 202.491 292.228 202.491 294.316C202.491 295.576 203.211 296.548 204.435 297.016C203.067 297.502 202.005 298.618 202.005 300.346C202.005 302.902 204.345 304.162 206.451 304.162ZM206.451 302.884C204.957 302.884 203.607 301.984 203.607 300.292C203.607 298.582 204.957 297.7 206.487 297.7C208.017 297.7 209.277 298.564 209.277 300.256C209.277 301.966 208.035 302.884 206.451 302.884ZM206.505 296.458C205.191 296.458 204.075 295.684 204.075 294.334C204.075 293.002 205.119 292.192 206.451 292.192C207.783 292.192 208.809 293.056 208.809 294.298C208.809 295.666 207.873 296.458 206.505 296.458ZM216.97 304.162C219.418 304.162 221.38 302.506 221.38 299.788C221.38 297.16 219.688 295.522 217.384 295.522C216.16 295.522 215.278 295.918 214.756 296.404V292.48H220.696V291.13H213.46V298.024H214.036C214.72 297.25 215.584 296.782 217.078 296.782C218.716 296.782 219.778 297.97 219.778 299.788C219.778 301.732 218.698 302.902 216.952 302.902C214.99 302.902 214.432 301.93 214.18 300.526H212.686C212.866 302.632 214.198 304.162 216.97 304.162ZM225.951 304H227.517V291.13H226.059L223.071 293.29V294.748L225.951 292.678V304ZM233.14 304H234.706V291.13H233.248L230.26 293.29V294.748L233.14 292.678V304Z" fill="white"/>
<line x1="353.5" y1="282.5" x2="353.5" y2="314.5" stroke="#34384C"/>
<g clip-path="url(#clip0_248_596)">
<path d="M392.641 301.402C391.038 307.834 384.521 311.744 378.098 310.14C371.666 308.537 367.756 302.021 369.36 295.598C370.963 289.166 377.47 285.256 383.902 286.86C390.325 288.453 394.244 294.97 392.641 301.402Z" fill="url(#paint5_linear_248_596)"/>
<path d="M386.714 297.004C386.948 295.411 385.739 294.548 384.07 293.976L384.614 291.811L383.302 291.483L382.777 293.592C382.43 293.508 382.073 293.423 381.717 293.348L382.242 291.229L380.93 290.901L380.395 293.058C380.105 292.992 379.823 292.926 379.552 292.861V292.851L377.733 292.401L377.386 293.808C377.386 293.808 378.361 294.033 378.342 294.042C378.877 294.173 378.97 294.529 378.952 294.811L378.333 297.276C378.37 297.286 378.417 297.295 378.473 297.323C378.427 297.314 378.38 297.304 378.333 297.286L377.47 300.736C377.405 300.895 377.236 301.139 376.87 301.045C376.88 301.064 375.914 300.811 375.914 300.811L375.258 302.32L376.973 302.751C377.292 302.836 377.602 302.911 377.911 302.995L377.367 305.179L378.68 305.508L379.223 303.342C379.58 303.436 379.936 303.529 380.273 303.614L379.739 305.77L381.052 306.098L381.595 303.914C383.845 304.336 385.533 304.167 386.236 302.133C386.808 300.501 386.208 299.554 385.027 298.936C385.898 298.739 386.545 298.167 386.714 297.004ZM383.705 301.223C383.302 302.854 380.545 301.973 379.655 301.748L380.377 298.851C381.267 299.076 384.136 299.517 383.705 301.223ZM384.117 296.976C383.742 298.467 381.455 297.708 380.714 297.52L381.37 294.895C382.111 295.083 384.502 295.429 384.117 296.976Z" fill="white"/>
</g>
<path d="M409.316 298.376C410.576 297.926 410.936 296.756 410.936 295.784C410.936 293.894 409.568 292.598 407.408 292.598H402.584V305H407.786C410.36 305 411.602 303.218 411.602 301.472C411.602 300.104 410.828 298.682 409.316 298.376ZM408.74 296.09C408.74 296.99 408.236 297.602 407.318 297.602H404.78V294.56H407.318C408.272 294.56 408.74 295.226 408.74 296.09ZM404.78 303.038V299.456H407.498C408.812 299.456 409.388 300.374 409.388 301.256C409.388 302.192 408.722 303.038 407.444 303.038H404.78ZM412.487 292.598V294.56H416.033V305H418.229V294.56H421.775V292.598H412.487ZM428.711 305.216C430.745 305.216 432.527 304.262 433.643 302.804L431.987 301.544C431.231 302.534 430.115 303.164 428.765 303.164C426.371 303.164 424.625 301.184 424.625 298.808C424.625 296.432 426.407 294.434 428.765 294.434C430.115 294.434 431.231 295.064 431.987 296.054L433.643 294.794C432.527 293.336 430.745 292.382 428.711 292.382C425.219 292.382 422.411 295.298 422.411 298.808C422.411 302.318 425.219 305.216 428.711 305.216Z" fill="white"/>
<path d="M446.534 294.955C446.777 294.707 447.158 294.684 447.427 294.887L447.504 294.955L453 300.561L458.495 294.955C458.739 294.707 459.12 294.684 459.389 294.887L459.465 294.955C459.709 295.203 459.731 295.592 459.532 295.866L459.465 295.944L453.485 302.045C453.241 302.293 452.86 302.316 452.592 302.113L452.515 302.045L446.534 295.944C446.266 295.671 446.266 295.228 446.534 294.955Z" fill="white"/>
<path d="M182.5 270H465.5V268H182.5V270ZM465.5 327H182.5V329H465.5V327ZM182.5 327C166.76 327 154 314.24 154 298.5H152C152 315.345 165.655 329 182.5 329V327ZM494 298.5C494 314.24 481.24 327 465.5 327V329C482.345 329 496 315.345 496 298.5H494ZM465.5 270C481.24 270 494 282.76 494 298.5H496C496 281.655 482.345 268 465.5 268V270ZM182.5 268C165.655 268 152 281.655 152 298.5H154C154 282.76 166.76 270 182.5 270V268Z" fill="#34384C"/>
<path d="M153 215.5C153 199.208 166.208 186 182.5 186H465.5C481.792 186 495 199.208 495 215.5V215.5C495 231.792 481.792 245 465.5 245H182.5C166.208 245 153 231.792 153 215.5V215.5Z" fill="#2F3241" fill-opacity="0.5"/>
<path d="M190.058 221.162C192.506 221.162 194.468 219.506 194.468 216.788C194.468 214.16 192.776 212.522 190.472 212.522C189.248 212.522 188.366 212.918 187.844 213.404V209.48H193.784V208.13H186.548V215.024H187.124C187.808 214.25 188.672 213.782 190.166 213.782C191.804 213.782 192.866 214.97 192.866 216.788C192.866 218.732 191.786 219.902 190.04 219.902C188.078 219.902 187.52 218.93 187.268 217.526H185.774C185.954 219.632 187.286 221.162 190.058 221.162ZM201.669 219.866C199.527 219.866 198.159 218.174 198.159 214.916V214.196C198.159 211.028 199.455 209.228 201.633 209.228C203.811 209.228 205.071 211.172 205.071 214.16V214.88C205.071 218.138 203.919 219.866 201.669 219.866ZM201.669 221.162C204.837 221.162 206.655 218.642 206.655 214.898V214.178C206.655 210.506 204.801 207.968 201.633 207.968C198.483 207.968 196.557 210.416 196.557 214.214V214.934C196.557 218.678 198.591 221.162 201.669 221.162ZM213.921 219.866C211.779 219.866 210.411 218.174 210.411 214.916V214.196C210.411 211.028 211.707 209.228 213.885 209.228C216.063 209.228 217.323 211.172 217.323 214.16V214.88C217.323 218.138 216.171 219.866 213.921 219.866ZM213.921 221.162C217.089 221.162 218.907 218.642 218.907 214.898V214.178C218.907 210.506 217.053 207.968 213.885 207.968C210.735 207.968 208.809 210.416 208.809 214.214V214.934C208.809 218.678 210.843 221.162 213.921 221.162ZM226.172 219.866C224.03 219.866 222.662 218.174 222.662 214.916V214.196C222.662 211.028 223.958 209.228 226.136 209.228C228.314 209.228 229.574 211.172 229.574 214.16V214.88C229.574 218.138 228.422 219.866 226.172 219.866ZM226.172 221.162C229.34 221.162 231.158 218.642 231.158 214.898V214.178C231.158 210.506 229.304 207.968 226.136 207.968C222.986 207.968 221.06 210.416 221.06 214.214V214.934C221.06 218.678 223.094 221.162 226.172 221.162Z" fill="white"/>
<line x1="351.5" y1="199.5" x2="351.5" y2="231.5" stroke="#34384C"/>
<g clip-path="url(#clip1_248_596)">
<circle cx="379" cy="215.5" r="12" fill="white"/>
<path fill-rule="evenodd" clip-rule="evenodd" d="M379 227.5C372.372 227.5 367 222.128 367 215.5C367 208.872 372.372 203.5 379 203.5C385.628 203.5 391 208.872 391 215.5C391 222.128 385.628 227.5 379 227.5ZM383.875 217.865C383.875 215.973 382.693 214.904 379.928 214.238V210.909C380.783 211.084 381.601 211.452 382.401 212.03L383.42 210.384C382.417 209.648 381.237 209.189 380 209.051V208H378.418V209.016C376.144 209.192 374.598 210.488 374.598 212.381C374.598 214.361 375.835 215.324 378.491 215.99V219.425C377.308 219.25 376.326 218.724 375.289 217.918L374.125 219.513C375.371 220.472 376.856 221.072 378.418 221.248V223H380V221.265C382.31 221.073 383.875 219.793 383.875 217.865ZM378.49 213.87C377.09 213.467 376.745 212.994 376.745 212.258C376.745 211.488 377.345 210.874 378.491 210.786L378.49 213.87ZM381.729 217.988C381.729 218.829 381.074 219.407 379.928 219.495V216.323C381.347 216.727 381.729 217.2 381.729 217.989V217.988Z" fill="#1E68F6"/>
</g>
<path d="M405.12 222.216C407.604 222.216 409.782 220.524 409.782 217.68V209.598H407.586V217.59C407.586 219.354 406.416 220.128 405.12 220.128C403.806 220.128 402.636 219.354 402.636 217.59V209.598H400.44V217.68C400.44 220.524 402.618 222.216 405.12 222.216ZM416.526 222.216C418.956 222.216 420.846 220.704 420.846 218.436C420.846 216.456 419.352 215.448 417.408 214.908L415.932 214.476C414.51 214.098 414.402 213.378 414.402 213.036C414.402 212.064 415.284 211.344 416.346 211.344C417.498 211.344 418.272 212.082 418.272 213.108H420.45C420.45 210.786 418.668 209.382 416.4 209.382C414.114 209.382 412.188 210.876 412.188 213.072C412.188 214.152 412.656 215.754 415.32 216.438L416.868 216.87C417.912 217.158 418.65 217.662 418.65 218.526C418.65 219.498 417.84 220.272 416.58 220.272C415.212 220.272 414.294 219.39 414.276 218.418H412.098C412.098 220.524 413.88 222.216 416.526 222.216ZM423.225 209.598V222H428.085C431.631 222 433.701 219.336 433.701 215.826C433.701 212.298 431.631 209.598 428.085 209.598H423.225ZM425.421 220.038V211.56H428.085C430.335 211.56 431.487 213.504 431.487 215.826C431.487 218.13 430.335 220.038 428.085 220.038H425.421Z" fill="white"/>
<path d="M446.534 211.955C446.777 211.707 447.158 211.684 447.427 211.887L447.504 211.955L453 217.561L458.495 211.955C458.739 211.707 459.12 211.684 459.389 211.887L459.465 211.955C459.709 212.203 459.731 212.592 459.532 212.866L459.465 212.944L453.485 219.045C453.241 219.293 452.86 219.316 452.592 219.113L452.515 219.045L446.534 212.944C446.266 212.671 446.266 212.228 446.534 211.955Z" fill="white"/>
<path d="M182.5 187H465.5V185H182.5V187ZM465.5 244H182.5V246H465.5V244ZM182.5 244C166.76 244 154 231.24 154 215.5H152C152 232.345 165.655 246 182.5 246V244ZM494 215.5C494 231.24 481.24 244 465.5 244V246C482.345 246 496 232.345 496 215.5H494ZM465.5 187C481.24 187 494 199.76 494 215.5H496C496 198.655 482.345 185 465.5 185V187ZM182.5 185C165.655 185 152 198.655 152 215.5H154C154 199.76 166.76 187 182.5 187V185Z" fill="#34384C"/>
<path d="M366.138 138.162C369.45 138.162 371.016 136.236 371.016 133.104V125.13H369.45V132.888C369.45 136.038 368.226 136.866 366.174 136.866C364.032 136.866 363.078 135.822 363.078 133.122V125.13H361.512V133.302C361.512 136.434 363.186 138.162 366.138 138.162ZM378.311 138.162C380.867 138.162 382.757 136.524 382.757 134.364C382.757 131.934 381.245 131.07 378.383 130.62C375.755 130.224 375.287 129.576 375.287 128.316C375.287 127.11 376.205 126.228 377.969 126.228C379.751 126.228 380.687 126.894 380.993 128.514H382.397C382.145 126.228 380.543 124.968 377.969 124.968C375.539 124.968 373.829 126.48 373.829 128.46C373.829 130.746 375.431 131.592 378.131 132.006C380.579 132.402 381.245 133.014 381.245 134.472C381.245 135.93 379.967 136.902 378.311 136.902C375.719 136.902 375.107 135.606 374.909 134.076H373.397C373.631 136.272 374.873 138.162 378.311 138.162ZM387.004 136.722V126.39H388.75C392.296 126.39 393.736 128.478 393.736 131.448V131.592C393.736 134.742 392.08 136.722 388.768 136.722H387.004ZM385.438 138H388.804C393.304 138 395.356 135.174 395.356 131.61V131.448C395.356 127.866 393.268 125.13 388.84 125.13H385.438V138Z" fill="#A5ADCF"/>
<path d="M257.881 139.22C261.181 139.22 263.361 137.28 263.361 134.24C263.361 131.2 261.581 129.42 258.981 129.42C257.361 129.42 256.361 130.06 255.801 130.74L255.861 127.16H262.501V124.7H253.441L253.241 132.84H255.041C255.621 132.18 256.441 131.7 257.781 131.7C259.221 131.7 260.101 132.66 260.101 134.2C260.101 135.72 259.321 136.74 257.861 136.74C256.221 136.74 255.741 135.94 255.561 134.74H252.581C252.721 137.3 254.361 139.22 257.881 139.22ZM270.506 139.22C273.986 139.22 276.046 137.52 276.046 134.84C276.046 133.02 274.926 131.84 273.266 131.48C274.686 130.98 275.626 129.98 275.626 128.38C275.626 126.14 273.786 124.5 270.646 124.5C267.386 124.5 265.526 126.42 265.366 129.04H268.226C268.386 127.7 269.226 126.88 270.586 126.88C271.906 126.88 272.566 127.64 272.566 128.66C272.566 129.88 271.886 130.56 270.386 130.56H269.346V132.72H270.466C272.006 132.72 272.766 133.42 272.766 134.78C272.766 136.06 272.006 136.84 270.386 136.84C268.666 136.84 267.926 135.84 267.806 134.46H264.886C265.006 137.36 266.866 139.22 270.506 139.22ZM278.771 141.46L281.491 136.8L278.771 135.78L277.011 140.72L278.771 141.46ZM282.455 139H293.255V136.54H287.695L290.395 133.9C292.055 132.3 293.155 130.74 293.155 128.84C293.155 126.26 291.355 124.5 288.195 124.5C284.995 124.5 282.995 126.3 282.835 129.6H285.775C285.995 127.72 286.795 126.98 288.055 126.98C289.295 126.98 289.955 127.74 289.955 128.92C289.955 130.22 289.075 131.48 287.695 132.94L282.455 138.48V139ZM300.753 139.22C304.153 139.22 306.253 137.24 306.253 134.3C306.253 131.42 304.233 129.66 301.533 129.66C299.813 129.66 298.733 130.38 298.073 131.44C298.153 128.5 299.253 126.94 301.033 126.94C302.273 126.94 302.753 127.52 302.953 128.46H305.953C305.633 125.84 303.833 124.5 300.993 124.5C297.493 124.5 294.873 127.2 294.873 132.04V132.4C294.873 136.3 296.433 139.22 300.753 139.22ZM300.713 136.88C299.273 136.88 298.273 135.88 298.273 134.24C298.273 132.82 299.273 131.8 300.713 131.8C302.173 131.8 303.073 132.84 303.073 134.34C303.073 135.84 302.133 136.88 300.713 136.88ZM314.161 136.68C312.161 136.68 311.101 135.18 311.101 132.18V131.5C311.101 128.54 312.121 127 314.121 127C316.101 127 317.101 128.62 317.101 131.5V132.14C317.101 135.14 316.181 136.68 314.161 136.68ZM314.081 139.22C317.941 139.22 320.321 136.5 320.321 132.12V131.46C320.321 127.02 317.781 124.5 314.101 124.5C310.421 124.5 307.861 127.12 307.861 131.52V132.2C307.861 136.58 310.281 139.22 314.081 139.22ZM323.143 139.18C324.163 139.18 324.943 138.4 324.943 137.42C324.943 136.46 324.163 135.68 323.143 135.68C322.143 135.68 321.363 136.46 321.363 137.42C321.363 138.4 322.143 139.18 323.143 139.18ZM326.224 139H337.024V136.54H331.464L334.164 133.9C335.824 132.3 336.924 130.74 336.924 128.84C336.924 126.26 335.124 124.5 331.964 124.5C328.764 124.5 326.764 126.3 326.604 129.6H329.544C329.764 127.72 330.564 126.98 331.824 126.98C333.064 126.98 333.724 127.74 333.724 128.92C333.724 130.22 332.844 131.48 331.464 132.94L326.224 138.48V139ZM344.942 136.68C342.942 136.68 341.882 135.18 341.882 132.18V131.5C341.882 128.54 342.902 127 344.902 127C346.882 127 347.882 128.62 347.882 131.5V132.14C347.882 135.14 346.962 136.68 344.942 136.68ZM344.862 139.22C348.722 139.22 351.102 136.5 351.102 132.12V131.46C351.102 127.02 348.562 124.5 344.882 124.5C341.202 124.5 338.642 127.12 338.642 131.52V132.2C338.642 136.58 341.062 139.22 344.862 139.22Z" fill="white"/>
<path d="M268.088 104H269.48V92.56H268.184L265.528 94.48V95.776L268.088 93.936V104ZM277.065 104H280.985C283.273 104 284.745 102.96 284.745 100.8V100.736C284.745 99.248 284.121 98.4 282.457 98C283.769 97.552 284.185 96.624 284.185 95.584V95.52C284.185 93.264 282.633 92.56 280.505 92.56H277.065V104ZM278.425 102.912V98.64H280.761C282.601 98.64 283.385 99.312 283.385 100.72V100.784C283.385 102.176 282.617 102.912 280.953 102.912H278.425ZM278.425 97.552V93.648H280.473C282.073 93.648 282.825 94.176 282.825 95.472V95.536C282.825 96.944 282.185 97.552 280.505 97.552H278.425ZM289.136 104H290.528V93.696H293.856V92.56H285.808V93.696H289.136V104ZM299.974 104.144C302.534 104.144 304.358 102.848 304.758 100.208H303.462C303.174 102.064 301.878 103.008 300.006 103.008C297.542 103.008 296.07 101.248 296.07 98.336V98.208C296.07 95.328 297.654 93.488 300.022 93.488C301.974 93.488 302.982 94.384 303.27 96.128H304.646C304.406 93.648 302.39 92.384 300.006 92.384C296.902 92.384 294.63 94.832 294.63 98.224V98.352C294.63 101.872 296.662 104.144 299.974 104.144ZM311.048 104H312.376V95.632H311.048V104ZM311.688 93.888C312.168 93.888 312.568 93.488 312.568 93.008C312.568 92.528 312.168 92.128 311.688 92.128C311.208 92.128 310.808 92.528 310.808 93.008C310.808 93.488 311.208 93.888 311.688 93.888ZM317.686 104.144C319.718 104.144 320.758 103.12 320.758 101.6C320.758 99.824 319.542 99.44 317.814 99.12C316.278 98.848 315.862 98.544 315.862 97.792C315.862 97.072 316.486 96.592 317.446 96.592C318.502 96.592 319.014 96.992 319.206 97.904H320.486C320.262 96.096 318.966 95.488 317.462 95.488C316.15 95.488 314.63 96.288 314.63 97.84C314.63 99.296 315.366 99.904 317.542 100.304C318.838 100.544 319.494 100.832 319.494 101.712C319.494 102.608 318.934 103.04 317.67 103.04C316.326 103.04 315.798 102.416 315.702 101.424H314.406C314.486 103.136 315.686 104.144 317.686 104.144ZM327.016 104H328.344V99.408C328.344 97.344 329.416 96.816 331.096 96.736V95.488C329.592 95.536 328.872 96.192 328.344 97.136V95.632H327.016V104ZM336.285 103.04C334.589 103.04 333.549 101.792 333.549 99.888V99.76C333.549 97.84 334.605 96.592 336.285 96.592C337.949 96.592 339.021 97.84 339.021 99.776V99.888C339.021 101.776 337.965 103.04 336.285 103.04ZM336.269 104.144C338.653 104.144 340.397 102.4 340.397 99.872V99.744C340.397 97.232 338.653 95.488 336.285 95.488C333.917 95.488 332.173 97.248 332.173 99.76V99.888C332.173 102.336 333.885 104.144 336.269 104.144ZM345.285 104.144C346.629 104.144 347.557 103.456 347.941 102.672V104H349.269V95.632H347.941V100.704C347.941 102.208 346.821 102.992 345.637 102.992C344.325 102.992 343.701 102.336 343.701 100.864V95.632H342.373V100.928C342.373 103.232 343.621 104.144 345.285 104.144ZM355.297 107.056C357.633 107.056 359.281 105.872 359.297 103.44V95.632H357.969V96.976C357.489 96.16 356.625 95.488 355.233 95.488C352.929 95.488 351.329 97.376 351.329 99.648V99.76C351.329 102.064 352.945 103.728 355.137 103.728C356.353 103.728 357.489 102.96 357.969 102.144V103.36C357.969 105.152 356.929 105.936 355.281 105.936C353.857 105.936 353.057 105.44 352.865 104.48H351.505C351.729 105.888 352.817 107.056 355.297 107.056ZM355.281 102.624C353.873 102.624 352.705 101.536 352.705 99.712V99.584C352.705 97.824 353.697 96.592 355.361 96.592C356.993 96.592 358.017 97.68 358.017 99.552V99.664C358.017 101.536 356.833 102.624 355.281 102.624ZM361.985 104H363.313V98.928C363.313 97.424 364.417 96.64 365.649 96.64C366.993 96.64 367.617 97.296 367.617 98.768V104H368.945V98.864C368.945 96.432 367.729 95.488 366.001 95.488C364.625 95.488 363.697 96.176 363.313 96.96V91.632H361.985V104ZM371.579 104H372.923V91.632H371.579V104ZM376.393 106.912H377.737L382.361 95.632H381.001L378.681 101.632L376.121 95.632H374.697L377.977 103.136L376.393 106.912Z" fill="white"/>
<path d="M415.302 51.198C418.344 51.198 420.216 49.38 420.216 47.094C420.216 44.43 418.614 43.584 415.5 43.188C413.52 42.9 413.106 42.468 413.106 41.55C413.106 40.686 413.754 40.092 415.032 40.092C416.31 40.092 416.994 40.632 417.174 41.802H419.856C419.622 39.246 417.93 37.95 415.032 37.95C412.188 37.95 410.352 39.588 410.352 41.784C410.352 44.268 411.702 45.258 414.996 45.69C416.886 45.978 417.426 46.338 417.426 47.364C417.426 48.372 416.58 49.074 415.302 49.074C413.394 49.074 412.908 48.12 412.782 46.968H409.992C410.154 49.542 411.774 51.198 415.302 51.198ZM426.42 51.198C428.994 51.198 430.614 50.064 430.92 48.03H428.454C428.292 48.822 427.698 49.344 426.492 49.344C425.07 49.344 424.224 48.444 424.152 46.878H430.938V46.158C430.938 42.792 428.778 41.37 426.348 41.37C423.612 41.37 421.506 43.296 421.506 46.266V46.41C421.506 49.416 423.576 51.198 426.42 51.198ZM424.188 45.276C424.386 43.944 425.178 43.17 426.348 43.17C427.59 43.17 428.31 43.854 428.4 45.276H424.188ZM432.718 51H435.31V37.32H432.718V51ZM437.763 51H440.355V37.32H437.763V51Z" fill="#5D6588"/>
<path d="M204.386 51H209.678C212.648 51 214.196 49.758 214.196 47.4V47.328C214.196 45.6 213.296 44.646 211.622 44.304C213.062 43.89 213.71 42.9 213.71 41.55V41.478C213.71 39.282 212.252 38.13 209.444 38.13H204.386V51ZM207.23 48.984V45.294H209.084C210.668 45.294 211.316 45.906 211.316 47.094V47.166C211.316 48.336 210.668 48.984 209.228 48.984H207.23ZM207.23 43.422V40.128H208.958C210.326 40.128 210.938 40.614 210.938 41.694V41.766C210.938 42.918 210.38 43.422 208.976 43.422H207.23ZM219.149 51.198C220.697 51.198 221.651 50.478 222.137 49.524V51H224.729V41.586H222.137V47.112C222.137 48.498 221.273 49.182 220.175 49.182C219.059 49.182 218.537 48.57 218.537 47.292V41.586H215.945V47.652C215.945 50.118 217.313 51.198 219.149 51.198ZM228.227 54.204H230.747L235.841 41.586H233.339L231.233 47.238L228.947 41.586H226.139L229.883 50.046L228.227 54.204Z" fill="#1A82FF"/>
<line x1="324.5" y1="27" x2="324.5" y2="59" stroke="#34384C"/>
<defs>
<filter id="filter0_i_248_596" x="163.778" y="81.3364" width="51.5215" height="222.645" filterUnits="userSpaceOnUse" color-interpolation-filters="sRGB">
<feFlood flood-opacity="0" result="BackgroundImageFix"/>
<feBlend mode="normal" in="SourceGraphic" in2="BackgroundImageFix" result="shape"/>
<feColorMatrix in="SourceAlpha" type="matrix" values="0 0 0 0 0 0 0 0 0 0 0 0 0 0 0 0 0 0 127 0" result="hardAlpha"/>
<feOffset dx="2" dy="1"/>
<feGaussianBlur stdDeviation="1"/>
<feComposite in2="hardAlpha" operator="arithmetic" k2="-1" k3="1"/>
<feColorMatrix type="matrix" values="0 0 0 0 0 0 0 0 0 0 0 0 0 0 0 0 0 0 0.15 0"/>
<feBlend mode="normal" in2="shape" result="effect1_innerShadow_248_596"/>
</filter>
<filter id="filter1_b_248_596" x="57" y="-64" width="534" height="577" filterUnits="userSpaceOnUse" color-interpolation-filters="sRGB">
<feFlood flood-opacity="0" result="BackgroundImageFix"/>
<feGaussianBlur in="BackgroundImage" stdDeviation="32"/>
<feComposite in2="SourceAlpha" operator="in" result="effect1_backgroundBlur_248_596"/>
<feBlend mode="normal" in="SourceGraphic" in2="effect1_backgroundBlur_248_596" result="shape"/>
</filter>
<linearGradient id="paint0_linear_248_596" x1="492.906" y1="461.464" x2="492.906" y2="897.464" gradientUnits="userSpaceOnUse">
<stop stop-color="#083EFD"/>
<stop offset="1" stop-opacity="0"/>
</linearGradient>
<linearGradient id="paint1_linear_248_596" x1="492.906" y1="461.464" x2="492.906" y2="897.464" gradientUnits="userSpaceOnUse">
<stop stop-color="#E42C64"/>
<stop offset="1" stop-color="#614AD3"/>
</linearGradient>
<linearGradient id="paint2_linear_248_596" x1="179.868" y1="153.072" x2="179.868" y2="220.072" gradientUnits="userSpaceOnUse">
<stop stop-color="#F9AA4B"/>
<stop offset="1" stop-color="#E8B579"/>
</linearGradient>
<linearGradient id="paint3_linear_248_596" x1="286" y1="190.194" x2="538.259" y2="437.516" gradientUnits="userSpaceOnUse">
<stop stop-color="#25292C" stop-opacity="0"/>
<stop offset="1" stop-color="#2B2C31"/>
</linearGradient>
<linearGradient id="paint4_linear_248_596" x1="502.98" y1="369.076" x2="190.762" y2="496.707" gradientUnits="userSpaceOnUse">
<stop stop-color="#246CF9"/>
<stop offset="0.0001" stop-color="#1E68F6"/>
<stop offset="1" stop-color="#0047D0"/>
</linearGradient>
<linearGradient id="paint5_linear_248_596" x1="380.994" y1="286.494" x2="380.994" y2="310.498" gradientUnits="userSpaceOnUse">
<stop stop-color="#F9AA4B"/>
<stop offset="1" stop-color="#F7931A"/>
</linearGradient>
<clipPath id="clip0_248_596">
<rect width="24" height="24" fill="white" transform="translate(369 286.5)"/>
</clipPath>
<clipPath id="clip1_248_596">
<rect width="24" height="24" fill="white" transform="translate(367 203.5)"/>
</clipPath>
</defs>
</svg>
