<svg xmlns="http://www.w3.org/2000/svg" xmlns:xlink="http://www.w3.org/1999/xlink" width="793.758" height="253.834" viewBox="0 0 793.758 253.834"><defs><linearGradient id="a" x1="0.5" x2="0.5" y2="1" gradientUnits="objectBoundingBox"><stop offset="0" stop-color="#ea5607" stop-opacity="0.169"/><stop offset="1" stop-color="#ea5607" stop-opacity="0"/></linearGradient></defs><g transform="translate(0.486 3.834)"><path d="M8276-22254.066l6,4,3,5h6l7,11v-11l11,4,2-13,3,4,3-7,5,7,4-4,4,6,3,3,4,2,4-2,3,11h4l2,11,3,6,2,6,5,3,7-3,5-21,3-2,2,2,3-6,6,10,3-4,2-22,4-3,4,5,4-2,2,2,3-3,8,3,8-9,4,2,7-2,3-26,2,6,3,13,4-5,2,12,5,4,4-2h5l3-2,2,2,3-2,4,2h4l4,9,4,2,5,10,3-7,3,4h5l5-13,6,13,1,3,2-3,3-4,2,4,4-16,5-8,3,17,3-2,2-9,3-2,4,2h5l7-6h4l2-5,4,2,5-2,3,5,4-3,5,3,3-3,3,7,3-2,3,11,2-7,6,2,6,7,5,12,6,6,2-6h6l2,6,4-16,7-2,3,9,3-7,5,10,3,4,3-4,4,8,1,17,4-11h7l3,6,5,1,4-1,2,6h6l2,29,3,15,3-66h3l2,19,5-2h6l3-7,3,4h5l3,7h3l2,3,4-2,2,3,3-1,6,5,2,20,6,14,5-22,2,2,4-21h3l4,11,3-9,3,12,3-15,5-5,3,20,3-14,2,23,3-23,2,25,3,12,4-10,3-2,2-25,2,11h4l5,14,5-2,3-20h5l4,4,5-7h8l2,25h3l4-22,1,22,4,2,2-25,5,1,4-3,5-6,2,5,4-5,2,33,6-39h3l2,33,3-33,3,19,3-13,2,17h4l2-21,5,37,3-16,3,10,2-7,6-7,3,4,3-23,5-8,3,2,3-6,3,2,5,41,3-2,3,4,2-18,4-1,1,25,3,9h4l8,45,2,51,8-125,2,33,4,5,2,56,3-6,2-35,5-2h5l5-3h2l3-25,3-7,3,5,4-31,4-7,5-30,8,16v199H8276Z" transform="translate(-8275.999 22287.066)" fill="url(#a)"/><path d="M8276-22253.637l5.53,3.08,3.687,5.43h5.628l6.813,11.039v-11.039l10.887,3.83,2.9-12.34,2.989,3.08,2.34-6.186,4.862,6.186,4.2-3.08,4.08,6.068,3.273,2.441,3.453,1.793,4.446-1.793,3.362,11.039h3.335l1.942,11.027,3.311,6.35,1.7,6.119,5.382,2.27,6.431-2.27,5.626-21.145,2.53-2.352,2.1,2.352,3.519-6.012,5.924,9.76,2.451-3.748,1.979-21.9,4.276-3.105,3.92,4.693,3.806-1.588,2.534,1.588,2.508-2.857,8.646,2.857,7.639-8.871,4.346,2.207,6.216-2.207L8437.8-22287l2.555,6.215,2.353,13.066,4.3-5.5,2.474,12.293,4.454,4.178,4.47-1.971h4.729l2.963-2.207,2.261,2.207,2.383-2.207,4.7,2.207h3.454l3.966,8.156,3.864,2.988,5.218,9.82,3.441-7.379,2.434,3.83h5.01l5.279-12.34,5.445,12.34,1.359,3.549,2.29-3.549,3.022-3.83,1.875,3.83,4.055-15.445,5-8.033,2.548,17.207,3.743-2.988,1.77-8.156,2.935-2.207,4.06,2.207h4.955l6.649-6.062h3.817l2.36-5.014,4.288,2.072,4.465-2.072,2.859,5.014,4.882-2.941,4.57,2.941,3.427-2.941,2.493,6.8,3.238-1.729,2.648,10.6,2.33-6.664,5.521,1.971,5.866,6.186,4.948,12.809,6.156,6.012,2.3-6.012h6.119l2.307,6.012,3.5-15.832,6.794-2.988,3.519,9.26,2.8-6.271,4.811,9.82,3.4,3.348,3.082-3.348,3.246,7.832,1.923,16.383,3.193-10.826h6.908l3.67,5.809,4.9,1.857,3.5-1.857,2.676,6.938h5.4l2.407,28.24,2.756,15,2.73-66.029h3.071l2.134,19.25,4.991-1.543h6.191l2.8-7.666,2.882,4.35h5.541l2.512,6.477h3.007l2.319,3.551,3.652-1.631,2.64,3.037,2.967-1.406,5.2,5.014,2.722,19.658,5.309,14.736,5.017-22.916,2.881,2.906,3.046-21.029h3.4l4.417,10.146,2.74-8.516,2.918,11.969,2.992-15.52,5.446-5.018,2.1,20.537,3.146-13.6,2.512,22.357,2.757-22.357,2.534,24.057,2.768,12.443,3.324-10.2,3.021-2.246,2.621-24.057,2.074,10.146h3.7l4.913,13.91,5.326-1.7,2.327-19.32h5.046l4.582,3.607,4.827-6.645h7.792l2.358,24.057h3.21l3.173-21.02,1.907,21.02,3.445,2.246,2.343-24.672,5.073,1.406,3.684-3.037,5.012-6.937,2.508,5.018,3.693-5.018,1.9,33.24,5.89-39.049h3.153l2.348,33.775,2.911-33.775,2.2,19.391,3.07-13.582,2.779,17.084h3.414l1.883-20.852,4.858,37.008,3.381-16.156,2.61,10.883,2.779-7.43,5.414-6.955,3.47,3.5,2.729-22.893,4.771-7.377,3.109,1.82,3.494-5.943,2.767,1.459,4.492,40.91,3.569-1.637,2.686,4.543,2.362-17.992,3.3-1.406,1.875,24.672,2.442,8.889h4.052l7.929,44.887,2.421,51.068,8.054-124.5,2.093,32.459,3.261,5.191,2.492,56.275,3.33-6.326,1.877-34.6,4.454-2.447h4.937l5.645-2.592h2.069l2.27-24.924,3.258-7.324,2.613,5.518,4.249-31.535,4.324-7.045,5-29.6,8.208,16.055" transform="translate(-8275.999 22287.066)" fill="none" stroke="#ea5607" stroke-width="2"/></g></svg>