<svg width="137" height="38" viewBox="0 0 137 38" fill="none" xmlns="http://www.w3.org/2000/svg">
<path d="M3.52082 34.5794L0 32.4163V37C0 37.5523 0.447715 38 1 38H136C136.552 38 137 37.5523 137 37V19.6204L134.83 24.42C134.737 24.6264 134.576 24.795 134.374 24.8982L131.502 26.369C130.976 26.6382 130.332 26.3954 130.116 25.846L127.067 18.1207C126.917 17.7388 126.548 17.4878 126.137 17.4878H123.817C123.395 17.4878 123.019 17.2239 122.876 16.8279L121.367 12.6546C121.11 11.9453 120.191 11.7646 119.685 12.324L118.784 13.3197C118.595 13.5294 118.325 13.649 118.043 13.649H111.428C111.203 13.649 110.985 13.5731 110.809 13.4337L108.736 11.7963C108.262 11.4219 107.567 11.5499 107.257 12.0685L103.816 17.8339C103.386 18.5539 102.315 18.4572 102.021 17.6719L98.2511 7.59697C98.1675 7.37371 98.007 7.18763 97.7984 7.07229L93.7918 4.8569C93.5982 4.74989 93.3747 4.71005 93.1561 4.74362L88.5309 5.45401C88.1666 5.50997 87.801 5.36095 87.5796 5.06623L84.5654 1.05398C84.1678 0.5246 83.3747 0.520892 82.972 1.04653L79.0628 6.15021C78.6479 6.69189 77.8243 6.66813 77.4413 6.10342L76.7583 5.09642C76.3549 4.5016 75.4745 4.51385 75.0878 5.11967L72.2251 9.60458C71.8073 10.259 70.8357 10.2085 70.488 9.51434L66.6998 1.95042C66.3167 1.18547 65.2123 1.22355 64.8828 2.01307L61.3512 10.475C61.1958 10.8473 60.8318 11.0898 60.4284 11.0898H58.5068C58.1105 11.0898 57.7516 11.3238 57.5917 11.6864L51.9219 24.548C51.8665 24.6738 51.7857 24.7869 51.6846 24.88L45.0665 30.9789C44.7022 31.3147 44.1469 31.333 43.7612 31.022L41.1325 28.9023C40.8799 28.6986 40.5442 28.6302 40.232 28.7187L35.3025 30.1165C34.9407 30.2191 34.667 30.516 34.5942 30.885L33.9463 34.1691C33.8538 34.6377 33.4428 34.9755 32.9652 34.9755H29.1521C28.8624 34.9755 28.5869 34.8499 28.3969 34.6311L23.8609 29.4058C23.475 28.9612 22.7905 28.9446 22.3834 29.3697L16.8315 35.1683C16.4735 35.5422 15.8895 35.5811 15.4851 35.2581L9.92737 30.8193C9.5416 30.5112 8.98869 30.5307 8.62563 30.8653L4.72197 34.4627C4.39282 34.7661 3.9022 34.8137 3.52082 34.5794Z" fill="url(#paint0_linear_248_1638)"/>
<path d="M0 32.4163L3.52082 34.5794C3.9022 34.8137 4.39282 34.7661 4.72197 34.4627L8.62563 30.8653C8.98869 30.5307 9.5416 30.5112 9.92737 30.8193L15.4851 35.2581C15.8895 35.5811 16.4735 35.5422 16.8315 35.1683L22.3834 29.3697C22.7905 28.9445 23.475 28.9612 23.8609 29.4058L28.3969 34.6311C28.5869 34.8498 28.8623 34.9755 29.1521 34.9755H32.9652C33.4428 34.9755 33.8538 34.6377 33.9463 34.1691L34.5942 30.885C34.667 30.516 34.9407 30.2191 35.3025 30.1165L40.232 28.7187C40.5442 28.6302 40.8799 28.6986 41.1325 28.9023L43.7612 31.022C44.1469 31.333 44.7022 31.3147 45.0665 30.9789L51.6846 24.88C51.7857 24.7869 51.8665 24.6738 51.9219 24.548L57.5917 11.6864C57.7516 11.3238 58.1105 11.0898 58.5068 11.0898H60.4284C60.8318 11.0898 61.1958 10.8473 61.3512 10.475L64.8828 2.01307C65.2123 1.22355 66.3167 1.18547 66.6998 1.95042L70.488 9.51434C70.8357 10.2085 71.8073 10.259 72.2251 9.60458L75.0878 5.11967C75.4745 4.51385 76.3549 4.5016 76.7583 5.09642L77.4413 6.10342C77.8243 6.66813 78.6479 6.69189 79.0628 6.15021L82.972 1.04653C83.3747 0.520892 84.1678 0.5246 84.5654 1.05398L87.5796 5.06623C87.801 5.36095 88.1666 5.50997 88.5309 5.45401L93.1561 4.74362C93.3747 4.71005 93.5982 4.74989 93.7918 4.8569L97.7984 7.07229C98.007 7.18763 98.1675 7.37371 98.2511 7.59696L102.021 17.6719C102.315 18.4572 103.386 18.5539 103.816 17.8339L107.257 12.0685C107.567 11.5499 108.262 11.4219 108.736 11.7963L110.809 13.4337C110.985 13.5731 111.203 13.649 111.428 13.649H118.043C118.325 13.649 118.595 13.5293 118.784 13.3197L119.685 12.324C120.191 11.7646 121.11 11.9453 121.367 12.6546L122.876 16.8279C123.019 17.2239 123.395 17.4878 123.817 17.4878H126.137C126.548 17.4878 126.917 17.7388 127.067 18.1207L130.116 25.846C130.332 26.3954 130.976 26.6382 131.502 26.369L134.301 24.936C134.546 24.8101 134.729 24.5883 134.806 24.323L136.185 19.5429" stroke="#11CABE" stroke-linecap="round"/>
<defs>
<linearGradient id="paint0_linear_248_1638" x1="68.5" y1="0" x2="68.5" y2="38" gradientUnits="userSpaceOnUse">
<stop offset="0.260417" stop-color="#BCFFE9" stop-opacity="0.4"/>
<stop offset="1" stop-opacity="0"/>
</linearGradient>
</defs>
</svg>
