<svg width="24" height="24" viewBox="0 0 24 24" fill="none" xmlns="http://www.w3.org/2000/svg">
<path d="M12.0001 8.87596C10.2798 8.87596 8.87589 10.2799 8.87589 12.0002C8.87589 13.7205 10.2798 15.1244 12.0001 15.1244C13.7204 15.1244 15.1243 13.7205 15.1243 12.0002C15.1243 10.2799 13.7204 8.87596 12.0001 8.87596ZM21.3704 12.0002C21.3704 10.7064 21.3821 9.42439 21.3095 8.13299C21.2368 6.63299 20.8946 5.30174 19.7978 4.20486C18.6985 3.10564 17.3696 2.7658 15.8696 2.69314C14.5759 2.62049 13.2939 2.63221 12.0025 2.63221C10.7087 2.63221 9.42667 2.62049 8.13527 2.69314C6.63527 2.7658 5.30402 3.10799 4.20714 4.20486C3.10792 5.30408 2.76808 6.63299 2.69542 8.13299C2.62277 9.42674 2.63449 10.7088 2.63449 12.0002C2.63449 13.2916 2.62277 14.576 2.69542 15.8674C2.76808 17.3674 3.11027 18.6986 4.20714 19.7955C5.30636 20.8947 6.63527 21.2345 8.13527 21.3072C9.42902 21.3799 10.711 21.3681 12.0025 21.3681C13.2962 21.3681 14.5782 21.3799 15.8696 21.3072C17.3696 21.2345 18.7009 20.8924 19.7978 19.7955C20.897 18.6963 21.2368 17.3674 21.3095 15.8674C21.3845 14.576 21.3704 13.2939 21.3704 12.0002ZM12.0001 16.8072C9.33995 16.8072 7.19308 14.6603 7.19308 12.0002C7.19308 9.34002 9.33995 7.19314 12.0001 7.19314C14.6603 7.19314 16.8071 9.34002 16.8071 12.0002C16.8071 14.6603 14.6603 16.8072 12.0001 16.8072ZM17.004 8.11892C16.3829 8.11892 15.8814 7.61736 15.8814 6.99627C15.8814 6.37517 16.3829 5.87361 17.004 5.87361C17.6251 5.87361 18.1267 6.37517 18.1267 6.99627C18.1269 7.14375 18.0979 7.28982 18.0416 7.42611C17.9852 7.5624 17.9026 7.68623 17.7983 7.79052C17.694 7.8948 17.5701 7.97749 17.4339 8.03384C17.2976 8.0902 17.1515 8.11911 17.004 8.11892Z" fill="white"/>
</svg>
