<svg width="47" height="47" viewBox="0 0 47 47" fill="none" xmlns="http://www.w3.org/2000/svg">
<path d="M33.6732 44.6839C30.0804 46.4092 26.1079 47.1925 22.1292 46.96C18.1505 46.7275 14.2962 45.4869 10.9289 43.3549C7.56156 41.2229 4.79179 38.2695 2.88003 34.7724C0.968268 31.2753 -0.022671 27.3495 0.000393513 23.364C0.023458 19.3785 1.05977 15.4644 3.01188 11.9897C4.96398 8.51499 7.76775 5.59383 11.1595 3.50093C14.5513 1.40803 18.4197 0.212139 22.4008 0.0257206C26.382 -0.160698 30.3451 0.668479 33.9177 2.43528L28.8343 12.7138C27.005 11.8091 24.9757 11.3846 22.9372 11.48C20.8986 11.5755 18.9178 12.1878 17.1811 13.2595C15.4443 14.3312 14.0087 15.8269 13.0091 17.6062C12.0095 19.3854 11.4789 21.3896 11.4671 23.4304C11.4552 25.4711 11.9627 27.4813 12.9416 29.272C13.9205 31.0627 15.3387 32.575 17.063 33.6667C18.7872 34.7584 20.7608 35.3936 22.7981 35.5127C24.8354 35.6317 26.8695 35.2306 28.7092 34.3472L33.6732 44.6839Z" fill="url(#paint0_linear_473_1247)"/>
<ellipse cx="23.2205" cy="23.22" rx="8.1131" ry="8.1131" fill="#11CABE"/>
<defs>
<linearGradient id="paint0_linear_473_1247" x1="48.0967" y1="12.3474" x2="-1.68006" y2="16.2148" gradientUnits="userSpaceOnUse">
<stop stop-color="#246CF9"/>
<stop offset="0.0001" stop-color="#1E68F6"/>
<stop offset="1" stop-color="#0047D0"/>
</linearGradient>
</defs>
</svg>
