<svg width="91" height="91" viewBox="0 0 91 91" fill="none" xmlns="http://www.w3.org/2000/svg">
<g filter="url(#filter0_b_174_5911)">
<circle cx="45.5" cy="45.5" r="45.5" fill="#2F3241" fill-opacity="0.5"/>
</g>
<g filter="url(#filter1_d_174_5911)">
<path d="M49.033 27.6667H44.633C44.0251 27.6667 43.533 28.1588 43.533 28.7667C43.533 29.3746 44.0251 29.8667 44.633 29.8667H49.033C49.641 29.8667 50.133 29.3746 50.133 28.7667C50.133 28.1588 49.641 27.6667 49.033 27.6667Z" fill="#BD47FB"/>
<path d="M53.8003 24H36.2003C33.7744 24 31.8003 25.9742 31.8003 28.4V63.6C31.8003 66.0258 33.7744 68 36.2003 68H53.8003C56.2261 68 58.2003 66.0258 58.2003 63.6V28.4C58.2003 25.9742 56.2261 24 53.8003 24ZM56.0003 63.6C56.0003 64.8152 55.0155 65.8 53.8003 65.8H36.2003C34.9851 65.8 34.0003 64.8152 34.0003 63.6V28.4C34.0003 27.1848 34.9851 26.2 36.2003 26.2H53.8003C55.0155 26.2 56.0003 27.1848 56.0003 28.4V63.6Z" fill="#BD47FB"/>
<path d="M45.0003 64.3332C46.2153 64.3332 47.2003 63.3482 47.2003 62.1332C47.2003 60.9182 46.2153 59.9332 45.0003 59.9332C43.7853 59.9332 42.8003 60.9182 42.8003 62.1332C42.8003 63.3482 43.7853 64.3332 45.0003 64.3332Z" fill="#BD47FB"/>
<path d="M40.9663 29.8667C41.5738 29.8667 42.0663 29.3742 42.0663 28.7667C42.0663 28.1592 41.5738 27.6667 40.9663 27.6667C40.3588 27.6667 39.8663 28.1592 39.8663 28.7667C39.8663 29.3742 40.3588 29.8667 40.9663 29.8667Z" fill="#BD47FB"/>
</g>
<defs>
<filter id="filter0_b_174_5911" x="-14" y="-14" width="119" height="119" filterUnits="userSpaceOnUse" color-interpolation-filters="sRGB">
<feFlood flood-opacity="0" result="BackgroundImageFix"/>
<feGaussianBlur in="BackgroundImage" stdDeviation="7"/>
<feComposite in2="SourceAlpha" operator="in" result="effect1_backgroundBlur_174_5911"/>
<feBlend mode="normal" in="SourceGraphic" in2="effect1_backgroundBlur_174_5911" result="shape"/>
</filter>
<filter id="filter1_d_174_5911" x="19" y="20" width="52" height="52" filterUnits="userSpaceOnUse" color-interpolation-filters="sRGB">
<feFlood flood-opacity="0" result="BackgroundImageFix"/>
<feColorMatrix in="SourceAlpha" type="matrix" values="0 0 0 0 0 0 0 0 0 0 0 0 0 0 0 0 0 0 127 0" result="hardAlpha"/>
<feOffset/>
<feGaussianBlur stdDeviation="2"/>
<feColorMatrix type="matrix" values="0 0 0 0 0.604863 0 0 0 0 0.101961 0 0 0 0 1 0 0 0 1 0"/>
<feBlend mode="normal" in2="BackgroundImageFix" result="effect1_dropShadow_174_5911"/>
<feBlend mode="normal" in="SourceGraphic" in2="effect1_dropShadow_174_5911" result="shape"/>
</filter>
</defs>
</svg>
