<svg width="24" height="24" viewBox="0 0 24 24" fill="none" xmlns="http://www.w3.org/2000/svg">
<path d="M20.8275 16.7119L19.7344 15.9831V9.65625C19.7344 5.62852 16.6395 2.31061 12.7031 1.95417V0.703125C12.7031 0.314812 12.3883 0 12 0C11.6117 0 11.2969 0.314812 11.2969 0.703125V1.95417C7.36045 2.31061 4.26562 5.62852 4.26562 9.65625V15.9831L3.1725 16.7119C2.97684 16.8423 2.85938 17.0618 2.85938 17.2969V20.1094C2.85938 20.4977 3.17419 20.8125 3.5625 20.8125H8.19727C8.52731 22.6231 10.1063 24 12 24C13.8937 24 15.4727 22.6231 15.8027 20.8125H20.4375C20.8258 20.8125 21.1406 20.4977 21.1406 20.1094V17.2969C21.1406 17.0618 21.0231 16.8422 20.8275 16.7119ZM12 22.5938C10.8849 22.5938 9.94055 21.841 9.63942 20.8125H14.3606C14.0595 21.841 13.1151 22.5938 12 22.5938ZM19.7344 19.4062C19.0818 19.4062 5.03372 19.4062 4.26562 19.4062V17.6731L5.35875 16.9444C5.55436 16.814 5.67188 16.5945 5.67188 16.3594V9.65625C5.67188 6.16692 8.51067 3.32812 12 3.32812C15.4893 3.32812 18.3281 6.16692 18.3281 9.65625V16.3594C18.3281 16.5945 18.4456 16.814 18.6412 16.9444L19.7344 17.6731V19.4062Z" fill="white"/>
</svg>
