<svg width="24" height="24" viewBox="0 0 24 24" fill="none" xmlns="http://www.w3.org/2000/svg">
<path d="M12 0C18.6274 0 24 5.37257 24 12C24 18.6274 18.6274 24 12 24C5.37257 24 0 18.6274 0 12C0 5.37257 5.37257 0 12 0Z" fill="#1A82FF"/>
<path d="M16.387 16.9412C15.3482 18.2139 13.8871 18.8503 12.0039 18.8503C10.1207 18.8503 8.65947 18.2139 7.62015 16.9412C6.58061 15.6679 6.06107 14.0219 6.06152 12.0034C6.06198 9.9849 6.58129 8.33918 7.61947 7.06627C8.65832 5.7929 10.1196 5.15633 12.0032 5.15656C13.8869 5.15678 15.3479 5.79336 16.3863 7.06627C17.4252 8.33896 17.9447 9.98467 17.945 12.0034C17.9452 14.0222 17.4259 15.6681 16.387 16.9412Z" fill="white"/>
<path d="M11.9823 16.189C12.478 16.189 12.8995 16.0539 13.2467 15.7838C13.5939 15.5136 13.8453 15.1472 14.001 14.6846C14.1564 14.2217 14.2661 13.7781 14.3301 13.3536C14.3941 12.9291 14.4259 12.4791 14.4255 12.0034C14.4255 11.4178 14.39 10.8937 14.3192 10.4311L10.0479 14.8821C10.4428 15.7529 11.0876 16.1886 11.9823 16.189Z" fill="#1A82FF"/>
<path d="M12.0243 7.81781C11.5285 7.81781 11.107 7.95289 10.7598 8.22306C10.4126 8.49322 10.1612 8.85961 10.0055 9.32223C9.84917 9.78508 9.73946 10.2287 9.67637 10.6532C9.61237 11.0776 9.5806 11.5277 9.58106 12.0033C9.58106 12.3167 9.59112 12.6124 9.61123 12.8906L13.6851 8.64613C13.2894 8.09415 12.7358 7.81804 12.0243 7.81781Z" fill="#1A82FF"/>
<path d="M6.39371 16.2466L5.86914 15.7433L9.84697 11.5968L10.3715 12.1001L6.39371 16.2466ZM13.8886 11.9198L13.364 11.4165L17.3418 7.26996L17.8664 7.77327L13.8886 11.9198Z" fill="#1A82FF"/>
</svg>
