<svg width="33" height="33" viewBox="0 0 33 33" fill="none" xmlns="http://www.w3.org/2000/svg">
<g clip-path="url(#clip0_562_357)">
<path d="M23.8517 21.3902C27.9092 19.3087 30.9851 17.7226 31.2502 17.5993C32.0984 17.1779 32.9742 16.0626 31.2502 15.1962C30.6936 14.9238 27.6967 13.3871 23.8517 11.4053L18.5215 16.4348L23.8517 21.3901V21.3902Z" fill="#FFD900"/>
<path d="M18.521 16.4346L1.54883 32.4162C1.9472 32.4655 2.39695 32.3668 2.9272 32.0945C4.04045 31.5251 15.842 25.5037 23.8512 21.3912L18.521 16.4346Z" fill="#F43249"/>
<path d="M18.521 16.4351L23.8512 11.4303C23.8512 11.4303 4.12096 1.37006 2.92721 0.776189C2.47746 0.527313 1.97346 0.453386 1.52246 0.527313L18.521 16.4351Z" fill="#00EE76"/>
<path d="M18.5214 16.437L1.52287 0.529297C0.833 0.678319 0.25 1.24778 0.25 2.41239V30.5356C0.25 31.6015 0.701125 32.3693 1.54925 32.4433L18.5214 16.437Z" fill="#00D3FF"/>
</g>
<defs>
<clipPath id="clip0_562_357">
<rect width="32" height="32" fill="white" transform="translate(0.25 0.5)"/>
</clipPath>
</defs>
</svg>
