<svg xmlns="http://www.w3.org/2000/svg" xmlns:xlink="http://www.w3.org/1999/xlink" width="20" height="20" viewBox="0 0 20 20"><defs><clipPath id="a"><circle cx="10" cy="10" r="10" transform="translate(0 1.034)" fill="#fff"/></clipPath></defs><g transform="translate(0 -1.034)"><g clip-path="url(#a)"><g transform="translate(0 1.034)"><path d="M28.24,6.034H2.286A2.286,2.286,0,0,0,0,8.321V23.748a2.286,2.286,0,0,0,2.286,2.286H28.24a2.286,2.286,0,0,0,2.286-2.286V8.321A2.286,2.286,0,0,0,28.24,6.034Z" transform="translate(0 -6.034)" fill="#ff4b55"/><g transform="translate(3.974 4.737)"><path d="M17.113,15.428l.825,1.079,1.288-.431a.079.079,0,0,1,.09.12l-.771,1.118.808,1.092a.079.079,0,0,1-.086.123l-1.3-.388-.789,1.106a.079.079,0,0,1-.143-.044L17,17.844l-1.3-.408a.079.079,0,0,1,0-.15l1.281-.451-.012-1.358A.079.079,0,0,1,17.113,15.428Z" transform="translate(-5.974 -11.968)" fill="#f5f5f5"/><path d="M11.133,20.942a4.213,4.213,0,0,1,0-8.426,4.131,4.131,0,0,1,2.328.716.1.1,0,0,0,.133-.153,5.22,5.22,0,0,0-3.959-1.61,5.263,5.263,0,0,0,.183,10.523,5.221,5.221,0,0,0,3.78-1.616.1.1,0,0,0-.133-.151A4.134,4.134,0,0,1,11.133,20.942Z" transform="translate(-4.556 -11.465)" fill="#f5f5f5"/></g></g></g></g></svg>