<svg width="24" height="24" viewBox="0 0 24 24" fill="none" xmlns="http://www.w3.org/2000/svg">
<path d="M23.9783 11.9958C23.9783 18.5905 18.6326 23.9361 12.038 23.9361C5.44357 23.9361 0.0976562 18.5905 0.0976562 11.9958C0.0976562 5.40133 5.44357 0.055542 12.038 0.055542C18.6326 0.055542 23.9783 5.40133 23.9783 11.9958Z" fill="#1BA27A"/>
<path d="M17.6422 6.07654H6.33594V8.80609H10.6243V12.818H13.3538V8.80609H17.6422V6.07654Z" fill="white"/>
<path d="M12.0144 13.2454C8.46695 13.2454 5.59089 12.684 5.59089 11.9913C5.59089 11.2988 8.46683 10.7372 12.0144 10.7372C15.5619 10.7372 18.4378 11.2988 18.4378 11.9913C18.4378 12.684 15.5619 13.2454 12.0144 13.2454ZM19.227 12.2004C19.227 11.3073 15.9978 10.5833 12.0144 10.5833C8.03113 10.5833 4.80176 11.3073 4.80176 12.2004C4.80176 12.9869 7.30576 13.6422 10.6238 13.7874V19.5467H13.3532V13.7896C16.6968 13.649 19.227 12.991 19.227 12.2004Z" fill="white"/>
</svg>
