<svg width="74" height="75" viewBox="0 0 74 75" fill="none" xmlns="http://www.w3.org/2000/svg">
<path d="M74 37.5C74 57.9345 57.4345 74.5 37 74.5C16.5655 74.5 0 57.9345 0 37.5C0 17.0655 16.5655 0.5 37 0.5C57.4345 0.5 74 17.0655 74 37.5ZM10.9256 37.5C10.9256 51.9005 22.5995 63.5744 37 63.5744C51.4005 63.5744 63.0744 51.9005 63.0744 37.5C63.0744 23.0995 51.4005 11.4256 37 11.4256C22.5995 11.4256 10.9256 23.0995 10.9256 37.5Z" fill="#34384C"/>
<path d="M37 5.96278C37 2.94577 39.4589 0.458602 42.4431 0.902407C50.2424 2.06231 57.5201 5.69425 63.1629 11.337C70.1018 18.2759 74 27.687 74 37.5C74 47.313 70.1018 56.724 63.163 63.6629C57.5202 69.3057 50.2425 72.9377 42.4432 74.0976C39.459 74.5414 37.0001 72.0542 37.0001 69.0372C37.0001 66.0202 39.4722 63.6319 42.4232 63.0043C47.3157 61.9639 51.8464 59.5285 55.4374 55.9374C60.3273 51.0475 63.0744 44.4153 63.0744 37.5C63.0744 30.5846 60.3273 23.9525 55.4374 19.0626C51.8463 15.4715 47.3156 13.0361 42.4231 11.9957C39.4721 11.3681 37 8.97979 37 5.96278Z" fill="#C963FF"/>
<path d="M18.4376 38.752H21.3176V37.552H18.4376V38.752ZM26.2441 40.348C24.9601 40.348 24.2161 39.364 24.2161 37.42V36.988C24.2161 35.08 24.9241 34.048 26.2201 34.048C27.5041 34.048 28.2001 35.152 28.2001 36.976V37.396C28.2001 39.34 27.5641 40.348 26.2441 40.348ZM26.2081 41.62C28.4521 41.62 29.7961 39.976 29.7961 37.396V36.964C29.7961 34.384 28.3801 32.8 26.2081 32.8C24.0481 32.8 22.6081 34.396 22.6081 37V37.432C22.6081 40.012 24.0241 41.62 26.2081 41.62ZM31.5405 41.584C32.0805 41.584 32.5005 41.176 32.5005 40.648C32.5005 40.12 32.0805 39.7 31.5405 39.7C31.0125 39.7 30.5925 40.12 30.5925 40.648C30.5925 41.176 31.0125 41.584 31.5405 41.584ZM36.6246 41.62C38.5926 41.62 39.8406 40.636 39.8406 39.052C39.8406 37.912 39.1806 37.204 38.1846 36.976C39.0126 36.664 39.5766 36.076 39.5766 35.104C39.5766 33.832 38.5326 32.8 36.7446 32.8C34.9086 32.8 33.7926 33.94 33.7086 35.428H35.1246C35.2206 34.564 35.8086 34.012 36.7206 34.012C37.6086 34.012 38.0526 34.528 38.0526 35.224C38.0526 36.028 37.6086 36.484 36.6246 36.484H36.0126V37.624H36.6726C37.7166 37.624 38.2206 38.092 38.2206 39.028C38.2206 39.88 37.7046 40.42 36.5886 40.42C35.4366 40.42 34.9326 39.748 34.8486 38.848H33.3966C33.4686 40.492 34.5846 41.62 36.6246 41.62ZM40.6331 41.5H46.8371V40.264H43.1891L45.0971 38.404C46.1171 37.42 46.7771 36.448 46.7771 35.332C46.7771 33.82 45.7211 32.8 43.9451 32.8C42.1331 32.8 41.0051 33.88 40.8971 35.752H42.3611C42.5051 34.54 43.0451 34.048 43.8971 34.048C44.7251 34.048 45.1811 34.552 45.1811 35.356C45.1811 36.172 44.6891 36.928 43.8731 37.792L40.6331 41.212V41.5ZM49.8506 36.028C49.2866 36.028 48.9266 35.644 48.9266 34.912C48.9266 34.192 49.2866 33.796 49.8506 33.796C50.4146 33.796 50.7626 34.216 50.7626 34.912C50.7626 35.62 50.4146 36.028 49.8506 36.028ZM49.8386 37C51.0146 37 51.9266 36.112 51.9266 34.9C51.9266 33.7 51.0026 32.836 49.8506 32.836C48.6986 32.836 47.7506 33.724 47.7506 34.924C47.7506 36.112 48.6626 37 49.8386 37ZM48.9266 41.5H49.9466L55.4666 32.92H54.4586L48.9266 41.5ZM54.5546 40.648C53.9906 40.648 53.6306 40.264 53.6306 39.532C53.6306 38.812 53.9906 38.416 54.5546 38.416C55.1186 38.416 55.4666 38.836 55.4666 39.532C55.4666 40.24 55.1186 40.648 54.5546 40.648ZM54.5426 41.62C55.7186 41.62 56.6426 40.732 56.6426 39.52C56.6426 38.32 55.7066 37.456 54.5546 37.456C53.4026 37.456 52.4666 38.344 52.4666 39.544C52.4666 40.732 53.3666 41.62 54.5426 41.62Z" fill="white"/>
</svg>
