<svg width="74" height="75" viewBox="0 0 74 75" fill="none" xmlns="http://www.w3.org/2000/svg">
<path d="M74 37.5C74 57.9345 57.4345 74.5 37 74.5C16.5655 74.5 0 57.9345 0 37.5C0 17.0655 16.5655 0.5 37 0.5C57.4345 0.5 74 17.0655 74 37.5ZM10.9256 37.5C10.9256 51.9005 22.5995 63.5744 37 63.5744C51.4005 63.5744 63.0744 51.9005 63.0744 37.5C63.0744 23.0995 51.4005 11.4256 37 11.4256C22.5995 11.4256 10.9256 23.0995 10.9256 37.5Z" fill="#34384C"/>
<path d="M37 5.96278C37 2.94577 39.4589 0.458706 42.443 0.902543C46.6271 1.52484 50.6873 2.86214 54.4417 4.86891C59.8079 7.73721 64.3839 11.8847 67.7644 16.9439C71.1448 22.0031 73.2254 27.818 73.8218 33.8734C74.4182 39.9287 73.5121 46.0378 71.1835 51.6593C68.855 57.2808 65.1761 62.2413 60.4726 66.1014C55.769 69.9615 50.1861 72.602 44.2183 73.7891C38.2506 74.9761 32.0822 74.6731 26.2595 72.9068C22.1857 71.671 18.3692 69.7457 14.9705 67.2271C12.5465 65.4308 12.5665 61.9335 14.6998 59.8002C16.8332 57.6668 20.27 57.7259 22.8004 59.3689C24.8473 60.6979 27.0783 61.738 29.431 62.4517C33.5343 63.6964 37.8813 63.91 42.0869 63.0734C46.2924 62.2369 50.2268 60.3761 53.5415 57.6558C56.8561 54.9356 59.4487 51.4398 61.0896 47.4783C62.7306 43.5167 63.3692 39.2116 62.9489 34.9443C62.5286 30.6769 61.0624 26.5791 58.6801 23.0138C56.2978 19.4485 53.0731 16.5257 49.2914 14.5044C47.1231 13.3454 44.8101 12.5033 42.423 11.9957C39.4719 11.3682 37 8.97979 37 5.96278Z" fill="#30E0A1"/>
<path d="M19.5069 40.848H20.7189V38.472H22.9149V37.344H20.7189V34.968H19.5069V37.344H17.3229V38.472H19.5069V40.848ZM27.5957 40.848C26.3117 40.848 25.5677 39.864 25.5677 37.92V37.488C25.5677 35.58 26.2757 34.548 27.5717 34.548C28.8557 34.548 29.5517 35.652 29.5517 37.476V37.896C29.5517 39.84 28.9157 40.848 27.5957 40.848ZM27.5597 42.12C29.8037 42.12 31.1477 40.476 31.1477 37.896V37.464C31.1477 34.884 29.7317 33.3 27.5597 33.3C25.3997 33.3 23.9597 34.896 23.9597 37.5V37.932C23.9597 40.512 25.3757 42.12 27.5597 42.12ZM32.8921 42.084C33.4321 42.084 33.8521 41.676 33.8521 41.148C33.8521 40.62 33.4321 40.2 32.8921 40.2C32.3641 40.2 31.9441 40.62 31.9441 41.148C31.9441 41.676 32.3641 42.084 32.8921 42.084ZM34.7542 42H40.9582V40.764H37.3102L39.2182 38.904C40.2382 37.92 40.8982 36.948 40.8982 35.832C40.8982 34.32 39.8422 33.3 38.0662 33.3C36.2542 33.3 35.1262 34.38 35.0182 36.252H36.4822C36.6262 35.04 37.1662 34.548 38.0182 34.548C38.8462 34.548 39.3022 35.052 39.3022 35.856C39.3022 36.672 38.8102 37.428 37.9942 38.292L34.7542 41.712V42ZM45.0037 42.12C46.8517 42.12 48.1597 40.98 48.1597 39.168C48.1597 37.368 47.0677 36.288 45.5197 36.288C44.6077 36.288 44.0077 36.624 43.6717 37.008L43.6837 34.68H47.6677V33.42H42.4597L42.3877 38.196H43.2037C43.5877 37.752 44.1157 37.452 44.9917 37.452C45.9397 37.452 46.5397 38.112 46.5397 39.144C46.5397 40.2 45.9757 40.884 44.9917 40.884C43.8877 40.884 43.5637 40.332 43.4317 39.54H41.9437C42.0397 41.016 42.9877 42.12 45.0037 42.12ZM50.8506 36.528C50.2866 36.528 49.9266 36.144 49.9266 35.412C49.9266 34.692 50.2866 34.296 50.8506 34.296C51.4146 34.296 51.7626 34.716 51.7626 35.412C51.7626 36.12 51.4146 36.528 50.8506 36.528ZM50.8386 37.5C52.0146 37.5 52.9266 36.612 52.9266 35.4C52.9266 34.2 52.0026 33.336 50.8506 33.336C49.6986 33.336 48.7506 34.224 48.7506 35.424C48.7506 36.612 49.6626 37.5 50.8386 37.5ZM49.9266 42H50.9466L56.4666 33.42H55.4586L49.9266 42ZM55.5546 41.148C54.9906 41.148 54.6306 40.764 54.6306 40.032C54.6306 39.312 54.9906 38.916 55.5546 38.916C56.1186 38.916 56.4666 39.336 56.4666 40.032C56.4666 40.74 56.1186 41.148 55.5546 41.148ZM55.5426 42.12C56.7186 42.12 57.6426 41.232 57.6426 40.02C57.6426 38.82 56.7066 37.956 55.5546 37.956C54.4026 37.956 53.4666 38.844 53.4666 40.044C53.4666 41.232 54.3666 42.12 55.5426 42.12Z" fill="white"/>
</svg>
