<svg width="24" height="24" viewBox="0 0 24 24" fill="none" xmlns="http://www.w3.org/2000/svg">
<circle cx="12" cy="12" r="12" fill="#25292C"/>
<path d="M16.9489 5H18.9723L14.7614 10.0347C13.2364 11.857 10.764 11.857 9.23797 10.0347L5.02539 5H7.05047L10.2497 8.82458C10.7158 9.37933 11.344 9.69031 11.9985 9.69031C12.6529 9.69031 13.2811 9.37933 13.7472 8.82458L16.9489 5Z" fill="white"/>
<path d="M7.0248 19H5L9.23828 13.9342C10.7632 12.1119 13.2357 12.1119 14.7617 13.9342L19 19H16.9766L13.75 15.1444C13.2839 14.5896 12.6557 14.2787 12.0012 14.2787C11.3468 14.2787 10.7186 14.5896 10.2525 15.1444L7.0248 19Z" fill="white"/>
</svg>
